<svg xmlns="http://www.w3.org/2000/svg" xmlns:xlink="http://www.w3.org/1999/xlink" width="500" zoomAndPan="magnify" viewBox="0 0 375 374.999991" height="500" preserveAspectRatio="xMidYMid meet" version="1.0"><defs><clipPath id="682d2eaa97"><path d="M 144 9 L 191 9 L 191 55 L 144 55 Z M 144 9 " clip-rule="nonzero"/></clipPath><clipPath id="469ff8746c"><path d="M 168.144531 0.00390625 L 199.597656 32.589844 L 167.011719 64.042969 L 135.554688 31.457031 Z M 168.144531 0.00390625 " clip-rule="nonzero"/></clipPath><clipPath id="8df347faac"><path d="M 183.871094 16.296875 C 175.183594 7.296875 160.847656 7.042969 151.851562 15.730469 C 142.851562 24.414062 142.597656 38.75 151.285156 47.75 C 159.96875 56.75 174.304688 57 183.304688 48.316406 C 192.300781 39.628906 192.554688 25.292969 183.871094 16.296875 Z M 183.871094 16.296875 " clip-rule="nonzero"/></clipPath><clipPath id="0348008d01"><path d="M 195 58 L 241 58 L 241 105 L 195 105 Z M 195 58 " clip-rule="nonzero"/></clipPath><clipPath id="5e0ba15098"><path d="M 218.507812 49.554688 L 249.960938 82.140625 L 217.375 113.59375 L 185.921875 81.007812 Z M 218.507812 49.554688 " clip-rule="nonzero"/></clipPath><clipPath id="08abb7de36"><path d="M 234.234375 65.847656 C 225.546875 56.847656 211.210938 56.59375 202.214844 65.28125 C 193.214844 73.96875 192.960938 88.304688 201.648438 97.300781 C 210.332031 106.300781 224.667969 106.554688 233.667969 97.867188 C 242.667969 89.183594 242.917969 74.847656 234.234375 65.847656 Z M 234.234375 65.847656 " clip-rule="nonzero"/></clipPath><clipPath id="afce4691a6"><path d="M 31.65625 51.859375 L 76.945312 51.859375 L 76.945312 97.152344 L 31.65625 97.152344 Z M 31.65625 51.859375 " clip-rule="nonzero"/></clipPath><clipPath id="90a7ecb4b6"><path d="M 54.300781 51.859375 C 41.792969 51.859375 31.65625 62 31.65625 74.507812 C 31.65625 87.011719 41.792969 97.152344 54.300781 97.152344 C 66.808594 97.152344 76.945312 87.011719 76.945312 74.507812 C 76.945312 62 66.808594 51.859375 54.300781 51.859375 Z M 54.300781 51.859375 " clip-rule="nonzero"/></clipPath><clipPath id="3a0ede035d"><path d="M 103.308594 51.859375 L 148.601562 51.859375 L 148.601562 97.152344 L 103.308594 97.152344 Z M 103.308594 51.859375 " clip-rule="nonzero"/></clipPath><clipPath id="42d7c0b098"><path d="M 125.953125 51.859375 C 113.449219 51.859375 103.308594 62 103.308594 74.507812 C 103.308594 87.011719 113.449219 97.152344 125.953125 97.152344 C 138.460938 97.152344 148.601562 87.011719 148.601562 74.507812 C 148.601562 62 138.460938 51.859375 125.953125 51.859375 Z M 125.953125 51.859375 " clip-rule="nonzero"/></clipPath><clipPath id="ced2bbe5c3"><path d="M 88 272 L 134 272 L 134 318 L 88 318 Z M 88 272 " clip-rule="nonzero"/></clipPath><clipPath id="c76966c050"><path d="M 111.242188 262.917969 L 142.695312 295.503906 L 110.109375 326.957031 L 78.652344 294.371094 Z M 111.242188 262.917969 " clip-rule="nonzero"/></clipPath><clipPath id="4b39a9bb67"><path d="M 126.96875 279.210938 C 118.28125 270.210938 103.945312 269.957031 94.949219 278.644531 C 85.949219 287.328125 85.695312 301.664062 94.382812 310.664062 C 103.066406 319.664062 117.402344 319.914062 126.402344 311.230469 C 135.398438 302.542969 135.652344 288.207031 126.96875 279.210938 Z M 126.96875 279.210938 " clip-rule="nonzero"/></clipPath><clipPath id="cb55812f37"><path d="M 137 323 L 184 323 L 184 370 L 137 370 Z M 137 323 " clip-rule="nonzero"/></clipPath><clipPath id="2135e462d9"><path d="M 161.003906 314.472656 L 192.457031 347.058594 L 159.871094 378.511719 L 128.417969 345.925781 Z M 161.003906 314.472656 " clip-rule="nonzero"/></clipPath><clipPath id="9ea72ca8de"><path d="M 176.730469 330.765625 C 168.046875 321.765625 153.710938 321.511719 144.710938 330.199219 C 135.710938 338.882812 135.460938 353.21875 144.144531 362.21875 C 152.832031 371.21875 167.167969 371.472656 176.164062 362.785156 C 185.164062 354.097656 185.417969 339.761719 176.730469 330.765625 Z M 176.730469 330.765625 " clip-rule="nonzero"/></clipPath><clipPath id="5f17003720"><path d="M 254 57 L 301 57 L 301 103 L 254 103 Z M 254 57 " clip-rule="nonzero"/></clipPath><clipPath id="a415ec8c2f"><path d="M 300.402344 57.53125 L 299.601562 102.816406 L 254.320312 102.015625 L 255.121094 56.730469 Z M 300.402344 57.53125 " clip-rule="nonzero"/></clipPath><clipPath id="5ea8c38e01"><path d="M 300.003906 80.175781 C 300.222656 67.671875 290.265625 57.355469 277.761719 57.132812 C 265.257812 56.910156 254.941406 66.871094 254.71875 79.375 C 254.5 91.878906 264.457031 102.195312 276.960938 102.417969 C 289.464844 102.636719 299.78125 92.679688 300.003906 80.175781 Z M 300.003906 80.175781 " clip-rule="nonzero"/></clipPath><clipPath id="3ae96e6eff"><path d="M 253 128 L 299 128 L 299 175 L 253 175 Z M 253 128 " clip-rule="nonzero"/></clipPath><clipPath id="9070824434"><path d="M 299.136719 129.175781 L 298.335938 174.460938 L 253.050781 173.660156 L 253.851562 128.375 Z M 299.136719 129.175781 " clip-rule="nonzero"/></clipPath><clipPath id="6f6bcb0f02"><path d="M 298.734375 151.820312 C 298.957031 139.3125 289 128.996094 276.496094 128.777344 C 263.988281 128.554688 253.671875 138.511719 253.453125 151.019531 C 253.230469 163.523438 263.1875 173.839844 275.695312 174.058594 C 288.199219 174.28125 298.515625 164.324219 298.734375 151.820312 Z M 298.734375 151.820312 " clip-rule="nonzero"/></clipPath><clipPath id="2ed08488b5"><path d="M 297 169 L 343 169 L 343 215 L 297 215 Z M 297 169 " clip-rule="nonzero"/></clipPath><clipPath id="a2f40c5268"><path d="M 352.082031 191.539062 L 320.429688 223.9375 L 288.035156 192.289062 L 319.683594 159.890625 Z M 352.082031 191.539062 " clip-rule="nonzero"/></clipPath><clipPath id="1a574839d0"><path d="M 336.253906 207.738281 C 344.996094 198.792969 344.828125 184.457031 335.882812 175.714844 C 326.933594 166.976562 312.597656 167.144531 303.859375 176.089844 C 295.117188 185.035156 295.285156 199.375 304.230469 208.113281 C 313.179688 216.851562 327.515625 216.683594 336.253906 207.738281 Z M 336.253906 207.738281 " clip-rule="nonzero"/></clipPath><clipPath id="d48d0b96b3"><path d="M 247 220 L 293 220 L 293 266 L 247 266 Z M 247 220 " clip-rule="nonzero"/></clipPath><clipPath id="e037f64401"><path d="M 302.007812 242.796875 L 270.359375 275.191406 L 237.960938 243.542969 L 269.609375 211.148438 Z M 302.007812 242.796875 " clip-rule="nonzero"/></clipPath><clipPath id="3ebb9578aa"><path d="M 286.183594 258.996094 C 294.921875 250.046875 294.753906 235.710938 285.808594 226.972656 C 276.863281 218.230469 262.527344 218.398438 253.785156 227.34375 C 245.046875 236.292969 245.214844 250.628906 254.160156 259.367188 C 263.105469 268.109375 277.445312 267.941406 286.183594 258.996094 Z M 286.183594 258.996094 " clip-rule="nonzero"/></clipPath><clipPath id="fe8d63dec6"><path d="M 178 279 L 225 279 L 225 325 L 178 325 Z M 178 279 " clip-rule="nonzero"/></clipPath><clipPath id="27b3bdbce8"><path d="M 179.125 279.007812 L 224.40625 279.808594 L 223.605469 325.09375 L 178.324219 324.292969 Z M 179.125 279.007812 " clip-rule="nonzero"/></clipPath><clipPath id="866df71964"><path d="M 201.765625 279.410156 C 189.261719 279.1875 178.945312 289.144531 178.722656 301.648438 C 178.5 314.15625 188.460938 324.472656 200.964844 324.691406 C 213.46875 324.914062 223.785156 314.957031 224.007812 302.449219 C 224.226562 289.945312 214.269531 279.628906 201.765625 279.410156 Z M 201.765625 279.410156 " clip-rule="nonzero"/></clipPath><clipPath id="fd6c9da607"><path d="M 250 280 L 296 280 L 296 326 L 250 326 Z M 250 280 " clip-rule="nonzero"/></clipPath><clipPath id="77c345da8b"><path d="M 250.765625 280.273438 L 296.050781 281.074219 L 295.25 326.359375 L 249.964844 325.558594 Z M 250.765625 280.273438 " clip-rule="nonzero"/></clipPath><clipPath id="d2baea525b"><path d="M 273.410156 280.675781 C 260.902344 280.453125 250.585938 290.410156 250.367188 302.917969 C 250.144531 315.421875 260.101562 325.738281 272.609375 325.957031 C 285.113281 326.179688 295.429688 316.222656 295.648438 303.71875 C 295.871094 291.210938 285.914062 280.894531 273.410156 280.675781 Z M 273.410156 280.675781 " clip-rule="nonzero"/></clipPath><clipPath id="c6038a8293"><path d="M 73.578125 18.445312 L 106.996094 18.445312 L 106.996094 51.859375 L 73.578125 51.859375 Z M 73.578125 18.445312 " clip-rule="nonzero"/></clipPath><clipPath id="36136dc624"><path d="M 90.285156 18.445312 C 81.058594 18.445312 73.578125 25.925781 73.578125 35.152344 C 73.578125 44.378906 81.058594 51.859375 90.285156 51.859375 C 99.515625 51.859375 106.996094 44.378906 106.996094 35.152344 C 106.996094 25.925781 99.515625 18.445312 90.285156 18.445312 Z M 90.285156 18.445312 " clip-rule="nonzero"/></clipPath><clipPath id="642100e244"><path d="M 203.769531 11.710938 L 237.1875 11.710938 L 237.1875 45.125 L 203.769531 45.125 Z M 203.769531 11.710938 " clip-rule="nonzero"/></clipPath><clipPath id="b2916d0493"><path d="M 220.476562 11.710938 C 211.25 11.710938 203.769531 19.191406 203.769531 28.417969 C 203.769531 37.644531 211.25 45.125 220.476562 45.125 C 229.707031 45.125 237.1875 37.644531 237.1875 28.417969 C 237.1875 19.191406 229.707031 11.710938 220.476562 11.710938 Z M 220.476562 11.710938 " clip-rule="nonzero"/></clipPath><clipPath id="532396fb05"><path d="M 299.144531 98.886719 L 332.5625 98.886719 L 332.5625 132.304688 L 299.144531 132.304688 Z M 299.144531 98.886719 " clip-rule="nonzero"/></clipPath><clipPath id="f3eb1a88c9"><path d="M 315.855469 98.886719 C 306.625 98.886719 299.144531 106.367188 299.144531 115.597656 C 299.144531 124.824219 306.625 132.304688 315.855469 132.304688 C 325.082031 132.304688 332.5625 124.824219 332.5625 115.597656 C 332.5625 106.367188 325.082031 98.886719 315.855469 98.886719 Z M 315.855469 98.886719 " clip-rule="nonzero"/></clipPath><clipPath id="3c53de28af"><path d="M 306.824219 229.496094 L 340.242188 229.496094 L 340.242188 262.914062 L 306.824219 262.914062 Z M 306.824219 229.496094 " clip-rule="nonzero"/></clipPath><clipPath id="8e05987fe1"><path d="M 323.53125 229.496094 C 314.304688 229.496094 306.824219 236.976562 306.824219 246.207031 C 306.824219 255.433594 314.304688 262.914062 323.53125 262.914062 C 332.761719 262.914062 340.242188 255.433594 340.242188 246.207031 C 340.242188 236.976562 332.761719 229.496094 323.53125 229.496094 Z M 323.53125 229.496094 " clip-rule="nonzero"/></clipPath><clipPath id="5af1793e73"><path d="M 219.644531 326.359375 L 253.0625 326.359375 L 253.0625 359.777344 L 219.644531 359.777344 Z M 219.644531 326.359375 " clip-rule="nonzero"/></clipPath><clipPath id="0560a9ed5c"><path d="M 236.351562 326.359375 C 227.125 326.359375 219.644531 333.839844 219.644531 343.066406 C 219.644531 352.296875 227.125 359.777344 236.351562 359.777344 C 245.582031 359.777344 253.0625 352.296875 253.0625 343.066406 C 253.0625 333.839844 245.582031 326.359375 236.351562 326.359375 Z M 236.351562 326.359375 " clip-rule="nonzero"/></clipPath><clipPath id="af501150e9"><path d="M 90.285156 330.195312 L 123.703125 330.195312 L 123.703125 363.613281 L 90.285156 363.613281 Z M 90.285156 330.195312 " clip-rule="nonzero"/></clipPath><clipPath id="1eac43b962"><path d="M 106.996094 330.195312 C 97.765625 330.195312 90.285156 337.675781 90.285156 346.90625 C 90.285156 356.132812 97.765625 363.613281 106.996094 363.613281 C 116.222656 363.613281 123.703125 356.132812 123.703125 346.90625 C 123.703125 337.675781 116.222656 330.195312 106.996094 330.195312 Z M 106.996094 330.195312 " clip-rule="nonzero"/></clipPath><clipPath id="c1e2cf76c2"><path d="M 120 307 L 149 307 L 149 336 L 120 336 Z M 120 307 " clip-rule="nonzero"/></clipPath><clipPath id="7bc3d3923f"><path d="M 120.460938 315.058594 L 128.417969 307.105469 L 149.097656 327.785156 L 141.144531 335.742188 Z M 120.460938 315.058594 " clip-rule="nonzero"/></clipPath><clipPath id="8bfc1d3cb9"><path d="M 120.460938 315.058594 L 128.417969 307.105469 L 149.097656 327.785156 L 141.144531 335.742188 Z M 120.460938 315.058594 " clip-rule="nonzero"/></clipPath><clipPath id="2f6ebe67fb"><path d="M 223 298 L 251.988281 298 L 251.988281 308.765625 L 223 308.765625 Z M 223 298 " clip-rule="nonzero"/></clipPath><clipPath id="8fedd45e69"><path d="M 222.738281 297.515625 L 251.988281 297.515625 L 251.988281 308.765625 L 222.738281 308.765625 Z M 222.738281 297.515625 " clip-rule="nonzero"/></clipPath><clipPath id="f6735e655e"><path d="M 282 204 L 310 204 L 310 233 L 282 233 Z M 282 204 " clip-rule="nonzero"/></clipPath><clipPath id="79c9187dce"><path d="M 289.6875 232.566406 L 281.730469 224.613281 L 302.414062 203.929688 L 310.371094 211.882812 Z M 289.6875 232.566406 " clip-rule="nonzero"/></clipPath><clipPath id="ef12124e01"><path d="M 289.6875 232.566406 L 281.730469 224.613281 L 302.414062 203.929688 L 310.371094 211.882812 Z M 289.6875 232.566406 " clip-rule="nonzero"/></clipPath><clipPath id="7b83767751"><path d="M 272 101 L 282.816406 101 L 282.816406 130 L 272 130 Z M 272 101 " clip-rule="nonzero"/></clipPath><clipPath id="b75a9000a0"><path d="M 271.566406 101 L 282.816406 101 L 282.816406 130 L 271.566406 130 Z M 271.566406 101 " clip-rule="nonzero"/></clipPath><clipPath id="37718fc099"><path d="M 76 69 L 105 69 L 105 79.953125 L 76 79.953125 Z M 76 69 " clip-rule="nonzero"/></clipPath><clipPath id="5f2c032dcb"><path d="M 75.839844 69 L 105 69 L 105 79.953125 L 75.839844 79.953125 Z M 75.839844 69 " clip-rule="nonzero"/></clipPath><clipPath id="86cd31a7f6"><path d="M 178 43 L 207 43 L 207 71 L 178 71 Z M 178 43 " clip-rule="nonzero"/></clipPath><clipPath id="8e601f8a46"><path d="M 178.183594 50.859375 L 185.859375 42.636719 L 207.242188 62.59375 L 199.566406 70.816406 Z M 178.183594 50.859375 " clip-rule="nonzero"/></clipPath><clipPath id="91999a9ab7"><path d="M 178.183594 50.859375 L 185.859375 42.636719 L 207.242188 62.59375 L 199.566406 70.816406 Z M 178.183594 50.859375 " clip-rule="nonzero"/></clipPath></defs><g clip-path="url(#682d2eaa97)"><g clip-path="url(#469ff8746c)"><g clip-path="url(#8df347faac)"><path fill="#25d366" d="M 168.144531 0.00390625 L 199.597656 32.589844 L 167.011719 64.042969 L 135.554688 31.457031 Z M 168.144531 0.00390625 " fill-opacity="1" fill-rule="nonzero"/></g></g></g><g clip-path="url(#0348008d01)"><g clip-path="url(#5e0ba15098)"><g clip-path="url(#08abb7de36)"><path fill="#25d366" d="M 218.507812 49.554688 L 249.960938 82.140625 L 217.375 113.59375 L 185.921875 81.007812 Z M 218.507812 49.554688 " fill-opacity="1" fill-rule="nonzero"/></g></g></g><g clip-path="url(#afce4691a6)"><g clip-path="url(#90a7ecb4b6)"><path fill="#25d366" d="M 31.65625 51.859375 L 76.945312 51.859375 L 76.945312 97.152344 L 31.65625 97.152344 Z M 31.65625 51.859375 " fill-opacity="1" fill-rule="nonzero"/></g></g><g clip-path="url(#3a0ede035d)"><g clip-path="url(#42d7c0b098)"><path fill="#25d366" d="M 103.308594 51.859375 L 148.601562 51.859375 L 148.601562 97.152344 L 103.308594 97.152344 Z M 103.308594 51.859375 " fill-opacity="1" fill-rule="nonzero"/></g></g><g clip-path="url(#ced2bbe5c3)"><g clip-path="url(#c76966c050)"><g clip-path="url(#4b39a9bb67)"><path fill="#25d366" d="M 111.242188 262.917969 L 142.695312 295.503906 L 110.109375 326.957031 L 78.652344 294.371094 Z M 111.242188 262.917969 " fill-opacity="1" fill-rule="nonzero"/></g></g></g><g clip-path="url(#cb55812f37)"><g clip-path="url(#2135e462d9)"><g clip-path="url(#9ea72ca8de)"><path fill="#25d366" d="M 161.003906 314.472656 L 192.457031 347.058594 L 159.871094 378.511719 L 128.417969 345.925781 Z M 161.003906 314.472656 " fill-opacity="1" fill-rule="nonzero"/></g></g></g><g clip-path="url(#5f17003720)"><g clip-path="url(#a415ec8c2f)"><g clip-path="url(#5ea8c38e01)"><path fill="#25d366" d="M 300.402344 57.53125 L 299.601562 102.816406 L 254.320312 102.015625 L 255.121094 56.730469 Z M 300.402344 57.53125 " fill-opacity="1" fill-rule="nonzero"/></g></g></g><g clip-path="url(#3ae96e6eff)"><g clip-path="url(#9070824434)"><g clip-path="url(#6f6bcb0f02)"><path fill="#25d366" d="M 299.136719 129.175781 L 298.335938 174.460938 L 253.050781 173.660156 L 253.851562 128.375 Z M 299.136719 129.175781 " fill-opacity="1" fill-rule="nonzero"/></g></g></g><g clip-path="url(#2ed08488b5)"><g clip-path="url(#a2f40c5268)"><g clip-path="url(#1a574839d0)"><path fill="#25d366" d="M 352.082031 191.539062 L 320.429688 223.9375 L 288.035156 192.289062 L 319.683594 159.890625 Z M 352.082031 191.539062 " fill-opacity="1" fill-rule="nonzero"/></g></g></g><g clip-path="url(#d48d0b96b3)"><g clip-path="url(#e037f64401)"><g clip-path="url(#3ebb9578aa)"><path fill="#25d366" d="M 302.007812 242.796875 L 270.359375 275.191406 L 237.960938 243.542969 L 269.609375 211.148438 Z M 302.007812 242.796875 " fill-opacity="1" fill-rule="nonzero"/></g></g></g><g clip-path="url(#fe8d63dec6)"><g clip-path="url(#27b3bdbce8)"><g clip-path="url(#866df71964)"><path fill="#25d366" d="M 179.125 279.007812 L 224.40625 279.808594 L 223.605469 325.09375 L 178.324219 324.292969 Z M 179.125 279.007812 " fill-opacity="1" fill-rule="nonzero"/></g></g></g><g clip-path="url(#fd6c9da607)"><g clip-path="url(#77c345da8b)"><g clip-path="url(#d2baea525b)"><path fill="#25d366" d="M 250.765625 280.273438 L 296.050781 281.074219 L 295.25 326.359375 L 249.964844 325.558594 Z M 250.765625 280.273438 " fill-opacity="1" fill-rule="nonzero"/></g></g></g><g clip-path="url(#c6038a8293)"><g clip-path="url(#36136dc624)"><path fill="#25d366" d="M 73.578125 18.445312 L 106.996094 18.445312 L 106.996094 51.859375 L 73.578125 51.859375 Z M 73.578125 18.445312 " fill-opacity="1" fill-rule="nonzero"/></g></g><g clip-path="url(#642100e244)"><g clip-path="url(#b2916d0493)"><path fill="#25d366" d="M 203.769531 11.710938 L 237.1875 11.710938 L 237.1875 45.125 L 203.769531 45.125 Z M 203.769531 11.710938 " fill-opacity="1" fill-rule="nonzero"/></g></g><g clip-path="url(#532396fb05)"><g clip-path="url(#f3eb1a88c9)"><path fill="#25d366" d="M 299.144531 98.886719 L 332.5625 98.886719 L 332.5625 132.304688 L 299.144531 132.304688 Z M 299.144531 98.886719 " fill-opacity="1" fill-rule="nonzero"/></g></g><g clip-path="url(#3c53de28af)"><g clip-path="url(#8e05987fe1)"><path fill="#25d366" d="M 306.824219 229.496094 L 340.242188 229.496094 L 340.242188 262.914062 L 306.824219 262.914062 Z M 306.824219 229.496094 " fill-opacity="1" fill-rule="nonzero"/></g></g><g clip-path="url(#5af1793e73)"><g clip-path="url(#0560a9ed5c)"><path fill="#25d366" d="M 219.644531 326.359375 L 253.0625 326.359375 L 253.0625 359.777344 L 219.644531 359.777344 Z M 219.644531 326.359375 " fill-opacity="1" fill-rule="nonzero"/></g></g><g clip-path="url(#af501150e9)"><g clip-path="url(#1eac43b962)"><path fill="#25d366" d="M 90.285156 330.195312 L 123.703125 330.195312 L 123.703125 363.613281 L 90.285156 363.613281 Z M 90.285156 330.195312 " fill-opacity="1" fill-rule="nonzero"/></g></g><g clip-path="url(#c1e2cf76c2)"><g clip-path="url(#7bc3d3923f)"><g clip-path="url(#8bfc1d3cb9)"><path fill="#25d366" d="M 128.027344 307.890625 L 120.996094 314.925781 C 120.867188 315.050781 120.933594 315.265625 121.105469 315.304688 C 123.746094 315.910156 128.222656 318.960938 132.605469 323.34375 C 136.988281 327.722656 140.035156 332.199219 140.640625 334.839844 C 140.679688 335.015625 140.894531 335.078125 141.023438 334.953125 L 148.054688 327.917969 C 148.183594 327.792969 148.117188 327.578125 147.945312 327.535156 C 145.304688 326.929688 140.828125 323.882812 136.445312 319.5 C 132.0625 315.117188 129.015625 310.644531 128.410156 308.003906 C 128.371094 307.828125 128.15625 307.765625 128.027344 307.890625 Z M 128.027344 307.890625 " fill-opacity="1" fill-rule="nonzero"/><path fill="#25d366" d="M 148.214844 328.078125 L 141.183594 335.113281 C 141.066406 335.226562 140.894531 335.273438 140.738281 335.226562 C 140.578125 335.179688 140.457031 335.050781 140.417969 334.890625 C 139.804688 332.199219 136.671875 327.730469 132.445312 323.503906 C 128.214844 319.273438 123.746094 316.144531 121.054688 315.527344 C 120.894531 315.488281 120.765625 315.367188 120.71875 315.207031 C 120.675781 315.050781 120.71875 314.878906 120.835938 314.765625 L 127.867188 307.730469 C 127.984375 307.613281 128.15625 307.570312 128.3125 307.617188 C 128.472656 307.660156 128.59375 307.789062 128.632812 307.953125 C 129.246094 310.640625 132.378906 315.109375 136.605469 319.339844 C 140.835938 323.570312 145.304688 326.699219 147.996094 327.316406 C 148.15625 327.351562 148.285156 327.472656 148.332031 327.632812 C 148.375 327.792969 148.332031 327.960938 148.214844 328.078125 Z M 121.15625 315.085938 C 123.921875 315.71875 128.480469 318.898438 132.765625 323.183594 C 137.050781 327.464844 140.226562 332.023438 140.859375 334.789062 L 147.894531 327.757812 C 145.125 327.125 140.570312 323.945312 136.285156 319.660156 C 132 315.375 128.824219 310.820312 128.1875 308.054688 L 128.1875 308.050781 Z M 121.15625 315.085938 " fill-opacity="1" fill-rule="nonzero"/></g></g></g><g clip-path="url(#2f6ebe67fb)"><path fill="#25d366" d="M 223.023438 298.347656 L 223.023438 308.292969 C 223.023438 308.472656 223.21875 308.578125 223.371094 308.484375 C 225.664062 307.042969 230.984375 306.035156 237.183594 306.035156 C 243.382812 306.035156 248.699219 307.042969 250.996094 308.484375 C 251.148438 308.578125 251.34375 308.472656 251.34375 308.292969 L 251.34375 298.347656 C 251.34375 298.167969 251.148438 298.0625 250.996094 298.15625 C 248.699219 299.59375 243.382812 300.605469 237.183594 300.605469 C 230.984375 300.605469 225.664062 299.59375 223.371094 298.15625 C 223.21875 298.0625 223.023438 298.167969 223.023438 298.347656 Z M 223.023438 298.347656 " fill-opacity="1" fill-rule="nonzero"/></g><g clip-path="url(#8fedd45e69)"><path fill="#25d366" d="M 251.570312 298.347656 L 251.570312 308.292969 C 251.570312 308.457031 251.480469 308.609375 251.335938 308.6875 C 251.191406 308.769531 251.015625 308.765625 250.875 308.675781 C 248.539062 307.210938 243.164062 306.261719 237.183594 306.261719 C 231.203125 306.261719 225.828125 307.210938 223.492188 308.675781 C 223.351562 308.765625 223.171875 308.769531 223.027344 308.6875 C 222.882812 308.609375 222.796875 308.457031 222.796875 308.292969 L 222.796875 298.347656 C 222.796875 298.183594 222.882812 298.03125 223.027344 297.949219 C 223.171875 297.871094 223.351562 297.875 223.492188 297.964844 C 225.828125 299.429688 231.203125 300.378906 237.183594 300.378906 C 243.164062 300.378906 248.539062 299.429688 250.875 297.964844 C 251.015625 297.875 251.191406 297.871094 251.335938 297.949219 C 251.480469 298.03125 251.570312 298.183594 251.570312 298.347656 Z M 223.25 308.292969 C 225.65625 306.785156 231.125 305.808594 237.183594 305.808594 C 243.242188 305.808594 248.710938 306.785156 251.117188 308.292969 L 251.117188 298.347656 C 248.710938 299.855469 243.242188 300.832031 237.183594 300.832031 C 231.125 300.832031 225.65625 299.855469 223.25 298.347656 Z M 223.25 308.292969 " fill-opacity="1" fill-rule="nonzero"/></g><g clip-path="url(#f6735e655e)"><g clip-path="url(#79c9187dce)"><g clip-path="url(#ef12124e01)"><path fill="#25d366" d="M 282.519531 225 L 289.554688 232.035156 C 289.679688 232.160156 289.894531 232.097656 289.933594 231.921875 C 290.539062 229.28125 293.589844 224.808594 297.96875 220.425781 C 302.351562 216.042969 306.828125 212.992188 309.46875 212.386719 C 309.644531 212.347656 309.707031 212.132812 309.578125 212.007812 L 302.546875 204.972656 C 302.417969 204.847656 302.203125 204.910156 302.164062 205.085938 C 301.558594 207.726562 298.511719 212.199219 294.128906 216.582031 C 289.746094 220.964844 285.273438 224.015625 282.632812 224.617188 C 282.457031 224.660156 282.394531 224.875 282.519531 225 Z M 282.519531 225 " fill-opacity="1" fill-rule="nonzero"/><path fill="#25d366" d="M 302.707031 204.8125 L 309.742188 211.847656 C 309.855469 211.964844 309.902344 212.132812 309.855469 212.292969 C 309.808594 212.449219 309.679688 212.570312 309.519531 212.609375 C 306.828125 213.226562 302.359375 216.355469 298.128906 220.585938 C 293.902344 224.8125 290.769531 229.285156 290.15625 231.972656 C 290.117188 232.132812 289.996094 232.261719 289.835938 232.308594 C 289.679688 232.355469 289.507812 232.308594 289.394531 232.195312 L 282.359375 225.160156 C 282.242188 225.042969 282.199219 224.875 282.246094 224.714844 C 282.289062 224.558594 282.417969 224.433594 282.582031 224.398438 C 285.269531 223.78125 289.738281 220.652344 293.96875 216.421875 C 298.199219 212.195312 301.328125 207.722656 301.945312 205.035156 C 301.980469 204.871094 302.101562 204.742188 302.261719 204.699219 C 302.417969 204.652344 302.589844 204.695312 302.707031 204.8125 Z M 289.714844 231.875 C 290.347656 229.105469 293.527344 224.550781 297.808594 220.265625 C 302.09375 215.980469 306.652344 212.800781 309.417969 212.167969 L 302.386719 205.132812 C 301.753906 207.902344 298.574219 212.457031 294.289062 216.742188 C 290.003906 221.027344 285.449219 224.207031 282.683594 224.839844 L 282.679688 224.839844 Z M 289.714844 231.875 " fill-opacity="1" fill-rule="nonzero"/></g></g></g><g clip-path="url(#7b83767751)"><path fill="#25d366" d="M 272.398438 129.757812 L 282.34375 129.757812 C 282.523438 129.757812 282.628906 129.558594 282.535156 129.40625 C 281.097656 127.113281 280.085938 121.792969 280.085938 115.597656 C 280.085938 109.398438 281.097656 104.078125 282.535156 101.785156 C 282.628906 101.632812 282.523438 101.433594 282.34375 101.433594 L 272.398438 101.433594 C 272.21875 101.433594 272.113281 101.632812 272.207031 101.785156 C 273.644531 104.078125 274.65625 109.398438 274.65625 115.597656 C 274.65625 121.792969 273.644531 127.113281 272.207031 129.40625 C 272.113281 129.558594 272.21875 129.757812 272.398438 129.757812 Z M 272.398438 129.757812 " fill-opacity="1" fill-rule="nonzero"/></g><g clip-path="url(#b75a9000a0)"><path fill="#25d366" d="M 272.398438 101.207031 L 282.34375 101.207031 C 282.507812 101.207031 282.660156 101.296875 282.742188 101.441406 C 282.820312 101.585938 282.816406 101.761719 282.726562 101.902344 C 281.261719 104.242188 280.3125 109.617188 280.3125 115.597656 C 280.3125 121.578125 281.261719 126.949219 282.726562 129.289062 C 282.816406 129.429688 282.820312 129.605469 282.742188 129.75 C 282.660156 129.894531 282.507812 129.984375 282.34375 129.984375 L 272.398438 129.984375 C 272.234375 129.984375 272.082031 129.894531 272 129.75 C 271.921875 129.605469 271.925781 129.429688 272.015625 129.289062 C 273.480469 126.949219 274.429688 121.578125 274.429688 115.597656 C 274.429688 109.617188 273.480469 104.242188 272.015625 101.902344 C 271.925781 101.761719 271.921875 101.585938 272 101.441406 C 272.082031 101.296875 272.234375 101.207031 272.398438 101.207031 Z M 282.34375 129.53125 C 280.835938 127.125 279.859375 121.65625 279.859375 115.597656 C 279.859375 109.535156 280.835938 104.066406 282.34375 101.664062 L 272.398438 101.660156 C 273.90625 104.066406 274.882812 109.535156 274.882812 115.597656 C 274.882812 121.65625 273.90625 127.125 272.398438 129.527344 L 272.398438 129.53125 Z M 282.34375 129.53125 " fill-opacity="1" fill-rule="nonzero"/></g><g clip-path="url(#37718fc099)"><path fill="#25d366" d="M 76.121094 69.535156 L 76.121094 79.484375 C 76.121094 79.660156 76.320312 79.769531 76.472656 79.671875 C 78.765625 78.234375 84.085938 77.226562 90.285156 77.226562 C 96.480469 77.226562 101.800781 78.234375 104.09375 79.671875 C 104.246094 79.769531 104.445312 79.660156 104.445312 79.484375 L 104.445312 69.535156 C 104.445312 69.355469 104.246094 69.25 104.09375 69.34375 C 101.800781 70.785156 96.480469 71.792969 90.285156 71.792969 C 84.085938 71.792969 78.765625 70.785156 76.472656 69.34375 C 76.320312 69.25 76.121094 69.355469 76.121094 69.535156 Z M 76.121094 69.535156 " fill-opacity="1" fill-rule="nonzero"/></g><g clip-path="url(#5f2c032dcb)"><path fill="#25d366" d="M 104.671875 69.535156 L 104.671875 79.484375 C 104.671875 79.648438 104.582031 79.800781 104.4375 79.878906 C 104.292969 79.957031 104.117188 79.953125 103.976562 79.863281 C 101.636719 78.398438 96.265625 77.453125 90.285156 77.453125 C 84.304688 77.453125 78.929688 78.398438 76.589844 79.863281 C 76.449219 79.953125 76.273438 79.957031 76.128906 79.878906 C 75.984375 79.800781 75.894531 79.648438 75.894531 79.484375 L 75.894531 69.535156 C 75.894531 69.371094 75.984375 69.21875 76.128906 69.140625 C 76.273438 69.058594 76.449219 69.066406 76.589844 69.152344 C 78.929688 70.617188 84.304688 71.566406 90.285156 71.566406 C 96.261719 71.566406 101.636719 70.617188 103.976562 69.152344 C 104.117188 69.066406 104.292969 69.058594 104.4375 69.140625 C 104.582031 69.21875 104.671875 69.371094 104.671875 69.535156 Z M 76.347656 79.484375 C 78.753906 77.972656 84.222656 77 90.285156 77 C 96.34375 77 101.8125 77.972656 104.214844 79.480469 L 104.21875 69.535156 C 101.8125 71.046875 96.34375 72.019531 90.285156 72.019531 C 84.222656 72.019531 78.753906 71.046875 76.351562 69.535156 L 76.347656 69.535156 Z M 76.347656 79.484375 " fill-opacity="1" fill-rule="nonzero"/></g><g clip-path="url(#86cd31a7f6)"><g clip-path="url(#8e601f8a46)"><g clip-path="url(#91999a9ab7)"><path fill="#25d366" d="M 185.5 43.4375 L 178.710938 50.707031 C 178.589844 50.839844 178.660156 51.050781 178.835938 51.085938 C 181.496094 51.597656 186.074219 54.492188 190.605469 58.71875 C 195.136719 62.949219 198.335938 67.316406 199.03125 69.933594 C 199.078125 70.109375 199.292969 70.164062 199.417969 70.03125 L 206.203125 62.761719 C 206.328125 62.628906 206.253906 62.417969 206.078125 62.382812 C 203.417969 61.871094 198.84375 58.976562 194.3125 54.75 C 189.78125 50.519531 186.578125 46.152344 185.882812 43.535156 C 185.835938 43.363281 185.621094 43.304688 185.5 43.4375 Z M 185.5 43.4375 " fill-opacity="1" fill-rule="nonzero"/><path fill="#25d366" d="M 206.371094 62.914062 L 199.582031 70.1875 C 199.46875 70.308594 199.300781 70.359375 199.140625 70.316406 C 198.980469 70.277344 198.855469 70.152344 198.8125 69.992188 C 198.105469 67.324219 194.820312 62.964844 190.449219 58.886719 C 186.078125 54.804688 181.503906 51.832031 178.792969 51.308594 C 178.628906 51.277344 178.496094 51.160156 178.445312 51 C 178.394531 50.84375 178.433594 50.675781 178.546875 50.554688 L 185.332031 43.28125 C 185.445312 43.160156 185.613281 43.113281 185.773438 43.152344 C 185.933594 43.191406 186.058594 43.316406 186.101562 43.476562 C 186.8125 46.144531 190.09375 50.503906 194.464844 54.582031 C 198.835938 58.664062 203.414062 61.636719 206.121094 62.160156 C 206.285156 62.191406 206.417969 62.308594 206.46875 62.46875 C 206.519531 62.625 206.480469 62.796875 206.371094 62.914062 Z M 178.878906 50.863281 C 181.667969 51.402344 186.328125 54.421875 190.757812 58.554688 C 195.1875 62.6875 198.523438 67.132812 199.25 69.875 L 206.039062 62.605469 C 203.25 62.066406 198.585938 59.050781 194.15625 54.914062 C 189.726562 50.78125 186.394531 46.335938 185.664062 43.59375 L 185.664062 43.589844 Z M 178.878906 50.863281 " fill-opacity="1" fill-rule="nonzero"/></g></g></g></svg>