<svg xmlns="http://www.w3.org/2000/svg" xmlns:xlink="http://www.w3.org/1999/xlink" width="500" zoomAndPan="magnify" viewBox="0 0 375 374.999991" height="500" preserveAspectRatio="xMidYMid meet" version="1.2"><defs><clipPath id="52daa4df01"><path d="M 149 9 L 195 9 L 195 55 L 149 55 Z M 149 9 "/></clipPath><clipPath id="e8252995d8"><path d="M 172.722656 0.00390625 L 203.882812 32.285156 L 171.601562 63.449219 L 140.4375 31.164062 Z M 172.722656 0.00390625 "/></clipPath><clipPath id="70d3af5d69"><path d="M 188.304688 16.144531 C 179.699219 7.230469 165.496094 6.976562 156.578125 15.582031 C 147.664062 24.1875 147.414062 38.390625 156.019531 47.308594 C 164.625 56.222656 178.828125 56.472656 187.742188 47.867188 C 196.65625 39.261719 196.910156 25.058594 188.304688 16.144531 Z M 188.304688 16.144531 "/></clipPath><clipPath id="bb796f6149"><path d="M 199 58 L 245 58 L 245 104 L 199 104 Z M 199 58 "/></clipPath><clipPath id="5ef2a083df"><path d="M 222.617188 49.09375 L 253.78125 81.378906 L 221.496094 112.542969 L 190.332031 80.257812 Z M 222.617188 49.09375 "/></clipPath><clipPath id="bfcab25c70"><path d="M 238.199219 65.238281 C 229.59375 56.320312 215.390625 56.070312 206.476562 64.675781 C 197.5625 73.28125 197.308594 87.484375 205.914062 96.398438 C 214.519531 105.316406 228.722656 105.566406 237.636719 96.960938 C 246.554688 88.355469 246.804688 74.152344 238.199219 65.238281 Z M 238.199219 65.238281 "/></clipPath><clipPath id="52ba734438"><path d="M 37.5 51.378906 L 82.371094 51.378906 L 82.371094 96.25 L 37.5 96.25 Z M 37.5 51.378906 "/></clipPath><clipPath id="b978801ae0"><path d="M 59.933594 51.378906 C 47.542969 51.378906 37.5 61.425781 37.5 73.816406 C 37.5 86.207031 47.542969 96.25 59.933594 96.25 C 72.324219 96.25 82.371094 86.207031 82.371094 73.816406 C 82.371094 61.425781 72.324219 51.378906 59.933594 51.378906 Z M 59.933594 51.378906 "/></clipPath><clipPath id="099169f1c1"><path d="M 108.488281 51.378906 L 153.359375 51.378906 L 153.359375 96.25 L 108.488281 96.25 Z M 108.488281 51.378906 "/></clipPath><clipPath id="659a1e13a0"><path d="M 130.925781 51.378906 C 118.535156 51.378906 108.488281 61.425781 108.488281 73.816406 C 108.488281 86.207031 118.535156 96.25 130.925781 96.25 C 143.316406 96.25 153.359375 86.207031 153.359375 73.816406 C 153.359375 61.425781 143.316406 51.378906 130.925781 51.378906 Z M 130.925781 51.378906 "/></clipPath><clipPath id="01b17705da"><path d="M 93 269 L 139 269 L 139 315 L 93 315 Z M 93 269 "/></clipPath><clipPath id="f591005f68"><path d="M 116.347656 260.476562 L 147.507812 292.761719 L 115.226562 323.925781 L 84.0625 291.640625 Z M 116.347656 260.476562 "/></clipPath><clipPath id="cb29d9edae"><path d="M 131.929688 276.621094 C 123.324219 267.707031 109.121094 267.453125 100.203125 276.058594 C 91.289062 284.664062 91.039062 298.867188 99.644531 307.78125 C 108.25 316.699219 122.453125 316.949219 131.367188 308.34375 C 140.28125 299.738281 140.535156 285.535156 131.929688 276.621094 Z M 131.929688 276.621094 "/></clipPath><clipPath id="d6d24fbb79"><path d="M 142 320 L 188 320 L 188 366 L 142 366 Z M 142 320 "/></clipPath><clipPath id="e33ed50770"><path d="M 165.648438 311.554688 L 196.8125 343.839844 L 164.527344 375.003906 L 133.363281 342.71875 Z M 165.648438 311.554688 "/></clipPath><clipPath id="2738bb47f5"><path d="M 181.230469 327.699219 C 172.625 318.78125 158.421875 318.53125 149.507812 327.136719 C 140.59375 335.742188 140.339844 349.945312 148.945312 358.859375 C 157.550781 367.773438 171.753906 368.027344 180.667969 359.421875 C 189.585938 350.816406 189.835938 336.613281 181.230469 327.699219 Z M 181.230469 327.699219 "/></clipPath><clipPath id="dfdf38cbe9"><path d="M 258 56 L 304 56 L 304 102 L 258 102 Z M 258 56 "/></clipPath><clipPath id="9f5651719d"><path d="M 303.753906 57 L 302.960938 101.863281 L 258.097656 101.070312 L 258.890625 56.207031 Z M 303.753906 57 "/></clipPath><clipPath id="19487e7cac"><path d="M 303.359375 79.429688 C 303.578125 67.042969 293.710938 56.820312 281.324219 56.601562 C 268.933594 56.382812 258.714844 66.25 258.492188 78.636719 C 258.273438 91.027344 268.140625 101.246094 280.527344 101.464844 C 292.917969 101.6875 303.140625 91.820312 303.359375 79.429688 Z M 303.359375 79.429688 "/></clipPath><clipPath id="b21e570d05"><path d="M 257 127 L 303 127 L 303 173 L 257 173 Z M 257 127 "/></clipPath><clipPath id="3d5813043e"><path d="M 302.5 127.976562 L 301.707031 172.84375 L 256.84375 172.050781 L 257.636719 127.183594 Z M 302.5 127.976562 "/></clipPath><clipPath id="250af42606"><path d="M 302.101562 150.410156 C 302.320312 138.023438 292.457031 127.800781 280.066406 127.582031 C 267.679688 127.363281 257.457031 137.226562 257.238281 149.617188 C 257.019531 162.003906 266.886719 172.226562 279.273438 172.445312 C 291.664062 172.664062 301.882812 162.800781 302.101562 150.410156 Z M 302.101562 150.410156 "/></clipPath><clipPath id="7dc5b3a948"><path d="M 300 167 L 346 167 L 346 213 L 300 213 Z M 300 167 "/></clipPath><clipPath id="6053476996"><path d="M 354.953125 189.761719 L 323.597656 221.859375 L 291.5 190.503906 L 322.855469 158.40625 Z M 354.953125 189.761719 "/></clipPath><clipPath id="4ab11a2f90"><path d="M 339.273438 205.8125 C 347.933594 196.949219 347.765625 182.742188 338.902344 174.085938 C 330.039062 165.425781 315.835938 165.59375 307.175781 174.457031 C 298.519531 183.320312 298.683594 197.523438 307.546875 206.183594 C 316.410156 214.839844 330.613281 214.675781 339.273438 205.8125 Z M 339.273438 205.8125 "/></clipPath><clipPath id="3e2f766c05"><path d="M 251 218 L 297 218 L 297 264 L 251 264 Z M 251 218 "/></clipPath><clipPath id="4fbe9fa854"><path d="M 305.34375 240.542969 L 273.988281 272.640625 L 241.890625 241.285156 L 273.246094 209.1875 Z M 305.34375 240.542969 "/></clipPath><clipPath id="9ce05f2646"><path d="M 289.664062 256.589844 C 298.324219 247.726562 298.160156 233.523438 289.296875 224.867188 C 280.433594 216.207031 266.226562 216.371094 257.570312 225.234375 C 248.910156 234.097656 249.078125 248.304688 257.941406 256.960938 C 266.804688 265.621094 281.007812 265.453125 289.664062 256.589844 Z M 289.664062 256.589844 "/></clipPath><clipPath id="8a48262d69"><path d="M 183 276 L 229 276 L 229 322 L 183 322 Z M 183 276 "/></clipPath><clipPath id="06fd242894"><path d="M 183.601562 276.421875 L 228.464844 277.214844 L 227.671875 322.078125 L 182.808594 321.285156 Z M 183.601562 276.421875 "/></clipPath><clipPath id="7ee19fa39c"><path d="M 206.03125 276.816406 C 193.644531 276.597656 183.421875 286.464844 183.203125 298.851562 C 182.984375 311.242188 192.851562 321.460938 205.238281 321.679688 C 217.628906 321.898438 227.847656 312.035156 228.066406 299.644531 C 228.289062 287.257812 218.421875 277.035156 206.03125 276.816406 Z M 206.03125 276.816406 "/></clipPath><clipPath id="f50ad24978"><path d="M 254 278 L 300 278 L 300 323 L 254 323 Z M 254 278 "/></clipPath><clipPath id="cbe6f82359"><path d="M 254.578125 277.675781 L 299.445312 278.46875 L 298.652344 323.332031 L 253.785156 322.539062 Z M 254.578125 277.675781 "/></clipPath><clipPath id="5930236494"><path d="M 277.011719 278.070312 C 264.625 277.851562 254.402344 287.71875 254.183594 300.105469 C 253.964844 312.496094 263.828125 322.71875 276.21875 322.9375 C 288.605469 323.15625 298.828125 313.289062 299.046875 300.902344 C 299.265625 288.511719 289.402344 278.292969 277.011719 278.070312 Z M 277.011719 278.070312 "/></clipPath><clipPath id="053de1ce0b"><path d="M 79.035156 18.273438 L 112.140625 18.273438 L 112.140625 51.378906 L 79.035156 51.378906 Z M 79.035156 18.273438 "/></clipPath><clipPath id="ed28b1da62"><path d="M 95.589844 18.273438 C 86.445312 18.273438 79.035156 25.683594 79.035156 34.824219 C 79.035156 43.96875 86.445312 51.378906 95.589844 51.378906 C 104.730469 51.378906 112.140625 43.96875 112.140625 34.824219 C 112.140625 25.683594 104.730469 18.273438 95.589844 18.273438 Z M 95.589844 18.273438 "/></clipPath><clipPath id="1848ca4fed"><path d="M 208.019531 11.601562 L 241.125 11.601562 L 241.125 44.707031 L 208.019531 44.707031 Z M 208.019531 11.601562 "/></clipPath><clipPath id="965d35dbec"><path d="M 224.574219 11.601562 C 215.429688 11.601562 208.019531 19.011719 208.019531 28.152344 C 208.019531 37.296875 215.429688 44.707031 224.574219 44.707031 C 233.714844 44.707031 241.125 37.296875 241.125 28.152344 C 241.125 19.011719 233.714844 11.601562 224.574219 11.601562 Z M 224.574219 11.601562 "/></clipPath><clipPath id="9b5dcebaf0"><path d="M 302.511719 97.972656 L 335.617188 97.972656 L 335.617188 131.078125 L 302.511719 131.078125 Z M 302.511719 97.972656 "/></clipPath><clipPath id="234517f0ed"><path d="M 319.0625 97.972656 C 309.921875 97.972656 302.511719 105.382812 302.511719 114.523438 C 302.511719 123.667969 309.921875 131.078125 319.0625 131.078125 C 328.207031 131.078125 335.617188 123.667969 335.617188 114.523438 C 335.617188 105.382812 328.207031 97.972656 319.0625 97.972656 Z M 319.0625 97.972656 "/></clipPath><clipPath id="f154b03faf"><path d="M 310.117188 227.367188 L 343.226562 227.367188 L 343.226562 260.476562 L 310.117188 260.476562 Z M 310.117188 227.367188 "/></clipPath><clipPath id="68563654c1"><path d="M 326.671875 227.367188 C 317.53125 227.367188 310.117188 234.78125 310.117188 243.921875 C 310.117188 253.066406 317.53125 260.476562 326.671875 260.476562 C 335.8125 260.476562 343.226562 253.066406 343.226562 243.921875 C 343.226562 234.78125 335.8125 227.367188 326.671875 227.367188 Z M 326.671875 227.367188 "/></clipPath><clipPath id="b0be8d29af"><path d="M 223.746094 323.332031 L 256.855469 323.332031 L 256.855469 356.4375 L 223.746094 356.4375 Z M 223.746094 323.332031 "/></clipPath><clipPath id="cde86f1a98"><path d="M 240.300781 323.332031 C 231.15625 323.332031 223.746094 330.742188 223.746094 339.886719 C 223.746094 349.027344 231.15625 356.4375 240.300781 356.4375 C 249.441406 356.4375 256.855469 349.027344 256.855469 339.886719 C 256.855469 330.742188 249.441406 323.332031 240.300781 323.332031 Z M 240.300781 323.332031 "/></clipPath><clipPath id="8d7e0b9845"><path d="M 95.589844 327.132812 L 128.695312 327.132812 L 128.695312 360.242188 L 95.589844 360.242188 Z M 95.589844 327.132812 "/></clipPath><clipPath id="9414199d93"><path d="M 112.140625 327.132812 C 103 327.132812 95.589844 334.546875 95.589844 343.6875 C 95.589844 352.828125 103 360.242188 112.140625 360.242188 C 121.285156 360.242188 128.695312 352.828125 128.695312 343.6875 C 128.695312 334.546875 121.285156 327.132812 112.140625 327.132812 Z M 112.140625 327.132812 "/></clipPath><clipPath id="959341a911"><path d="M 125 305 L 153 305 L 153 332 L 125 332 Z M 125 305 "/></clipPath><clipPath id="9d77050aa1"><path d="M 125.484375 312.136719 L 132.90625 304.710938 L 153.0625 324.863281 L 145.636719 332.289062 Z M 125.484375 312.136719 "/></clipPath><clipPath id="ce48b6552a"><path d="M 125.484375 312.136719 L 132.90625 304.710938 L 153.0625 324.863281 L 145.636719 332.289062 Z M 125.484375 312.136719 "/></clipPath><clipPath id="f821a9779d"><path d="M 125 304 L 153 304 L 153 332 L 125 332 Z M 125 304 "/></clipPath><clipPath id="1c7374a54f"><path d="M 125.484375 312.136719 L 132.90625 304.710938 L 153.0625 324.863281 L 145.636719 332.289062 Z M 125.484375 312.136719 "/></clipPath><clipPath id="d7430b2030"><path d="M 125.484375 312.136719 L 132.90625 304.710938 L 153.0625 324.863281 L 145.636719 332.289062 Z M 125.484375 312.136719 "/></clipPath><clipPath id="f1b4f5368b"><path d="M 227 295.398438 L 255 295.398438 L 255 305.898438 L 227 305.898438 Z M 227 295.398438 "/></clipPath><clipPath id="dfc0ceeab4"><path d="M 226.8125 295.398438 L 255 295.398438 L 255 305.898438 L 226.8125 305.898438 Z M 226.8125 295.398438 "/></clipPath><clipPath id="820ceced70"><path d="M 286 203 L 313 203 L 313 230 L 286 230 Z M 286 203 "/></clipPath><clipPath id="256f8a08dc"><path d="M 293.136719 230.40625 L 285.710938 222.984375 L 305.863281 202.828125 L 313.289062 210.253906 Z M 293.136719 230.40625 "/></clipPath><clipPath id="8901db8a07"><path d="M 293.136719 230.40625 L 285.710938 222.984375 L 305.863281 202.828125 L 313.289062 210.253906 Z M 293.136719 230.40625 "/></clipPath><clipPath id="e336ea0200"><path d="M 285 203 L 313 203 L 313 231 L 285 231 Z M 285 203 "/></clipPath><clipPath id="08c0ec30d4"><path d="M 293.136719 230.40625 L 285.710938 222.984375 L 305.863281 202.828125 L 313.289062 210.253906 Z M 293.136719 230.40625 "/></clipPath><clipPath id="7ac501c16b"><path d="M 293.136719 230.40625 L 285.710938 222.984375 L 305.863281 202.828125 L 313.289062 210.253906 Z M 293.136719 230.40625 "/></clipPath><clipPath id="e3b1980fdd"><path d="M 276 101 L 286.328125 101 L 286.328125 128.832031 L 276 128.832031 Z M 276 101 "/></clipPath><clipPath id="9aa00b6e78"><path d="M 275.828125 101 L 286.328125 101 L 286.328125 128.832031 L 275.828125 128.832031 Z M 275.828125 101 "/></clipPath><clipPath id="674660a45d"><path d="M 81.273438 68.710938 L 109 68.710938 L 109 79 L 81.273438 79 Z M 81.273438 68.710938 "/></clipPath><clipPath id="1972ad107c"><path d="M 81.273438 68.710938 L 109.773438 68.710938 L 109.773438 79.210938 L 81.273438 79.210938 Z M 81.273438 68.710938 "/></clipPath><clipPath id="1696feda44"><path d="M 183 43 L 210 43 L 210 69 L 183 69 Z M 183 43 "/></clipPath><clipPath id="f0b2f39e1d"><path d="M 182.667969 50.386719 L 189.835938 42.710938 L 210.667969 62.15625 L 203.503906 69.832031 Z M 182.667969 50.386719 "/></clipPath><clipPath id="8a896827da"><path d="M 182.667969 50.386719 L 189.835938 42.710938 L 210.667969 62.15625 L 203.503906 69.832031 Z M 182.667969 50.386719 "/></clipPath><clipPath id="44d86072af"><path d="M 182 42 L 210 42 L 210 70 L 182 70 Z M 182 42 "/></clipPath><clipPath id="361ab5ac98"><path d="M 182.667969 50.386719 L 189.835938 42.710938 L 210.667969 62.15625 L 203.503906 69.832031 Z M 182.667969 50.386719 "/></clipPath><clipPath id="d22a0f3e50"><path d="M 182.667969 50.386719 L 189.835938 42.710938 L 210.667969 62.15625 L 203.503906 69.832031 Z M 182.667969 50.386719 "/></clipPath></defs><g id="2181f015fc"><g clip-rule="nonzero" clip-path="url(#52daa4df01)"><g clip-rule="nonzero" clip-path="url(#e8252995d8)"><g clip-rule="nonzero" clip-path="url(#70d3af5d69)"><path style=" stroke:none;fill-rule:nonzero;fill:#4682b4;fill-opacity:1;" d="M 172.722656 0.00390625 L 203.882812 32.285156 L 171.601562 63.449219 L 140.4375 31.164062 Z M 172.722656 0.00390625 "/></g></g></g><g clip-rule="nonzero" clip-path="url(#bb796f6149)"><g clip-rule="nonzero" clip-path="url(#5ef2a083df)"><g clip-rule="nonzero" clip-path="url(#bfcab25c70)"><path style=" stroke:none;fill-rule:nonzero;fill:#4682b4;fill-opacity:1;" d="M 222.617188 49.09375 L 253.78125 81.378906 L 221.496094 112.542969 L 190.332031 80.257812 Z M 222.617188 49.09375 "/></g></g></g><g clip-rule="nonzero" clip-path="url(#52ba734438)"><g clip-rule="nonzero" clip-path="url(#b978801ae0)"><path style=" stroke:none;fill-rule:nonzero;fill:#4682b4;fill-opacity:1;" d="M 37.5 51.378906 L 82.371094 51.378906 L 82.371094 96.25 L 37.5 96.25 Z M 37.5 51.378906 "/></g></g><g clip-rule="nonzero" clip-path="url(#099169f1c1)"><g clip-rule="nonzero" clip-path="url(#659a1e13a0)"><path style=" stroke:none;fill-rule:nonzero;fill:#4682b4;fill-opacity:1;" d="M 108.488281 51.378906 L 153.359375 51.378906 L 153.359375 96.25 L 108.488281 96.25 Z M 108.488281 51.378906 "/></g></g><g clip-rule="nonzero" clip-path="url(#01b17705da)"><g clip-rule="nonzero" clip-path="url(#f591005f68)"><g clip-rule="nonzero" clip-path="url(#cb29d9edae)"><path style=" stroke:none;fill-rule:nonzero;fill:#4682b4;fill-opacity:1;" d="M 116.347656 260.476562 L 147.507812 292.761719 L 115.226562 323.925781 L 84.0625 291.640625 Z M 116.347656 260.476562 "/></g></g></g><g clip-rule="nonzero" clip-path="url(#d6d24fbb79)"><g clip-rule="nonzero" clip-path="url(#e33ed50770)"><g clip-rule="nonzero" clip-path="url(#2738bb47f5)"><path style=" stroke:none;fill-rule:nonzero;fill:#4682b4;fill-opacity:1;" d="M 165.648438 311.554688 L 196.8125 343.839844 L 164.527344 375.003906 L 133.363281 342.71875 Z M 165.648438 311.554688 "/></g></g></g><g clip-rule="nonzero" clip-path="url(#dfdf38cbe9)"><g clip-rule="nonzero" clip-path="url(#9f5651719d)"><g clip-rule="nonzero" clip-path="url(#19487e7cac)"><path style=" stroke:none;fill-rule:nonzero;fill:#4682b4;fill-opacity:1;" d="M 303.753906 57 L 302.960938 101.863281 L 258.097656 101.070312 L 258.890625 56.207031 Z M 303.753906 57 "/></g></g></g><g clip-rule="nonzero" clip-path="url(#b21e570d05)"><g clip-rule="nonzero" clip-path="url(#3d5813043e)"><g clip-rule="nonzero" clip-path="url(#250af42606)"><path style=" stroke:none;fill-rule:nonzero;fill:#4682b4;fill-opacity:1;" d="M 302.5 127.976562 L 301.707031 172.84375 L 256.84375 172.050781 L 257.636719 127.183594 Z M 302.5 127.976562 "/></g></g></g><g clip-rule="nonzero" clip-path="url(#7dc5b3a948)"><g clip-rule="nonzero" clip-path="url(#6053476996)"><g clip-rule="nonzero" clip-path="url(#4ab11a2f90)"><path style=" stroke:none;fill-rule:nonzero;fill:#4682b4;fill-opacity:1;" d="M 354.953125 189.761719 L 323.597656 221.859375 L 291.5 190.503906 L 322.855469 158.40625 Z M 354.953125 189.761719 "/></g></g></g><g clip-rule="nonzero" clip-path="url(#3e2f766c05)"><g clip-rule="nonzero" clip-path="url(#4fbe9fa854)"><g clip-rule="nonzero" clip-path="url(#9ce05f2646)"><path style=" stroke:none;fill-rule:nonzero;fill:#4682b4;fill-opacity:1;" d="M 305.34375 240.542969 L 273.988281 272.640625 L 241.890625 241.285156 L 273.246094 209.1875 Z M 305.34375 240.542969 "/></g></g></g><g clip-rule="nonzero" clip-path="url(#8a48262d69)"><g clip-rule="nonzero" clip-path="url(#06fd242894)"><g clip-rule="nonzero" clip-path="url(#7ee19fa39c)"><path style=" stroke:none;fill-rule:nonzero;fill:#4682b4;fill-opacity:1;" d="M 183.601562 276.421875 L 228.464844 277.214844 L 227.671875 322.078125 L 182.808594 321.285156 Z M 183.601562 276.421875 "/></g></g></g><g clip-rule="nonzero" clip-path="url(#f50ad24978)"><g clip-rule="nonzero" clip-path="url(#cbe6f82359)"><g clip-rule="nonzero" clip-path="url(#5930236494)"><path style=" stroke:none;fill-rule:nonzero;fill:#4682b4;fill-opacity:1;" d="M 254.578125 277.675781 L 299.445312 278.46875 L 298.652344 323.332031 L 253.785156 322.539062 Z M 254.578125 277.675781 "/></g></g></g><g clip-rule="nonzero" clip-path="url(#053de1ce0b)"><g clip-rule="nonzero" clip-path="url(#ed28b1da62)"><path style=" stroke:none;fill-rule:nonzero;fill:#4682b4;fill-opacity:1;" d="M 79.035156 18.273438 L 112.140625 18.273438 L 112.140625 51.378906 L 79.035156 51.378906 Z M 79.035156 18.273438 "/></g></g><g clip-rule="nonzero" clip-path="url(#1848ca4fed)"><g clip-rule="nonzero" clip-path="url(#965d35dbec)"><path style=" stroke:none;fill-rule:nonzero;fill:#4682b4;fill-opacity:1;" d="M 208.019531 11.601562 L 241.125 11.601562 L 241.125 44.707031 L 208.019531 44.707031 Z M 208.019531 11.601562 "/></g></g><g clip-rule="nonzero" clip-path="url(#9b5dcebaf0)"><g clip-rule="nonzero" clip-path="url(#234517f0ed)"><path style=" stroke:none;fill-rule:nonzero;fill:#4682b4;fill-opacity:1;" d="M 302.511719 97.972656 L 335.617188 97.972656 L 335.617188 131.078125 L 302.511719 131.078125 Z M 302.511719 97.972656 "/></g></g><g clip-rule="nonzero" clip-path="url(#f154b03faf)"><g clip-rule="nonzero" clip-path="url(#68563654c1)"><path style=" stroke:none;fill-rule:nonzero;fill:#4682b4;fill-opacity:1;" d="M 310.117188 227.367188 L 343.226562 227.367188 L 343.226562 260.476562 L 310.117188 260.476562 Z M 310.117188 227.367188 "/></g></g><g clip-rule="nonzero" clip-path="url(#b0be8d29af)"><g clip-rule="nonzero" clip-path="url(#cde86f1a98)"><path style=" stroke:none;fill-rule:nonzero;fill:#4682b4;fill-opacity:1;" d="M 223.746094 323.332031 L 256.855469 323.332031 L 256.855469 356.4375 L 223.746094 356.4375 Z M 223.746094 323.332031 "/></g></g><g clip-rule="nonzero" clip-path="url(#8d7e0b9845)"><g clip-rule="nonzero" clip-path="url(#9414199d93)"><path style=" stroke:none;fill-rule:nonzero;fill:#4682b4;fill-opacity:1;" d="M 95.589844 327.132812 L 128.695312 327.132812 L 128.695312 360.242188 L 95.589844 360.242188 Z M 95.589844 327.132812 "/></g></g><g clip-rule="nonzero" clip-path="url(#959341a911)"><g clip-rule="nonzero" clip-path="url(#9d77050aa1)"><g clip-rule="nonzero" clip-path="url(#ce48b6552a)"><path style=" stroke:none;fill-rule:nonzero;fill:#4682b4;fill-opacity:1;" d="M 132.777344 305.234375 L 126 312.007812 C 125.878906 312.132812 125.941406 312.339844 126.109375 312.375 C 128.652344 312.960938 132.964844 315.898438 137.1875 320.117188 C 141.40625 324.339844 144.34375 328.652344 144.929688 331.195312 C 144.964844 331.363281 145.171875 331.425781 145.296875 331.304688 L 152.070312 324.527344 C 152.195312 324.40625 152.132812 324.199219 151.964844 324.160156 C 149.421875 323.578125 145.109375 320.640625 140.886719 316.417969 C 136.664062 312.195312 133.726562 307.882812 133.144531 305.339844 C 133.105469 305.171875 132.898438 305.109375 132.777344 305.234375 Z M 132.777344 305.234375 "/></g></g></g><g clip-rule="nonzero" clip-path="url(#f821a9779d)"><g clip-rule="nonzero" clip-path="url(#1c7374a54f)"><g clip-rule="nonzero" clip-path="url(#d7430b2030)"><path style=" stroke:none;fill-rule:nonzero;fill:#4682b4;fill-opacity:1;" d="M 152.226562 324.683594 L 145.449219 331.457031 C 145.335938 331.570312 145.171875 331.613281 145.019531 331.570312 C 144.867188 331.523438 144.75 331.402344 144.714844 331.246094 C 144.121094 328.652344 141.105469 324.347656 137.03125 320.273438 C 132.957031 316.199219 128.652344 313.183594 126.058594 312.589844 C 125.902344 312.554688 125.78125 312.4375 125.734375 312.28125 C 125.691406 312.132812 125.734375 311.96875 125.847656 311.855469 L 132.621094 305.078125 C 132.734375 304.964844 132.898438 304.921875 133.050781 304.96875 C 133.203125 305.011719 133.320312 305.136719 133.359375 305.292969 C 133.949219 307.882812 136.96875 312.1875 141.042969 316.261719 C 145.117188 320.335938 149.421875 323.355469 152.011719 323.945312 C 152.167969 323.984375 152.292969 324.101562 152.335938 324.253906 C 152.382812 324.40625 152.339844 324.570312 152.226562 324.683594 Z M 126.15625 312.164062 C 128.824219 312.773438 133.210938 315.835938 137.339844 319.964844 C 141.46875 324.09375 144.53125 328.480469 145.140625 331.148438 L 151.917969 324.371094 C 149.25 323.761719 144.859375 320.699219 140.734375 316.570312 C 136.605469 312.445312 133.542969 308.054688 132.933594 305.390625 L 132.929688 305.386719 Z M 126.15625 312.164062 "/></g></g></g><g clip-rule="nonzero" clip-path="url(#f1b4f5368b)"><path style=" stroke:none;fill-rule:nonzero;fill:#4682b4;fill-opacity:1;" d="M 227.089844 295.859375 L 227.089844 305.445312 C 227.089844 305.617188 227.277344 305.71875 227.425781 305.628906 C 229.636719 304.242188 234.761719 303.269531 240.730469 303.269531 C 246.703125 303.269531 251.828125 304.242188 254.039062 305.628906 C 254.1875 305.71875 254.375 305.617188 254.375 305.445312 L 254.375 295.859375 C 254.375 295.6875 254.183594 295.585938 254.039062 295.675781 C 251.828125 297.0625 246.703125 298.035156 240.730469 298.035156 C 234.761719 298.035156 229.636719 297.0625 227.425781 295.675781 C 227.277344 295.585938 227.089844 295.6875 227.089844 295.859375 Z M 227.089844 295.859375 "/></g><g clip-rule="nonzero" clip-path="url(#dfc0ceeab4)"><path style=" stroke:none;fill-rule:nonzero;fill:#4682b4;fill-opacity:1;" d="M 254.59375 295.859375 L 254.59375 305.445312 C 254.59375 305.601562 254.507812 305.75 254.367188 305.824219 C 254.230469 305.902344 254.058594 305.898438 253.921875 305.8125 C 251.671875 304.402344 246.492188 303.488281 240.730469 303.488281 C 234.96875 303.488281 229.792969 304.402344 227.539062 305.8125 C 227.40625 305.898438 227.234375 305.902344 227.09375 305.824219 C 226.957031 305.75 226.871094 305.601562 226.871094 305.445312 L 226.871094 295.859375 C 226.871094 295.703125 226.957031 295.554688 227.09375 295.480469 C 227.234375 295.402344 227.40625 295.40625 227.539062 295.492188 C 229.792969 296.90625 234.96875 297.816406 240.730469 297.816406 C 246.492188 297.816406 251.671875 296.90625 253.921875 295.492188 C 254.058594 295.40625 254.230469 295.402344 254.367188 295.480469 C 254.507812 295.554688 254.59375 295.703125 254.59375 295.859375 Z M 227.308594 305.445312 C 229.625 303.988281 234.894531 303.050781 240.730469 303.050781 C 246.570312 303.050781 251.839844 303.992188 254.15625 305.441406 L 254.15625 295.859375 C 251.839844 297.316406 246.570312 298.253906 240.730469 298.253906 C 234.894531 298.253906 229.625 297.316406 227.308594 295.863281 L 227.308594 295.859375 Z M 227.308594 305.445312 "/></g><g clip-rule="nonzero" clip-path="url(#820ceced70)"><g clip-rule="nonzero" clip-path="url(#256f8a08dc)"><g clip-rule="nonzero" clip-path="url(#8901db8a07)"><path style=" stroke:none;fill-rule:nonzero;fill:#4682b4;fill-opacity:1;" d="M 286.234375 223.113281 L 293.011719 229.890625 C 293.132812 230.011719 293.339844 229.949219 293.378906 229.78125 C 293.960938 227.238281 296.898438 222.925781 301.121094 218.703125 C 305.34375 214.484375 309.652344 211.546875 312.199219 210.960938 C 312.367188 210.925781 312.425781 210.71875 312.304688 210.59375 L 305.527344 203.820312 C 305.40625 203.695312 305.199219 203.757812 305.160156 203.925781 C 304.578125 206.46875 301.640625 210.78125 297.417969 215.003906 C 293.195312 219.226562 288.886719 222.164062 286.34375 222.746094 C 286.171875 222.785156 286.113281 222.992188 286.234375 223.113281 Z M 286.234375 223.113281 "/></g></g></g><g clip-rule="nonzero" clip-path="url(#e336ea0200)"><g clip-rule="nonzero" clip-path="url(#08c0ec30d4)"><g clip-rule="nonzero" clip-path="url(#7ac501c16b)"><path style=" stroke:none;fill-rule:nonzero;fill:#4682b4;fill-opacity:1;" d="M 305.683594 203.664062 L 312.460938 210.441406 C 312.570312 210.554688 312.613281 210.71875 312.570312 210.871094 C 312.527344 211.023438 312.402344 211.140625 312.246094 211.175781 C 309.65625 211.769531 305.347656 214.785156 301.273438 218.859375 C 297.199219 222.933594 294.183594 227.238281 293.589844 229.832031 C 293.554688 229.988281 293.4375 230.109375 293.285156 230.15625 C 293.132812 230.199219 292.96875 230.15625 292.855469 230.042969 L 286.078125 223.269531 C 285.96875 223.15625 285.925781 222.992188 285.96875 222.839844 C 286.011719 222.6875 286.136719 222.570312 286.292969 222.535156 C 288.882812 221.941406 293.191406 218.921875 297.265625 214.847656 C 301.339844 210.773438 304.355469 206.46875 304.949219 203.878906 C 304.984375 203.722656 305.101562 203.597656 305.253906 203.554688 C 305.40625 203.507812 305.570312 203.550781 305.683594 203.664062 Z M 293.164062 229.734375 C 293.777344 227.066406 296.839844 222.679688 300.964844 218.550781 C 305.09375 214.421875 309.484375 211.359375 312.148438 210.75 L 305.375 203.972656 C 304.765625 206.640625 301.703125 211.03125 297.574219 215.160156 C 293.445312 219.285156 289.054688 222.347656 286.390625 222.957031 L 286.386719 222.960938 Z M 293.164062 229.734375 "/></g></g></g><g clip-rule="nonzero" clip-path="url(#e3b1980fdd)"><path style=" stroke:none;fill-rule:nonzero;fill:#4682b4;fill-opacity:1;" d="M 276.289062 128.554688 L 285.875 128.554688 C 286.046875 128.554688 286.148438 128.363281 286.058594 128.21875 C 284.671875 126.007812 283.699219 120.882812 283.699219 114.910156 C 283.699219 108.941406 284.671875 103.816406 286.058594 101.605469 C 286.148438 101.457031 286.046875 101.269531 285.875 101.269531 L 276.289062 101.269531 C 276.117188 101.269531 276.015625 101.457031 276.105469 101.605469 C 277.492188 103.816406 278.464844 108.941406 278.464844 114.910156 C 278.464844 120.882812 277.492188 126.007812 276.105469 128.21875 C 276.015625 128.363281 276.117188 128.554688 276.289062 128.554688 Z M 276.289062 128.554688 "/></g><g clip-rule="nonzero" clip-path="url(#9aa00b6e78)"><path style=" stroke:none;fill-rule:nonzero;fill:#4682b4;fill-opacity:1;" d="M 276.289062 101.050781 L 285.875 101.050781 C 286.03125 101.050781 286.179688 101.136719 286.253906 101.273438 C 286.332031 101.414062 286.328125 101.585938 286.242188 101.71875 C 284.828125 103.972656 283.917969 109.148438 283.917969 114.910156 C 283.917969 120.671875 284.828125 125.851562 286.242188 128.101562 C 286.328125 128.238281 286.332031 128.410156 286.253906 128.546875 C 286.179688 128.6875 286.03125 128.773438 285.875 128.773438 L 276.289062 128.773438 C 276.132812 128.773438 275.984375 128.6875 275.910156 128.546875 C 275.832031 128.410156 275.835938 128.238281 275.921875 128.101562 C 277.335938 125.851562 278.246094 120.671875 278.246094 114.910156 C 278.246094 109.148438 277.335938 103.972656 275.921875 101.71875 C 275.835938 101.585938 275.832031 101.414062 275.910156 101.273438 C 275.984375 101.136719 276.132812 101.050781 276.289062 101.050781 Z M 285.875 128.335938 C 284.417969 126.019531 283.480469 120.75 283.480469 114.910156 C 283.480469 109.074219 284.417969 103.804688 285.871094 101.488281 L 276.289062 101.484375 C 277.746094 103.804688 278.683594 109.074219 278.683594 114.910156 C 278.683594 120.75 277.746094 126.019531 276.292969 128.335938 L 276.289062 128.335938 Z M 285.875 128.335938 "/></g><g clip-rule="nonzero" clip-path="url(#674660a45d)"><path style=" stroke:none;fill-rule:nonzero;fill:#4682b4;fill-opacity:1;" d="M 81.550781 69.171875 L 81.550781 78.753906 C 81.550781 78.929688 81.742188 79.03125 81.886719 78.9375 C 84.097656 77.550781 89.222656 76.582031 95.195312 76.582031 C 101.164062 76.582031 106.292969 77.550781 108.5 78.9375 C 108.648438 79.03125 108.835938 78.929688 108.835938 78.753906 L 108.835938 69.171875 C 108.835938 69 108.648438 68.898438 108.5 68.988281 C 106.292969 70.375 101.164062 71.347656 95.195312 71.347656 C 89.222656 71.347656 84.097656 70.375 81.886719 68.988281 C 81.742188 68.898438 81.550781 69 81.550781 69.171875 Z M 81.550781 69.171875 "/></g><g clip-rule="nonzero" clip-path="url(#1972ad107c)"><path style=" stroke:none;fill-rule:nonzero;fill:#4682b4;fill-opacity:1;" d="M 109.054688 69.171875 L 109.054688 78.753906 C 109.054688 78.914062 108.96875 79.058594 108.832031 79.136719 C 108.691406 79.214844 108.519531 79.207031 108.386719 79.125 C 106.132812 77.710938 100.957031 76.800781 95.195312 76.800781 C 89.433594 76.800781 84.253906 77.710938 82.003906 79.125 C 81.867188 79.207031 81.695312 79.214844 81.558594 79.136719 C 81.417969 79.058594 81.332031 78.914062 81.332031 78.753906 L 81.332031 69.171875 C 81.332031 69.011719 81.417969 68.867188 81.558594 68.789062 C 81.695312 68.714844 81.867188 68.71875 82.003906 68.804688 C 84.253906 70.214844 89.433594 71.128906 95.195312 71.128906 C 100.957031 71.128906 106.132812 70.214844 108.386719 68.804688 C 108.519531 68.71875 108.691406 68.714844 108.832031 68.789062 C 108.96875 68.867188 109.054688 69.011719 109.054688 69.171875 Z M 81.769531 78.753906 C 84.085938 77.300781 89.355469 76.363281 95.195312 76.363281 C 101.03125 76.363281 106.300781 77.300781 108.617188 78.753906 L 108.621094 69.171875 C 106.300781 70.625 101.03125 71.566406 95.195312 71.566406 C 89.355469 71.566406 84.085938 70.625 81.769531 69.171875 Z M 81.769531 78.753906 "/></g><g clip-rule="nonzero" clip-path="url(#1696feda44)"><g clip-rule="nonzero" clip-path="url(#f0b2f39e1d)"><g clip-rule="nonzero" clip-path="url(#8a896827da)"><path style=" stroke:none;fill-rule:nonzero;fill:#4682b4;fill-opacity:1;" d="M 189.722656 43.238281 L 183.183594 50.242188 C 183.066406 50.371094 183.132812 50.574219 183.304688 50.605469 C 185.863281 51.101562 190.273438 53.886719 194.640625 57.960938 C 199.003906 62.035156 202.089844 66.246094 202.757812 68.765625 C 202.804688 68.933594 203.011719 68.988281 203.128906 68.863281 L 209.667969 61.855469 C 209.789062 61.730469 209.71875 61.523438 209.550781 61.492188 C 206.988281 60.996094 202.578125 58.210938 198.210938 54.136719 C 193.847656 50.0625 190.761719 45.855469 190.09375 43.332031 C 190.046875 43.164062 189.839844 43.109375 189.722656 43.238281 Z M 189.722656 43.238281 "/></g></g></g><g clip-rule="nonzero" clip-path="url(#44d86072af)"><g clip-rule="nonzero" clip-path="url(#361ab5ac98)"><g clip-rule="nonzero" clip-path="url(#d22a0f3e50)"><path style=" stroke:none;fill-rule:nonzero;fill:#4682b4;fill-opacity:1;" d="M 209.828125 62.003906 L 203.289062 69.011719 C 203.183594 69.125 203.019531 69.175781 202.867188 69.136719 C 202.710938 69.097656 202.589844 68.976562 202.546875 68.824219 C 201.867188 66.253906 198.703125 62.054688 194.492188 58.121094 C 190.277344 54.191406 185.871094 51.324219 183.261719 50.820312 C 183.105469 50.789062 182.976562 50.679688 182.925781 50.527344 C 182.878906 50.375 182.914062 50.210938 183.023438 50.09375 L 189.5625 43.089844 C 189.667969 42.972656 189.832031 42.925781 189.984375 42.964844 C 190.140625 43 190.261719 43.121094 190.304688 43.277344 C 190.984375 45.84375 194.148438 50.046875 198.359375 53.976562 C 202.574219 57.90625 206.980469 60.773438 209.589844 61.277344 C 209.746094 61.308594 209.875 61.421875 209.925781 61.574219 C 209.972656 61.722656 209.9375 61.890625 209.828125 62.003906 Z M 183.34375 50.390625 C 186.027344 50.910156 190.519531 53.820312 194.789062 57.804688 C 199.058594 61.785156 202.269531 66.066406 202.96875 68.710938 L 209.511719 61.707031 C 206.824219 61.1875 202.332031 58.277344 198.0625 54.296875 C 193.792969 50.3125 190.582031 46.03125 189.882812 43.386719 L 189.878906 43.386719 Z M 183.34375 50.390625 "/></g></g></g></g></svg>