<svg xmlns="http://www.w3.org/2000/svg" xmlns:xlink="http://www.w3.org/1999/xlink" width="576" zoomAndPan="magnify" viewBox="0 0 432 287.999989" height="384" preserveAspectRatio="xMidYMid meet" version="1.2"><defs><clipPath id="62158e04a7"><path d="M 312 46 L 339 46 L 339 73 L 312 73 Z M 312 46 "/></clipPath><clipPath id="02c0441eda"><path d="M 325.992188 41.070312 L 344.121094 59.847656 L 325.339844 77.976562 L 307.214844 59.195312 Z M 325.992188 41.070312 "/></clipPath><clipPath id="36daa800c3"><path d="M 335.058594 50.460938 C 330.050781 45.273438 321.789062 45.128906 316.605469 50.132812 C 311.417969 55.140625 311.273438 63.402344 316.277344 68.585938 C 321.285156 73.773438 329.546875 73.917969 334.730469 68.914062 C 339.917969 63.90625 340.0625 55.644531 335.058594 50.460938 Z M 335.058594 50.460938 "/></clipPath><clipPath id="fcac7aca4d"><path d="M 341 75 L 368 75 L 368 102 L 341 102 Z M 341 75 "/></clipPath><clipPath id="7d3043b29d"><path d="M 355.019531 69.625 L 373.144531 88.40625 L 354.367188 106.53125 L 336.238281 87.753906 Z M 355.019531 69.625 "/></clipPath><clipPath id="b62e0ecf9c"><path d="M 364.082031 79.015625 C 359.074219 73.828125 350.8125 73.683594 345.628906 78.6875 C 340.441406 83.695312 340.296875 91.957031 345.300781 97.140625 C 350.308594 102.328125 358.570312 102.472656 363.753906 97.46875 C 368.941406 92.464844 369.085938 84.203125 364.082031 79.015625 Z M 364.082031 79.015625 "/></clipPath><clipPath id="ca66f05fcc"><path d="M 247.335938 70.957031 L 273.4375 70.957031 L 273.4375 97.054688 L 247.335938 97.054688 Z M 247.335938 70.957031 "/></clipPath><clipPath id="4520bb9940"><path d="M 260.386719 70.957031 C 253.179688 70.957031 247.335938 76.796875 247.335938 84.007812 C 247.335938 91.214844 253.179688 97.054688 260.386719 97.054688 C 267.59375 97.054688 273.4375 91.214844 273.4375 84.007812 C 273.4375 76.796875 267.59375 70.957031 260.386719 70.957031 Z M 260.386719 70.957031 "/></clipPath><clipPath id="6370f182cb"><path d="M 288.628906 70.957031 L 314.730469 70.957031 L 314.730469 97.054688 L 288.628906 97.054688 Z M 288.628906 70.957031 "/></clipPath><clipPath id="5f9fb73e29"><path d="M 301.679688 70.957031 C 294.472656 70.957031 288.628906 76.796875 288.628906 84.007812 C 288.628906 91.214844 294.472656 97.054688 301.679688 97.054688 C 308.886719 97.054688 314.730469 91.214844 314.730469 84.007812 C 314.730469 76.796875 308.886719 70.957031 301.679688 70.957031 Z M 301.679688 70.957031 "/></clipPath><clipPath id="648db81665"><path d="M 279 197 L 306 197 L 306 225 L 279 225 Z M 279 197 "/></clipPath><clipPath id="3cd17a480a"><path d="M 293.203125 192.582031 L 311.328125 211.363281 L 292.550781 229.488281 L 274.421875 210.710938 Z M 293.203125 192.582031 "/></clipPath><clipPath id="55b379f4bb"><path d="M 302.265625 201.972656 C 297.261719 196.789062 289 196.640625 283.8125 201.648438 C 278.625 206.652344 278.480469 214.914062 283.484375 220.101562 C 288.492188 225.285156 296.753906 225.433594 301.9375 220.425781 C 307.125 215.421875 307.269531 207.160156 302.265625 201.972656 Z M 302.265625 201.972656 "/></clipPath><clipPath id="36d36b9066"><path d="M 308 227 L 335 227 L 335 254 L 308 254 Z M 308 227 "/></clipPath><clipPath id="3d17d2bbae"><path d="M 321.878906 222.292969 L 340.007812 241.074219 L 321.226562 259.199219 L 303.101562 240.421875 Z M 321.878906 222.292969 "/></clipPath><clipPath id="ea6865d56a"><path d="M 330.945312 231.683594 C 325.9375 226.5 317.675781 226.351562 312.492188 231.359375 C 307.304688 236.363281 307.160156 244.625 312.164062 249.8125 C 317.167969 254.996094 325.429688 255.144531 330.617188 250.136719 C 335.804688 245.132812 335.949219 236.871094 330.945312 231.683594 Z M 330.945312 231.683594 "/></clipPath><clipPath id="672645de1d"><path d="M 375 73 L 402 73 L 402 101 L 375 101 Z M 375 73 "/></clipPath><clipPath id="a9083e909d"><path d="M 402.214844 74.226562 L 401.753906 100.320312 L 375.65625 99.859375 L 376.117188 73.761719 Z M 402.214844 74.226562 "/></clipPath><clipPath id="398a47edb6"><path d="M 401.984375 87.273438 C 402.113281 80.066406 396.375 74.121094 389.167969 73.996094 C 381.960938 73.867188 376.015625 79.605469 375.886719 86.8125 C 375.761719 94.019531 381.5 99.964844 388.707031 100.089844 C 395.910156 100.21875 401.855469 94.480469 401.984375 87.273438 Z M 401.984375 87.273438 "/></clipPath><clipPath id="e15fa21e17"><path d="M 375 115 L 402 115 L 402 142 L 375 142 Z M 375 115 "/></clipPath><clipPath id="c74cd1cc45"><path d="M 401.484375 115.511719 L 401.023438 141.609375 L 374.925781 141.148438 L 375.390625 115.050781 Z M 401.484375 115.511719 "/></clipPath><clipPath id="fedd2bfb2b"><path d="M 401.253906 128.558594 C 401.382812 121.355469 395.644531 115.410156 388.4375 115.28125 C 381.230469 115.152344 375.285156 120.890625 375.15625 128.097656 C 375.03125 135.304688 380.769531 141.25 387.976562 141.378906 C 395.183594 141.503906 401.128906 135.765625 401.253906 128.558594 Z M 401.253906 128.558594 "/></clipPath><clipPath id="448d386ce2"><path d="M 400 138 L 427 138 L 427 165 L 400 165 Z M 400 138 "/></clipPath><clipPath id="1f089b45f6"><path d="M 431.996094 151.453125 L 413.757812 170.121094 L 395.085938 151.882812 L 413.328125 133.214844 Z M 431.996094 151.453125 "/></clipPath><clipPath id="e4cfca0ded"><path d="M 422.878906 160.789062 C 427.914062 155.632812 427.816406 147.371094 422.660156 142.332031 C 417.503906 137.296875 409.242188 137.394531 404.207031 142.546875 C 399.171875 147.703125 399.265625 155.96875 404.421875 161.003906 C 409.578125 166.039062 417.839844 165.945312 422.878906 160.789062 Z M 422.878906 160.789062 "/></clipPath><clipPath id="4a52faaf35"><path d="M 371 168 L 398 168 L 398 195 L 371 195 Z M 371 168 "/></clipPath><clipPath id="327b07675f"><path d="M 403.140625 180.992188 L 384.902344 199.660156 L 366.230469 181.421875 L 384.46875 162.75 Z M 403.140625 180.992188 "/></clipPath><clipPath id="c688d3b368"><path d="M 394.019531 190.324219 C 399.058594 185.171875 398.960938 176.90625 393.804688 171.871094 C 388.648438 166.835938 380.386719 166.929688 375.351562 172.085938 C 370.3125 177.242188 370.410156 185.503906 375.566406 190.542969 C 380.722656 195.578125 388.984375 195.480469 394.019531 190.324219 Z M 394.019531 190.324219 "/></clipPath><clipPath id="40d74bb9d8"><path d="M 332 202 L 359 202 L 359 229 L 332 229 Z M 332 202 "/></clipPath><clipPath id="5bfbcc3da5"><path d="M 332.320312 201.859375 L 358.417969 202.320312 L 357.957031 228.414062 L 331.859375 227.953125 Z M 332.320312 201.859375 "/></clipPath><clipPath id="a24395a490"><path d="M 345.367188 202.089844 C 338.164062 201.960938 332.21875 207.699219 332.089844 214.90625 C 331.960938 222.113281 337.699219 228.058594 344.90625 228.183594 C 352.113281 228.3125 358.058594 222.574219 358.1875 215.367188 C 358.3125 208.160156 352.574219 202.214844 345.367188 202.089844 Z M 345.367188 202.089844 "/></clipPath><clipPath id="d8e3da3d18"><path d="M 373 202 L 400 202 L 400 229 L 373 229 Z M 373 202 "/></clipPath><clipPath id="a60c32546a"><path d="M 373.609375 202.589844 L 399.703125 203.050781 L 399.242188 229.144531 L 373.144531 228.683594 Z M 373.609375 202.589844 "/></clipPath><clipPath id="b40056aac6"><path d="M 386.65625 202.820312 C 379.449219 202.691406 373.503906 208.429688 373.375 215.636719 C 373.25 222.84375 378.988281 228.789062 386.195312 228.914062 C 393.402344 229.042969 399.347656 223.304688 399.472656 216.097656 C 399.601562 208.890625 393.863281 202.945312 386.65625 202.820312 Z M 386.65625 202.820312 "/></clipPath><clipPath id="c559b9dccd"><path d="M 271.496094 51.699219 L 290.753906 51.699219 L 290.753906 70.957031 L 271.496094 70.957031 Z M 271.496094 51.699219 "/></clipPath><clipPath id="d9db4c9306"><path d="M 281.125 51.699219 C 275.808594 51.699219 271.496094 56.007812 271.496094 61.328125 C 271.496094 66.644531 275.808594 70.957031 281.125 70.957031 C 286.441406 70.957031 290.753906 66.644531 290.753906 61.328125 C 290.753906 56.007812 286.441406 51.699219 281.125 51.699219 Z M 281.125 51.699219 "/></clipPath><clipPath id="87ab910587"><path d="M 346.523438 47.816406 L 365.78125 47.816406 L 365.78125 67.074219 L 346.523438 67.074219 Z M 346.523438 47.816406 "/></clipPath><clipPath id="9ad9e1d9e4"><path d="M 356.152344 47.816406 C 350.835938 47.816406 346.523438 52.128906 346.523438 57.445312 C 346.523438 62.765625 350.835938 67.074219 356.152344 67.074219 C 361.46875 67.074219 365.78125 62.765625 365.78125 57.445312 C 365.78125 52.128906 361.46875 47.816406 356.152344 47.816406 Z M 356.152344 47.816406 "/></clipPath><clipPath id="af6ab4d297"><path d="M 401.488281 98.058594 L 420.746094 98.058594 L 420.746094 117.316406 L 401.488281 117.316406 Z M 401.488281 98.058594 "/></clipPath><clipPath id="756086ffa8"><path d="M 411.117188 98.058594 C 405.800781 98.058594 401.488281 102.367188 401.488281 107.6875 C 401.488281 113.003906 405.800781 117.316406 411.117188 117.316406 C 416.433594 117.316406 420.746094 113.003906 420.746094 107.6875 C 420.746094 102.367188 416.433594 98.058594 411.117188 98.058594 Z M 411.117188 98.058594 "/></clipPath><clipPath id="f400ead91b"><path d="M 405.914062 173.324219 L 425.171875 173.324219 L 425.171875 192.582031 L 405.914062 192.582031 Z M 405.914062 173.324219 "/></clipPath><clipPath id="3936ddacf2"><path d="M 415.542969 173.324219 C 410.222656 173.324219 405.914062 177.636719 405.914062 182.953125 C 405.914062 188.273438 410.222656 192.582031 415.542969 192.582031 C 420.859375 192.582031 425.171875 188.273438 425.171875 182.953125 C 425.171875 177.636719 420.859375 173.324219 415.542969 173.324219 Z M 415.542969 173.324219 "/></clipPath><clipPath id="cdab0aa737"><path d="M 355.671875 229.144531 L 374.929688 229.144531 L 374.929688 248.402344 L 355.671875 248.402344 Z M 355.671875 229.144531 "/></clipPath><clipPath id="6234bdb5df"><path d="M 365.300781 229.144531 C 359.984375 229.144531 355.671875 233.457031 355.671875 238.773438 C 355.671875 244.09375 359.984375 248.402344 365.300781 248.402344 C 370.621094 248.402344 374.929688 244.09375 374.929688 238.773438 C 374.929688 233.457031 370.621094 229.144531 365.300781 229.144531 Z M 365.300781 229.144531 "/></clipPath><clipPath id="3ef84e2285"><path d="M 281.125 231.355469 L 300.382812 231.355469 L 300.382812 250.613281 L 281.125 250.613281 Z M 281.125 231.355469 "/></clipPath><clipPath id="bc15c76b99"><path d="M 290.753906 231.355469 C 285.4375 231.355469 281.125 235.667969 281.125 240.984375 C 281.125 246.304688 285.4375 250.613281 290.753906 250.613281 C 296.070312 250.613281 300.382812 246.304688 300.382812 240.984375 C 300.382812 235.667969 296.070312 231.355469 290.753906 231.355469 Z M 290.753906 231.355469 "/></clipPath><clipPath id="55bcb14431"><path d="M 298 218 L 314 218 L 314 234 L 298 234 Z M 298 218 "/></clipPath><clipPath id="8ef6938020"><path d="M 298.515625 222.632812 L 302.757812 218.390625 L 314.425781 230.058594 L 310.183594 234.300781 Z M 298.515625 222.632812 "/></clipPath><clipPath id="5eb7ae9cf1"><path d="M 298.515625 222.632812 L 302.757812 218.390625 L 314.425781 230.058594 L 310.183594 234.300781 Z M 298.515625 222.632812 "/></clipPath><clipPath id="05c3dedbd0"><path d="M 357.460938 213.003906 L 373.960938 213.003906 L 373.960938 219 L 357.460938 219 Z M 357.460938 213.003906 "/></clipPath><clipPath id="ceb24e8da8"><path d="M 392 159 L 408 159 L 408 175 L 392 175 Z M 392 159 "/></clipPath><clipPath id="d7b397e69c"><path d="M 396.039062 175.089844 L 391.796875 170.847656 L 403.464844 159.179688 L 407.707031 163.421875 Z M 396.039062 175.089844 "/></clipPath><clipPath id="dc697032ec"><path d="M 396.039062 175.089844 L 391.796875 170.847656 L 403.464844 159.179688 L 407.707031 163.421875 Z M 396.039062 175.089844 "/></clipPath><clipPath id="fea798a75b"><path d="M 391 159 L 408 159 L 408 175 L 391 175 Z M 391 159 "/></clipPath><clipPath id="aefd8adc4c"><path d="M 396.039062 175.089844 L 391.796875 170.847656 L 403.464844 159.179688 L 407.707031 163.421875 Z M 396.039062 175.089844 "/></clipPath><clipPath id="ee27046b32"><path d="M 396.039062 175.089844 L 391.796875 170.847656 L 403.464844 159.179688 L 407.707031 163.421875 Z M 396.039062 175.089844 "/></clipPath><clipPath id="ee0e36b2d4"><path d="M 386.078125 100 L 392 100 L 392 116 L 386.078125 116 Z M 386.078125 100 "/></clipPath><clipPath id="0b4fd765b7"><path d="M 386.078125 100 L 392.078125 100 L 392.078125 116 L 386.078125 116 Z M 386.078125 100 "/></clipPath><clipPath id="81528c2741"><path d="M 272.804688 81.144531 L 289 81.144531 L 289 87.144531 L 272.804688 87.144531 Z M 272.804688 81.144531 "/></clipPath><clipPath id="a3a937a9f0"><path d="M 332 66 L 348 66 L 348 81 L 332 81 Z M 332 66 "/></clipPath><clipPath id="86f26a790e"><path d="M 331.78125 70.378906 L 335.875 65.992188 L 347.9375 77.25 L 343.84375 81.636719 Z M 331.78125 70.378906 "/></clipPath><clipPath id="fb38f48709"><path d="M 331.78125 70.378906 L 335.875 65.992188 L 347.9375 77.25 L 343.84375 81.636719 Z M 331.78125 70.378906 "/></clipPath><clipPath id="3f25feae60"><path d="M 331 66 L 348 66 L 348 82 L 331 82 Z M 331 66 "/></clipPath><clipPath id="402aff2bcf"><path d="M 331.78125 70.378906 L 335.875 65.992188 L 347.9375 77.25 L 343.84375 81.636719 Z M 331.78125 70.378906 "/></clipPath><clipPath id="b82119061d"><path d="M 331.78125 70.378906 L 335.875 65.992188 L 347.9375 77.25 L 343.84375 81.636719 Z M 331.78125 70.378906 "/></clipPath></defs><g id="d8b8bbaf87"><g style="fill:#2e2e2e;fill-opacity:1;"><g transform="translate(79.376867, 196.722536)"><path style="stroke:none" d="M 14.921875 -4.25 C 14.921875 -3.375 14.695312 -2.597656 14.25 -1.921875 C 13.800781 -1.253906 13.09375 -0.726562 12.125 -0.34375 C 11.164062 0.03125 9.890625 0.21875 8.296875 0.21875 C 6.441406 0.21875 4.957031 -0.0234375 3.84375 -0.515625 C 2.726562 -1.003906 1.914062 -1.707031 1.40625 -2.625 C 0.90625 -3.550781 0.65625 -4.660156 0.65625 -5.953125 L 4.15625 -5.953125 C 4.15625 -4.773438 4.476562 -3.960938 5.125 -3.515625 C 5.78125 -3.066406 6.875 -2.84375 8.40625 -2.84375 C 9.53125 -2.84375 10.3125 -2.96875 10.75 -3.21875 C 11.1875 -3.46875 11.40625 -3.796875 11.40625 -4.203125 C 11.40625 -4.585938 11.21875 -4.90625 10.84375 -5.15625 C 10.46875 -5.414062 9.96875 -5.65625 9.34375 -5.875 C 8.71875 -6.101562 8.023438 -6.34375 7.265625 -6.59375 C 6.453125 -6.875 5.6875 -7.148438 4.96875 -7.421875 C 4.257812 -7.691406 3.632812 -8.007812 3.09375 -8.375 C 2.550781 -8.738281 2.125 -9.175781 1.8125 -9.6875 C 1.507812 -10.195312 1.359375 -10.832031 1.359375 -11.59375 C 1.359375 -12.90625 1.875 -13.910156 2.90625 -14.609375 C 3.9375 -15.304688 5.441406 -15.65625 7.421875 -15.65625 C 9.003906 -15.65625 10.300781 -15.410156 11.3125 -14.921875 C 12.332031 -14.429688 13.082031 -13.773438 13.5625 -12.953125 C 14.039062 -12.128906 14.28125 -11.207031 14.28125 -10.1875 L 10.78125 -10.1875 C 10.78125 -10.8125 10.632812 -11.300781 10.34375 -11.65625 C 10.050781 -12.007812 9.648438 -12.253906 9.140625 -12.390625 C 8.640625 -12.523438 8.066406 -12.59375 7.421875 -12.59375 C 6.640625 -12.59375 6.015625 -12.5 5.546875 -12.3125 C 5.085938 -12.132812 4.859375 -11.847656 4.859375 -11.453125 C 4.859375 -11.222656 4.921875 -11.023438 5.046875 -10.859375 C 5.179688 -10.703125 5.453125 -10.53125 5.859375 -10.34375 C 6.273438 -10.164062 6.894531 -9.9375 7.71875 -9.65625 C 8.28125 -9.46875 8.882812 -9.257812 9.53125 -9.03125 C 10.1875 -8.8125 10.832031 -8.554688 11.46875 -8.265625 C 12.101562 -7.984375 12.675781 -7.648438 13.1875 -7.265625 C 13.707031 -6.890625 14.125 -6.453125 14.4375 -5.953125 C 14.757812 -5.460938 14.921875 -4.894531 14.921875 -4.25 Z M 14.921875 -4.25 "/></g></g><g style="fill:#2e2e2e;fill-opacity:1;"><g transform="translate(102.53437, 196.722536)"><path style="stroke:none" d="M 1.09375 -7.734375 C 1.09375 -9.234375 1.410156 -10.578125 2.046875 -11.765625 C 2.679688 -12.960938 3.585938 -13.910156 4.765625 -14.609375 C 5.941406 -15.304688 7.347656 -15.65625 8.984375 -15.65625 C 10.617188 -15.65625 12.019531 -15.304688 13.1875 -14.609375 C 14.351562 -13.910156 15.253906 -12.960938 15.890625 -11.765625 C 16.523438 -10.578125 16.84375 -9.234375 16.84375 -7.734375 C 16.84375 -6.222656 16.523438 -4.867188 15.890625 -3.671875 C 15.253906 -2.484375 14.351562 -1.535156 13.1875 -0.828125 C 12.019531 -0.128906 10.617188 0.21875 8.984375 0.21875 C 7.347656 0.21875 5.941406 -0.128906 4.765625 -0.828125 C 3.585938 -1.535156 2.679688 -2.484375 2.046875 -3.671875 C 1.410156 -4.867188 1.09375 -6.222656 1.09375 -7.734375 Z M 4.59375 -7.734375 C 4.59375 -6.242188 4.957031 -5.054688 5.6875 -4.171875 C 6.425781 -3.285156 7.523438 -2.84375 8.984375 -2.84375 C 10.441406 -2.84375 11.53125 -3.285156 12.25 -4.171875 C 12.976562 -5.054688 13.34375 -6.242188 13.34375 -7.734375 C 13.34375 -9.210938 12.976562 -10.390625 12.25 -11.265625 C 11.53125 -12.148438 10.441406 -12.59375 8.984375 -12.59375 C 7.523438 -12.59375 6.425781 -12.148438 5.6875 -11.265625 C 4.957031 -10.390625 4.59375 -9.210938 4.59375 -7.734375 Z M 4.59375 -7.734375 "/></g></g><g style="fill:#2e2e2e;fill-opacity:1;"><g transform="translate(128.057793, 196.722536)"><path style="stroke:none" d="M 12.328125 0 L 3.203125 0.21875 C 2.597656 0.226562 2.128906 0.078125 1.796875 -0.234375 C 1.472656 -0.554688 1.3125 -1.019531 1.3125 -1.625 L 1.3125 -15.4375 L 4.8125 -15.4375 L 4.8125 -2.84375 L 12.328125 -3.0625 Z M 12.328125 0 "/></g></g><g style="fill:#2e2e2e;fill-opacity:1;"><g transform="translate(148.411222, 196.722536)"><path style="stroke:none" d="M 0.875 -5.734375 L 0.875 -15.4375 L 4.375 -15.4375 L 4.375 -7.296875 C 4.375 -6.609375 4.40625 -5.988281 4.46875 -5.4375 C 4.539062 -4.894531 4.6875 -4.429688 4.90625 -4.046875 C 5.125 -3.660156 5.46875 -3.363281 5.9375 -3.15625 C 6.40625 -2.945312 7.039062 -2.84375 7.84375 -2.84375 C 8.925781 -2.84375 9.710938 -3.019531 10.203125 -3.375 C 10.691406 -3.738281 11 -4.253906 11.125 -4.921875 C 11.257812 -5.585938 11.328125 -6.378906 11.328125 -7.296875 L 11.328125 -15.4375 L 14.828125 -15.4375 L 14.828125 -5.734375 C 14.828125 -3.804688 14.234375 -2.332031 13.046875 -1.3125 C 11.867188 -0.289062 10.132812 0.21875 7.84375 0.21875 C 5.550781 0.21875 3.816406 -0.289062 2.640625 -1.3125 C 1.460938 -2.332031 0.875 -3.804688 0.875 -5.734375 Z M 0.875 -5.734375 "/></g></g><g style="fill:#2e2e2e;fill-opacity:1;"><g transform="translate(171.700163, 196.722536)"><path style="stroke:none" d="M 0.65625 -15.4375 L 14.265625 -15.4375 L 14.265625 -12.375 L 9.21875 -12.375 L 9.21875 0 L 5.71875 0 L 5.71875 -12.375 L 0.65625 -12.375 Z M 0.65625 -15.4375 "/></g></g><g style="fill:#2e2e2e;fill-opacity:1;"><g transform="translate(194.200456, 196.722536)"><path style="stroke:none" d="M 11.609375 -15.4375 L 11.609375 -12.375 L 8.109375 -12.375 L 8.109375 -3.0625 L 11.609375 -3.0625 L 11.609375 0 L 1.09375 0 L 1.09375 -3.0625 L 4.59375 -3.0625 L 4.59375 -12.375 L 1.09375 -12.375 L 1.09375 -15.4375 Z M 11.609375 -15.4375 "/></g></g><g style="fill:#2e2e2e;fill-opacity:1;"><g transform="translate(214.488144, 196.722536)"><path style="stroke:none" d="M 1.09375 -7.734375 C 1.09375 -9.234375 1.410156 -10.578125 2.046875 -11.765625 C 2.679688 -12.960938 3.585938 -13.910156 4.765625 -14.609375 C 5.941406 -15.304688 7.347656 -15.65625 8.984375 -15.65625 C 10.617188 -15.65625 12.019531 -15.304688 13.1875 -14.609375 C 14.351562 -13.910156 15.253906 -12.960938 15.890625 -11.765625 C 16.523438 -10.578125 16.84375 -9.234375 16.84375 -7.734375 C 16.84375 -6.222656 16.523438 -4.867188 15.890625 -3.671875 C 15.253906 -2.484375 14.351562 -1.535156 13.1875 -0.828125 C 12.019531 -0.128906 10.617188 0.21875 8.984375 0.21875 C 7.347656 0.21875 5.941406 -0.128906 4.765625 -0.828125 C 3.585938 -1.535156 2.679688 -2.484375 2.046875 -3.671875 C 1.410156 -4.867188 1.09375 -6.222656 1.09375 -7.734375 Z M 4.59375 -7.734375 C 4.59375 -6.242188 4.957031 -5.054688 5.6875 -4.171875 C 6.425781 -3.285156 7.523438 -2.84375 8.984375 -2.84375 C 10.441406 -2.84375 11.53125 -3.285156 12.25 -4.171875 C 12.976562 -5.054688 13.34375 -6.242188 13.34375 -7.734375 C 13.34375 -9.210938 12.976562 -10.390625 12.25 -11.265625 C 11.53125 -12.148438 10.441406 -12.59375 8.984375 -12.59375 C 7.523438 -12.59375 6.425781 -12.148438 5.6875 -11.265625 C 4.957031 -10.390625 4.59375 -9.210938 4.59375 -7.734375 Z M 4.59375 -7.734375 "/></g></g><g style="fill:#2e2e2e;fill-opacity:1;"><g transform="translate(240.011568, 196.722536)"><path style="stroke:none" d="M 13.09375 -3.0625 L 13.09375 -15.4375 L 16.609375 -15.4375 L 16.609375 0 L 9.703125 0 L 5.8125 -12.375 L 4.8125 -12.375 L 4.8125 0 L 1.3125 0 L 1.3125 -15.4375 L 8.21875 -15.4375 L 12.109375 -3.0625 Z M 13.09375 -3.0625 "/></g></g><g style="fill:#2e2e2e;fill-opacity:1;"><g transform="translate(265.513092, 196.722536)"><path style="stroke:none" d="M 14.921875 -4.25 C 14.921875 -3.375 14.695312 -2.597656 14.25 -1.921875 C 13.800781 -1.253906 13.09375 -0.726562 12.125 -0.34375 C 11.164062 0.03125 9.890625 0.21875 8.296875 0.21875 C 6.441406 0.21875 4.957031 -0.0234375 3.84375 -0.515625 C 2.726562 -1.003906 1.914062 -1.707031 1.40625 -2.625 C 0.90625 -3.550781 0.65625 -4.660156 0.65625 -5.953125 L 4.15625 -5.953125 C 4.15625 -4.773438 4.476562 -3.960938 5.125 -3.515625 C 5.78125 -3.066406 6.875 -2.84375 8.40625 -2.84375 C 9.53125 -2.84375 10.3125 -2.96875 10.75 -3.21875 C 11.1875 -3.46875 11.40625 -3.796875 11.40625 -4.203125 C 11.40625 -4.585938 11.21875 -4.90625 10.84375 -5.15625 C 10.46875 -5.414062 9.96875 -5.65625 9.34375 -5.875 C 8.71875 -6.101562 8.023438 -6.34375 7.265625 -6.59375 C 6.453125 -6.875 5.6875 -7.148438 4.96875 -7.421875 C 4.257812 -7.691406 3.632812 -8.007812 3.09375 -8.375 C 2.550781 -8.738281 2.125 -9.175781 1.8125 -9.6875 C 1.507812 -10.195312 1.359375 -10.832031 1.359375 -11.59375 C 1.359375 -12.90625 1.875 -13.910156 2.90625 -14.609375 C 3.9375 -15.304688 5.441406 -15.65625 7.421875 -15.65625 C 9.003906 -15.65625 10.300781 -15.410156 11.3125 -14.921875 C 12.332031 -14.429688 13.082031 -13.773438 13.5625 -12.953125 C 14.039062 -12.128906 14.28125 -11.207031 14.28125 -10.1875 L 10.78125 -10.1875 C 10.78125 -10.8125 10.632812 -11.300781 10.34375 -11.65625 C 10.050781 -12.007812 9.648438 -12.253906 9.140625 -12.390625 C 8.640625 -12.523438 8.066406 -12.59375 7.421875 -12.59375 C 6.640625 -12.59375 6.015625 -12.5 5.546875 -12.3125 C 5.085938 -12.132812 4.859375 -11.847656 4.859375 -11.453125 C 4.859375 -11.222656 4.921875 -11.023438 5.046875 -10.859375 C 5.179688 -10.703125 5.453125 -10.53125 5.859375 -10.34375 C 6.273438 -10.164062 6.894531 -9.9375 7.71875 -9.65625 C 8.28125 -9.46875 8.882812 -9.257812 9.53125 -9.03125 C 10.1875 -8.8125 10.832031 -8.554688 11.46875 -8.265625 C 12.101562 -7.984375 12.675781 -7.648438 13.1875 -7.265625 C 13.707031 -6.890625 14.125 -6.453125 14.4375 -5.953125 C 14.757812 -5.460938 14.921875 -4.894531 14.921875 -4.25 Z M 14.921875 -4.25 "/></g></g><g style="fill:#2e2e2e;fill-opacity:1;"><g transform="translate(2.588055, 166.527341)"><path style="stroke:none" d="M 22.453125 -50.578125 C 25.660156 -50.578125 28.625 -50.363281 31.34375 -49.9375 C 34.070312 -49.507812 36.453125 -48.6875 38.484375 -47.46875 C 40.523438 -46.25 42.117188 -44.460938 43.265625 -42.109375 C 44.410156 -39.765625 44.984375 -36.679688 44.984375 -32.859375 C 44.984375 -29.035156 44.410156 -25.9375 43.265625 -23.5625 C 42.117188 -21.195312 40.523438 -19.40625 38.484375 -18.1875 C 36.453125 -16.96875 34.070312 -16.140625 31.34375 -15.703125 C 28.625 -15.273438 25.660156 -15.0625 22.453125 -15.0625 L 15.78125 -15.0625 L 15.78125 0 L 4.3125 0 L 4.3125 -50.578125 Z M 15.78125 -25.109375 L 23.171875 -25.109375 C 25.472656 -25.109375 27.390625 -25.265625 28.921875 -25.578125 C 30.453125 -25.890625 31.597656 -26.59375 32.359375 -27.6875 C 33.117188 -28.789062 33.5 -30.515625 33.5 -32.859375 C 33.5 -35.203125 33.117188 -36.910156 32.359375 -37.984375 C 31.597656 -39.066406 30.453125 -39.757812 28.921875 -40.0625 C 27.390625 -40.375 25.472656 -40.53125 23.171875 -40.53125 L 15.78125 -40.53125 Z M 15.78125 -25.109375 "/></g></g><g style="fill:#2e2e2e;fill-opacity:1;"><g transform="translate(50.431377, 166.527341)"><path style="stroke:none" d="M 17.71875 -39.828125 C 15.613281 -39.828125 13.960938 -40.316406 12.765625 -41.296875 C 11.578125 -42.273438 10.984375 -43.695312 10.984375 -45.5625 C 10.984375 -47.375 11.578125 -48.78125 12.765625 -49.78125 C 13.960938 -50.789062 15.613281 -51.296875 17.71875 -51.296875 C 19.820312 -51.296875 21.492188 -50.789062 22.734375 -49.78125 C 23.984375 -48.78125 24.609375 -47.375 24.609375 -45.5625 C 24.609375 -43.695312 23.984375 -42.273438 22.734375 -41.296875 C 21.492188 -40.316406 19.820312 -39.828125 17.71875 -39.828125 Z M 34.4375 0 L 2.875 0 L 2.875 -10.046875 L 13.125 -10.046875 L 13.125 -26.625 L 4.3125 -26.1875 L 4.3125 -36.234375 L 17.9375 -36.953125 C 19.945312 -37.046875 21.488281 -36.566406 22.5625 -35.515625 C 23.644531 -34.460938 24.1875 -32.929688 24.1875 -30.921875 L 24.1875 -10.046875 L 34.4375 -10.046875 Z M 34.4375 0 "/></g></g><g style="fill:#2e2e2e;fill-opacity:1;"><g transform="translate(86.295933, 166.527341)"><path style="stroke:none" d="M 26.109375 -26.90625 C 24.054688 -26.90625 22.253906 -26.484375 20.703125 -25.640625 C 19.148438 -24.804688 17.941406 -23.410156 17.078125 -21.453125 C 16.210938 -19.492188 15.78125 -16.816406 15.78125 -13.421875 L 15.78125 0 L 4.3125 0 L 4.3125 -36.234375 L 15.78125 -36.234375 L 15.78125 -31.859375 L 13.625 -25.40625 L 16.5 -25.40625 C 17.21875 -28.65625 18.710938 -31.390625 20.984375 -33.609375 C 23.253906 -35.835938 26.328125 -36.953125 30.203125 -36.953125 C 34.847656 -36.953125 38.484375 -35.457031 41.109375 -32.46875 C 43.742188 -29.476562 45.0625 -25.1875 45.0625 -19.59375 L 45.0625 0 L 33.578125 0 L 33.578125 -17.796875 C 33.578125 -21.097656 33.023438 -23.441406 31.921875 -24.828125 C 30.828125 -26.210938 28.890625 -26.90625 26.109375 -26.90625 Z M 26.109375 -26.90625 "/></g></g><g style="fill:#2e2e2e;fill-opacity:1;"><g transform="translate(134.928279, 166.527341)"><path style="stroke:none" d="M 26.109375 -26.90625 C 24.054688 -26.90625 22.253906 -26.484375 20.703125 -25.640625 C 19.148438 -24.804688 17.941406 -23.410156 17.078125 -21.453125 C 16.210938 -19.492188 15.78125 -16.816406 15.78125 -13.421875 L 15.78125 0 L 4.3125 0 L 4.3125 -36.234375 L 15.78125 -36.234375 L 15.78125 -31.859375 L 13.625 -25.40625 L 16.5 -25.40625 C 17.21875 -28.65625 18.710938 -31.390625 20.984375 -33.609375 C 23.253906 -35.835938 26.328125 -36.953125 30.203125 -36.953125 C 34.847656 -36.953125 38.484375 -35.457031 41.109375 -32.46875 C 43.742188 -29.476562 45.0625 -25.1875 45.0625 -19.59375 L 45.0625 0 L 33.578125 0 L 33.578125 -17.796875 C 33.578125 -21.097656 33.023438 -23.441406 31.921875 -24.828125 C 30.828125 -26.210938 28.890625 -26.90625 26.109375 -26.90625 Z M 26.109375 -26.90625 "/></g></g><g style="fill:#2e2e2e;fill-opacity:1;"><g transform="translate(183.560625, 166.527341)"><path style="stroke:none" d="M 2.875 -9.90625 C 2.875 -13.007812 3.945312 -15.492188 6.09375 -17.359375 C 8.25 -19.222656 12.003906 -20.539062 17.359375 -21.3125 L 28.765625 -22.890625 C 28.765625 -24.367188 28.175781 -25.523438 27 -26.359375 C 25.832031 -27.203125 24.007812 -27.625 21.53125 -27.625 C 19.226562 -27.625 17.453125 -27.164062 16.203125 -26.25 C 14.960938 -25.34375 14.34375 -24.054688 14.34375 -22.390625 L 3.59375 -22.390625 C 3.59375 -25.453125 4.378906 -28.066406 5.953125 -30.234375 C 7.535156 -32.410156 9.6875 -34.070312 12.40625 -35.21875 C 15.132812 -36.375 18.175781 -36.953125 21.53125 -36.953125 C 24.875 -36.953125 27.957031 -36.390625 30.78125 -35.265625 C 33.601562 -34.140625 35.882812 -32.34375 37.625 -29.875 C 39.375 -27.414062 40.25 -24.203125 40.25 -20.234375 L 40.25 -10.046875 L 45.484375 -10.046875 L 45.484375 0 L 37.53125 0 C 35.800781 0 34.46875 -0.460938 33.53125 -1.390625 C 32.601562 -2.328125 32.140625 -3.65625 32.140625 -5.375 L 32.140625 -6.09375 L 33.9375 -10.40625 L 31.0625 -10.40625 C 30.632812 -8.394531 29.878906 -6.550781 28.796875 -4.875 C 27.722656 -3.207031 26.179688 -1.859375 24.171875 -0.828125 C 22.171875 0.203125 19.472656 0.71875 16.078125 0.71875 C 13.253906 0.71875 10.96875 0.347656 9.21875 -0.390625 C 7.46875 -1.128906 6.140625 -2.0625 5.234375 -3.1875 C 4.328125 -4.3125 3.707031 -5.484375 3.375 -6.703125 C 3.039062 -7.921875 2.875 -8.988281 2.875 -9.90625 Z M 14.34375 -12.046875 C 14.34375 -10.992188 14.757812 -10.273438 15.59375 -9.890625 C 16.4375 -9.515625 17.335938 -9.328125 18.296875 -9.328125 C 21.453125 -9.328125 23.984375 -9.957031 25.890625 -11.21875 C 27.804688 -12.488281 28.765625 -14.226562 28.765625 -16.4375 L 19.515625 -15.140625 C 17.796875 -14.898438 16.503906 -14.585938 15.640625 -14.203125 C 14.773438 -13.816406 14.34375 -13.097656 14.34375 -12.046875 Z M 14.34375 -12.046875 "/></g></g><g style="fill:#2e2e2e;fill-opacity:1;"><g transform="translate(229.754185, 166.527341)"><path style="stroke:none" d="M 2.875 -18.15625 C 2.875 -22.175781 3.722656 -25.582031 5.421875 -28.375 C 7.117188 -31.175781 9.445312 -33.304688 12.40625 -34.765625 C 15.375 -36.222656 18.796875 -36.953125 22.671875 -36.953125 C 25.972656 -36.953125 29.070312 -36.363281 31.96875 -35.1875 C 34.863281 -34.019531 37.242188 -32.265625 39.109375 -29.921875 C 40.972656 -27.578125 41.976562 -24.679688 42.125 -21.234375 L 30.640625 -21.234375 C 30.441406 -22.859375 29.632812 -24.207031 28.21875 -25.28125 C 26.8125 -26.363281 24.960938 -26.90625 22.671875 -26.90625 C 19.941406 -26.90625 17.867188 -26.140625 16.453125 -24.609375 C 15.046875 -23.078125 14.34375 -20.925781 14.34375 -18.15625 C 14.34375 -15.375 15.046875 -13.207031 16.453125 -11.65625 C 17.867188 -10.101562 19.941406 -9.328125 22.671875 -9.328125 C 24.960938 -9.328125 26.8125 -9.863281 28.21875 -10.9375 C 29.632812 -12.019531 30.441406 -13.375 30.640625 -15 L 42.125 -15 C 41.976562 -11.550781 40.972656 -8.664062 39.109375 -6.34375 C 37.242188 -4.03125 34.863281 -2.273438 31.96875 -1.078125 C 29.070312 0.117188 25.972656 0.71875 22.671875 0.71875 C 18.796875 0.71875 15.375 -0.0078125 12.40625 -1.46875 C 9.445312 -2.925781 7.117188 -5.066406 5.421875 -7.890625 C 3.722656 -10.710938 2.875 -14.132812 2.875 -18.15625 Z M 2.875 -18.15625 "/></g></g><g style="fill:#2e2e2e;fill-opacity:1;"><g transform="translate(274.728352, 166.527341)"><path style="stroke:none" d="M 33.71875 0 L 2.15625 0 L 2.15625 -10.046875 L 12.203125 -10.046875 L 12.203125 -43.125 L 3.59375 -42.6875 L 3.59375 -52.734375 L 17.4375 -53.234375 C 19.445312 -53.328125 20.988281 -52.847656 22.0625 -51.796875 C 23.132812 -50.742188 23.671875 -49.21875 23.671875 -47.21875 L 23.671875 -10.046875 L 33.71875 -10.046875 Z M 33.71875 0 "/></g></g><g style="fill:#2e2e2e;fill-opacity:1;"><g transform="translate(309.875614, 166.527341)"><path style="stroke:none" d="M 2.875 -18.578125 C 2.875 -22.410156 3.6875 -25.703125 5.3125 -28.453125 C 6.9375 -31.203125 9.179688 -33.304688 12.046875 -34.765625 C 14.921875 -36.222656 18.222656 -36.953125 21.953125 -36.953125 C 25.734375 -36.953125 29.054688 -36.242188 31.921875 -34.828125 C 34.796875 -33.421875 37.046875 -31.398438 38.671875 -28.765625 C 40.296875 -26.140625 41.109375 -22.984375 41.109375 -19.296875 L 41.109375 -15.71875 L 13.625 -15.71875 C 13.625 -13.65625 14.398438 -11.953125 15.953125 -10.609375 C 17.515625 -9.273438 19.921875 -8.609375 23.171875 -8.609375 C 25.179688 -8.609375 26.890625 -8.96875 28.296875 -9.6875 C 29.710938 -10.40625 30.585938 -11.429688 30.921875 -12.765625 L 42.40625 -12.765625 C 42.21875 -11.472656 41.703125 -10.050781 40.859375 -8.5 C 40.023438 -6.945312 38.816406 -5.460938 37.234375 -4.046875 C 35.660156 -2.640625 33.710938 -1.492188 31.390625 -0.609375 C 29.066406 0.273438 26.328125 0.71875 23.171875 0.71875 C 18.535156 0.71875 14.722656 -0.175781 11.734375 -1.96875 C 8.742188 -3.757812 6.519531 -6.125 5.0625 -9.0625 C 3.601562 -12.007812 2.875 -15.179688 2.875 -18.578125 Z M 13.625 -22.171875 L 30.34375 -22.171875 C 30.34375 -23.554688 29.742188 -24.8125 28.546875 -25.9375 C 27.359375 -27.0625 25.160156 -27.625 21.953125 -27.625 C 18.742188 -27.625 16.550781 -27.0625 15.375 -25.9375 C 14.207031 -24.8125 13.625 -23.554688 13.625 -22.171875 Z M 13.625 -22.171875 "/></g></g><g clip-rule="nonzero" clip-path="url(#62158e04a7)"><g clip-rule="nonzero" clip-path="url(#02c0441eda)"><g clip-rule="nonzero" clip-path="url(#36daa800c3)"><path style=" stroke:none;fill-rule:nonzero;fill:#4682b4;fill-opacity:1;" d="M 325.992188 41.070312 L 344.121094 59.847656 L 325.339844 77.976562 L 307.214844 59.195312 Z M 325.992188 41.070312 "/></g></g></g><g clip-rule="nonzero" clip-path="url(#fcac7aca4d)"><g clip-rule="nonzero" clip-path="url(#7d3043b29d)"><g clip-rule="nonzero" clip-path="url(#b62e0ecf9c)"><path style=" stroke:none;fill-rule:nonzero;fill:#4682b4;fill-opacity:1;" d="M 355.019531 69.625 L 373.144531 88.40625 L 354.367188 106.53125 L 336.238281 87.753906 Z M 355.019531 69.625 "/></g></g></g><g clip-rule="nonzero" clip-path="url(#ca66f05fcc)"><g clip-rule="nonzero" clip-path="url(#4520bb9940)"><path style=" stroke:none;fill-rule:nonzero;fill:#4682b4;fill-opacity:1;" d="M 247.335938 70.957031 L 273.4375 70.957031 L 273.4375 97.054688 L 247.335938 97.054688 Z M 247.335938 70.957031 "/></g></g><g clip-rule="nonzero" clip-path="url(#6370f182cb)"><g clip-rule="nonzero" clip-path="url(#5f9fb73e29)"><path style=" stroke:none;fill-rule:nonzero;fill:#4682b4;fill-opacity:1;" d="M 288.628906 70.957031 L 314.730469 70.957031 L 314.730469 97.054688 L 288.628906 97.054688 Z M 288.628906 70.957031 "/></g></g><g clip-rule="nonzero" clip-path="url(#648db81665)"><g clip-rule="nonzero" clip-path="url(#3cd17a480a)"><g clip-rule="nonzero" clip-path="url(#55b379f4bb)"><path style=" stroke:none;fill-rule:nonzero;fill:#4682b4;fill-opacity:1;" d="M 293.203125 192.582031 L 311.328125 211.363281 L 292.550781 229.488281 L 274.421875 210.710938 Z M 293.203125 192.582031 "/></g></g></g><g clip-rule="nonzero" clip-path="url(#36d36b9066)"><g clip-rule="nonzero" clip-path="url(#3d17d2bbae)"><g clip-rule="nonzero" clip-path="url(#ea6865d56a)"><path style=" stroke:none;fill-rule:nonzero;fill:#4682b4;fill-opacity:1;" d="M 321.878906 222.292969 L 340.007812 241.074219 L 321.226562 259.199219 L 303.101562 240.421875 Z M 321.878906 222.292969 "/></g></g></g><g clip-rule="nonzero" clip-path="url(#672645de1d)"><g clip-rule="nonzero" clip-path="url(#a9083e909d)"><g clip-rule="nonzero" clip-path="url(#398a47edb6)"><path style=" stroke:none;fill-rule:nonzero;fill:#4682b4;fill-opacity:1;" d="M 402.214844 74.226562 L 401.753906 100.320312 L 375.65625 99.859375 L 376.117188 73.761719 Z M 402.214844 74.226562 "/></g></g></g><g clip-rule="nonzero" clip-path="url(#e15fa21e17)"><g clip-rule="nonzero" clip-path="url(#c74cd1cc45)"><g clip-rule="nonzero" clip-path="url(#fedd2bfb2b)"><path style=" stroke:none;fill-rule:nonzero;fill:#4682b4;fill-opacity:1;" d="M 401.484375 115.511719 L 401.023438 141.609375 L 374.925781 141.148438 L 375.390625 115.050781 Z M 401.484375 115.511719 "/></g></g></g><g clip-rule="nonzero" clip-path="url(#448d386ce2)"><g clip-rule="nonzero" clip-path="url(#1f089b45f6)"><g clip-rule="nonzero" clip-path="url(#e4cfca0ded)"><path style=" stroke:none;fill-rule:nonzero;fill:#4682b4;fill-opacity:1;" d="M 431.996094 151.453125 L 413.757812 170.121094 L 395.085938 151.882812 L 413.328125 133.214844 Z M 431.996094 151.453125 "/></g></g></g><g clip-rule="nonzero" clip-path="url(#4a52faaf35)"><g clip-rule="nonzero" clip-path="url(#327b07675f)"><g clip-rule="nonzero" clip-path="url(#c688d3b368)"><path style=" stroke:none;fill-rule:nonzero;fill:#4682b4;fill-opacity:1;" d="M 403.140625 180.992188 L 384.902344 199.660156 L 366.230469 181.421875 L 384.46875 162.75 Z M 403.140625 180.992188 "/></g></g></g><g clip-rule="nonzero" clip-path="url(#40d74bb9d8)"><g clip-rule="nonzero" clip-path="url(#5bfbcc3da5)"><g clip-rule="nonzero" clip-path="url(#a24395a490)"><path style=" stroke:none;fill-rule:nonzero;fill:#4682b4;fill-opacity:1;" d="M 332.320312 201.859375 L 358.417969 202.320312 L 357.957031 228.414062 L 331.859375 227.953125 Z M 332.320312 201.859375 "/></g></g></g><g clip-rule="nonzero" clip-path="url(#d8e3da3d18)"><g clip-rule="nonzero" clip-path="url(#a60c32546a)"><g clip-rule="nonzero" clip-path="url(#b40056aac6)"><path style=" stroke:none;fill-rule:nonzero;fill:#4682b4;fill-opacity:1;" d="M 373.609375 202.589844 L 399.703125 203.050781 L 399.242188 229.144531 L 373.144531 228.683594 Z M 373.609375 202.589844 "/></g></g></g><g clip-rule="nonzero" clip-path="url(#c559b9dccd)"><g clip-rule="nonzero" clip-path="url(#d9db4c9306)"><path style=" stroke:none;fill-rule:nonzero;fill:#4682b4;fill-opacity:1;" d="M 271.496094 51.699219 L 290.753906 51.699219 L 290.753906 70.957031 L 271.496094 70.957031 Z M 271.496094 51.699219 "/></g></g><g clip-rule="nonzero" clip-path="url(#87ab910587)"><g clip-rule="nonzero" clip-path="url(#9ad9e1d9e4)"><path style=" stroke:none;fill-rule:nonzero;fill:#4682b4;fill-opacity:1;" d="M 346.523438 47.816406 L 365.78125 47.816406 L 365.78125 67.074219 L 346.523438 67.074219 Z M 346.523438 47.816406 "/></g></g><g clip-rule="nonzero" clip-path="url(#af6ab4d297)"><g clip-rule="nonzero" clip-path="url(#756086ffa8)"><path style=" stroke:none;fill-rule:nonzero;fill:#4682b4;fill-opacity:1;" d="M 401.488281 98.058594 L 420.746094 98.058594 L 420.746094 117.316406 L 401.488281 117.316406 Z M 401.488281 98.058594 "/></g></g><g clip-rule="nonzero" clip-path="url(#f400ead91b)"><g clip-rule="nonzero" clip-path="url(#3936ddacf2)"><path style=" stroke:none;fill-rule:nonzero;fill:#4682b4;fill-opacity:1;" d="M 405.914062 173.324219 L 425.171875 173.324219 L 425.171875 192.582031 L 405.914062 192.582031 Z M 405.914062 173.324219 "/></g></g><g clip-rule="nonzero" clip-path="url(#cdab0aa737)"><g clip-rule="nonzero" clip-path="url(#6234bdb5df)"><path style=" stroke:none;fill-rule:nonzero;fill:#4682b4;fill-opacity:1;" d="M 355.671875 229.144531 L 374.929688 229.144531 L 374.929688 248.402344 L 355.671875 248.402344 Z M 355.671875 229.144531 "/></g></g><g clip-rule="nonzero" clip-path="url(#3ef84e2285)"><g clip-rule="nonzero" clip-path="url(#bc15c76b99)"><path style=" stroke:none;fill-rule:nonzero;fill:#4682b4;fill-opacity:1;" d="M 281.125 231.355469 L 300.382812 231.355469 L 300.382812 250.613281 L 281.125 250.613281 Z M 281.125 231.355469 "/></g></g><g clip-rule="nonzero" clip-path="url(#55bcb14431)"><g clip-rule="nonzero" clip-path="url(#8ef6938020)"><g clip-rule="nonzero" clip-path="url(#5eb7ae9cf1)"><path style=" stroke:none;fill-rule:nonzero;fill:#4682b4;fill-opacity:1;" d="M 302.679688 218.683594 L 298.808594 222.554688 C 298.738281 222.625 298.773438 222.746094 298.871094 222.765625 C 300.324219 223.097656 302.785156 224.777344 305.199219 227.191406 C 307.613281 229.601562 309.289062 232.066406 309.625 233.519531 C 309.644531 233.617188 309.761719 233.652344 309.832031 233.582031 L 313.707031 229.710938 C 313.777344 229.640625 313.738281 229.523438 313.644531 229.5 C 312.191406 229.167969 309.726562 227.488281 307.3125 225.074219 C 304.902344 222.664062 303.222656 220.199219 302.890625 218.746094 C 302.867188 218.648438 302.75 218.613281 302.679688 218.683594 Z M 302.679688 218.683594 "/><path style=" stroke:none;fill-rule:nonzero;fill:#4682b4;fill-opacity:1;" d="M 313.792969 229.796875 L 309.921875 233.671875 C 309.859375 233.734375 309.765625 233.757812 309.675781 233.734375 C 309.589844 233.707031 309.523438 233.636719 309.5 233.546875 C 309.164062 232.066406 307.4375 229.605469 305.109375 227.277344 C 302.78125 224.949219 300.320312 223.226562 298.839844 222.886719 C 298.753906 222.867188 298.679688 222.800781 298.65625 222.710938 C 298.632812 222.625 298.65625 222.53125 298.71875 222.46875 L 302.59375 218.597656 C 302.65625 218.53125 302.75 218.507812 302.835938 218.53125 C 302.925781 218.558594 302.992188 218.628906 303.011719 218.71875 C 303.351562 220.199219 305.074219 222.660156 307.402344 224.988281 C 309.730469 227.316406 312.191406 229.039062 313.671875 229.378906 C 313.761719 229.398438 313.832031 229.464844 313.855469 229.554688 C 313.882812 229.640625 313.859375 229.734375 313.792969 229.796875 Z M 298.894531 222.644531 C 300.421875 222.992188 302.929688 224.742188 305.289062 227.101562 C 307.644531 229.460938 309.394531 231.96875 309.746094 233.492188 L 313.617188 229.621094 C 312.09375 229.273438 309.585938 227.523438 307.226562 225.164062 C 304.867188 222.804688 303.117188 220.296875 302.769531 218.773438 Z M 298.894531 222.644531 "/></g></g></g><g clip-rule="nonzero" clip-path="url(#05c3dedbd0)"><path style=" stroke:none;fill-rule:nonzero;fill:#4682b4;fill-opacity:1;" d="M 357.609375 213.269531 L 357.609375 218.746094 C 357.609375 218.84375 357.71875 218.902344 357.804688 218.847656 C 359.066406 218.058594 361.996094 217.5 365.40625 217.5 C 368.820312 217.5 371.75 218.058594 373.011719 218.847656 C 373.09375 218.902344 373.203125 218.84375 373.203125 218.746094 L 373.203125 213.269531 C 373.203125 213.167969 373.09375 213.109375 373.011719 213.164062 C 371.75 213.957031 368.820312 214.511719 365.40625 214.511719 C 361.996094 214.511719 359.066406 213.957031 357.804688 213.164062 C 357.71875 213.109375 357.609375 213.167969 357.609375 213.269531 Z M 357.609375 213.269531 "/><path style=" stroke:none;fill-rule:nonzero;fill:#4682b4;fill-opacity:1;" d="M 373.328125 213.269531 L 373.328125 218.746094 C 373.328125 218.835938 373.277344 218.917969 373.199219 218.960938 C 373.121094 219.007812 373.023438 219.003906 372.945312 218.953125 C 371.660156 218.148438 368.699219 217.625 365.40625 217.625 C 362.113281 217.625 359.15625 218.148438 357.871094 218.953125 C 357.792969 219.003906 357.695312 219.007812 357.613281 218.960938 C 357.535156 218.917969 357.488281 218.835938 357.488281 218.746094 L 357.488281 213.269531 C 357.488281 213.175781 357.535156 213.09375 357.613281 213.050781 C 357.695312 213.007812 357.792969 213.007812 357.871094 213.058594 C 359.15625 213.863281 362.113281 214.386719 365.40625 214.386719 C 368.699219 214.386719 371.660156 213.863281 372.945312 213.058594 C 373.023438 213.007812 373.121094 213.007812 373.199219 213.050781 C 373.277344 213.09375 373.328125 213.175781 373.328125 213.269531 Z M 357.734375 218.746094 C 359.058594 217.914062 362.070312 217.375 365.40625 217.375 C 368.742188 217.375 371.753906 217.914062 373.078125 218.742188 L 373.078125 213.269531 C 371.753906 214.097656 368.742188 214.636719 365.40625 214.636719 C 362.070312 214.636719 359.058594 214.097656 357.738281 213.269531 L 357.734375 213.269531 Z M 357.734375 218.746094 "/></g><g clip-rule="nonzero" clip-path="url(#ceb24e8da8)"><g clip-rule="nonzero" clip-path="url(#d7b397e69c)"><g clip-rule="nonzero" clip-path="url(#dc697032ec)"><path style=" stroke:none;fill-rule:nonzero;fill:#4682b4;fill-opacity:1;" d="M 392.089844 170.925781 L 395.964844 174.796875 C 396.03125 174.867188 396.152344 174.832031 396.171875 174.738281 C 396.507812 173.285156 398.183594 170.820312 400.597656 168.40625 C 403.011719 165.996094 405.472656 164.316406 406.925781 163.984375 C 407.023438 163.960938 407.058594 163.84375 406.988281 163.773438 L 403.117188 159.902344 C 403.046875 159.832031 402.929688 159.867188 402.90625 159.960938 C 402.574219 161.414062 400.894531 163.878906 398.484375 166.292969 C 396.070312 168.703125 393.605469 170.382812 392.152344 170.714844 C 392.054688 170.738281 392.019531 170.855469 392.089844 170.925781 Z M 392.089844 170.925781 "/></g></g></g><g clip-rule="nonzero" clip-path="url(#fea798a75b)"><g clip-rule="nonzero" clip-path="url(#aefd8adc4c)"><g clip-rule="nonzero" clip-path="url(#ee27046b32)"><path style=" stroke:none;fill-rule:nonzero;fill:#4682b4;fill-opacity:1;" d="M 403.203125 159.8125 L 407.078125 163.683594 C 407.140625 163.75 407.164062 163.84375 407.140625 163.929688 C 407.113281 164.015625 407.042969 164.085938 406.957031 164.105469 C 405.476562 164.445312 403.015625 166.167969 400.6875 168.496094 C 398.359375 170.824219 396.632812 173.285156 396.292969 174.765625 C 396.273438 174.855469 396.207031 174.925781 396.121094 174.949219 C 396.03125 174.976562 395.9375 174.949219 395.875 174.886719 L 392.003906 171.015625 C 391.9375 170.949219 391.914062 170.855469 391.9375 170.769531 C 391.964844 170.683594 392.035156 170.613281 392.125 170.59375 C 393.605469 170.253906 396.066406 168.53125 398.394531 166.203125 C 400.722656 163.875 402.445312 161.414062 402.785156 159.933594 C 402.804688 159.84375 402.871094 159.773438 402.960938 159.75 C 403.046875 159.722656 403.140625 159.75 403.203125 159.8125 Z M 396.050781 174.710938 C 396.402344 173.1875 398.148438 170.679688 400.507812 168.320312 C 402.867188 165.960938 405.375 164.210938 406.898438 163.863281 L 403.027344 159.988281 C 402.679688 161.511719 400.929688 164.023438 398.570312 166.378906 C 396.210938 168.738281 393.703125 170.488281 392.179688 170.839844 Z M 396.050781 174.710938 "/></g></g></g><g clip-rule="nonzero" clip-path="url(#ee0e36b2d4)"><path style=" stroke:none;fill-rule:nonzero;fill:#4682b4;fill-opacity:1;" d="M 386.34375 115.851562 L 391.820312 115.851562 C 391.917969 115.851562 391.976562 115.742188 391.921875 115.660156 C 391.132812 114.394531 390.574219 111.46875 390.574219 108.054688 C 390.574219 104.644531 391.132812 101.714844 391.921875 100.449219 C 391.976562 100.367188 391.917969 100.257812 391.820312 100.257812 L 386.34375 100.257812 C 386.242188 100.257812 386.183594 100.367188 386.238281 100.449219 C 387.03125 101.714844 387.585938 104.644531 387.585938 108.054688 C 387.585938 111.46875 387.03125 114.394531 386.238281 115.660156 C 386.183594 115.742188 386.242188 115.851562 386.34375 115.851562 Z M 386.34375 115.851562 "/></g><g clip-rule="nonzero" clip-path="url(#0b4fd765b7)"><path style=" stroke:none;fill-rule:nonzero;fill:#4682b4;fill-opacity:1;" d="M 386.34375 100.132812 L 391.820312 100.132812 C 391.910156 100.132812 391.992188 100.183594 392.035156 100.261719 C 392.082031 100.34375 392.078125 100.441406 392.027344 100.515625 C 391.222656 101.804688 390.699219 104.761719 390.699219 108.054688 C 390.699219 111.347656 391.222656 114.304688 392.027344 115.59375 C 392.078125 115.671875 392.082031 115.769531 392.035156 115.847656 C 391.992188 115.925781 391.910156 115.976562 391.820312 115.976562 L 386.34375 115.976562 C 386.25 115.976562 386.167969 115.925781 386.125 115.847656 C 386.082031 115.769531 386.082031 115.671875 386.132812 115.59375 C 386.9375 114.304688 387.460938 111.347656 387.460938 108.054688 C 387.460938 104.761719 386.9375 101.804688 386.132812 100.515625 C 386.082031 100.441406 386.082031 100.34375 386.125 100.261719 C 386.167969 100.183594 386.25 100.132812 386.34375 100.132812 Z M 391.820312 115.726562 C 390.988281 114.402344 390.449219 111.390625 390.449219 108.054688 C 390.449219 104.71875 390.988281 101.707031 391.816406 100.382812 L 386.34375 100.382812 C 387.171875 101.707031 387.710938 104.71875 387.710938 108.054688 C 387.710938 111.390625 387.171875 114.402344 386.34375 115.726562 Z M 391.820312 115.726562 "/></g><g clip-rule="nonzero" clip-path="url(#81528c2741)"><path style=" stroke:none;fill-rule:nonzero;fill:#4682b4;fill-opacity:1;" d="M 272.953125 81.40625 L 272.953125 86.882812 C 272.953125 86.980469 273.0625 87.039062 273.148438 86.988281 C 274.410156 86.195312 277.339844 85.640625 280.75 85.640625 C 284.164062 85.640625 287.09375 86.195312 288.355469 86.988281 C 288.4375 87.039062 288.546875 86.980469 288.546875 86.882812 L 288.546875 81.40625 C 288.546875 81.308594 288.4375 81.25 288.355469 81.300781 C 287.09375 82.09375 284.164062 82.648438 280.75 82.648438 C 277.339844 82.648438 274.410156 82.09375 273.148438 81.300781 C 273.0625 81.25 272.953125 81.308594 272.953125 81.40625 Z M 272.953125 81.40625 "/><path style=" stroke:none;fill-rule:nonzero;fill:#4682b4;fill-opacity:1;" d="M 288.671875 81.40625 L 288.671875 86.882812 C 288.671875 86.972656 288.621094 87.058594 288.542969 87.101562 C 288.464844 87.144531 288.367188 87.144531 288.289062 87.09375 C 287.003906 86.285156 284.042969 85.765625 280.75 85.765625 C 277.457031 85.765625 274.5 86.285156 273.214844 87.09375 C 273.136719 87.144531 273.039062 87.144531 272.957031 87.101562 C 272.878906 87.058594 272.828125 86.972656 272.828125 86.882812 L 272.828125 81.40625 C 272.828125 81.316406 272.878906 81.234375 272.957031 81.1875 C 273.039062 81.144531 273.136719 81.148438 273.214844 81.195312 C 274.5 82.003906 277.457031 82.523438 280.75 82.523438 C 284.042969 82.523438 287.003906 82.003906 288.289062 81.195312 C 288.367188 81.148438 288.464844 81.144531 288.542969 81.1875 C 288.621094 81.234375 288.671875 81.316406 288.671875 81.40625 Z M 273.078125 86.882812 C 274.402344 86.050781 277.414062 85.515625 280.75 85.515625 C 284.085938 85.515625 287.097656 86.050781 288.421875 86.882812 L 288.421875 81.40625 C 287.097656 82.238281 284.085938 82.773438 280.75 82.773438 C 277.414062 82.773438 274.402344 82.238281 273.082031 81.40625 L 273.078125 81.40625 Z M 273.078125 86.882812 "/></g><g clip-rule="nonzero" clip-path="url(#a3a937a9f0)"><g clip-rule="nonzero" clip-path="url(#86f26a790e)"><g clip-rule="nonzero" clip-path="url(#fb38f48709)"><path style=" stroke:none;fill-rule:nonzero;fill:#4682b4;fill-opacity:1;" d="M 335.804688 66.289062 L 332.070312 70.292969 C 332.003906 70.363281 332.042969 70.480469 332.136719 70.5 C 333.601562 70.78125 336.121094 72.375 338.617188 74.703125 C 341.109375 77.03125 342.875 79.4375 343.257812 80.878906 C 343.28125 80.972656 343.402344 81.003906 343.46875 80.929688 L 347.203125 76.929688 C 347.273438 76.855469 347.234375 76.738281 347.136719 76.71875 C 345.671875 76.4375 343.152344 74.84375 340.65625 72.515625 C 338.164062 70.1875 336.402344 67.785156 336.019531 66.34375 C 335.992188 66.246094 335.875 66.214844 335.804688 66.289062 Z M 335.804688 66.289062 "/></g></g></g><g clip-rule="nonzero" clip-path="url(#3f25feae60)"><g clip-rule="nonzero" clip-path="url(#402aff2bcf)"><g clip-rule="nonzero" clip-path="url(#b82119061d)"><path style=" stroke:none;fill-rule:nonzero;fill:#4682b4;fill-opacity:1;" d="M 347.296875 77.011719 L 343.558594 81.015625 C 343.496094 81.082031 343.40625 81.109375 343.316406 81.089844 C 343.230469 81.066406 343.160156 80.996094 343.136719 80.910156 C 342.746094 79.441406 340.9375 77.042969 338.53125 74.792969 C 336.125 72.546875 333.605469 70.910156 332.113281 70.621094 C 332.023438 70.605469 331.953125 70.539062 331.921875 70.453125 C 331.894531 70.367188 331.917969 70.273438 331.976562 70.207031 L 335.714844 66.203125 C 335.777344 66.136719 335.871094 66.109375 335.957031 66.132812 C 336.046875 66.152344 336.113281 66.222656 336.136719 66.3125 C 336.527344 67.777344 338.335938 70.179688 340.742188 72.425781 C 343.148438 74.671875 345.667969 76.308594 347.160156 76.597656 C 347.25 76.613281 347.324219 76.679688 347.351562 76.765625 C 347.378906 76.851562 347.359375 76.945312 347.296875 77.011719 Z M 332.160156 70.378906 C 333.695312 70.671875 336.261719 72.335938 338.703125 74.613281 C 341.140625 76.886719 342.976562 79.335938 343.375 80.84375 L 347.113281 76.84375 C 345.578125 76.546875 343.011719 74.882812 340.574219 72.609375 C 338.132812 70.332031 336.296875 67.886719 335.898438 66.375 Z M 332.160156 70.378906 "/></g></g></g></g></svg>