<svg xmlns="http://www.w3.org/2000/svg" xmlns:xlink="http://www.w3.org/1999/xlink" width="576" zoomAndPan="magnify" viewBox="0 0 432 287.999989" height="384" preserveAspectRatio="xMidYMid meet" version="1.0"><defs><g/><clipPath id="978ced07a2"><path d="M 311 39 L 338 39 L 338 66 L 311 66 Z M 311 39 " clip-rule="nonzero"/></clipPath><clipPath id="31fc248137"><path d="M 324.820312 33.734375 L 343.148438 52.71875 L 324.160156 71.046875 L 305.835938 52.058594 Z M 324.820312 33.734375 " clip-rule="nonzero"/></clipPath><clipPath id="afea6e4225"><path d="M 333.984375 43.226562 C 328.925781 37.984375 320.570312 37.835938 315.328125 42.898438 C 310.085938 47.957031 309.9375 56.308594 315 61.554688 C 320.058594 66.796875 328.410156 66.945312 333.65625 61.882812 C 338.898438 56.824219 339.046875 48.46875 333.984375 43.226562 Z M 333.984375 43.226562 " clip-rule="nonzero"/></clipPath><clipPath id="f2af6adc3d"><path d="M 340 68 L 368 68 L 368 95 L 340 95 Z M 340 68 " clip-rule="nonzero"/></clipPath><clipPath id="37d702b1b3"><path d="M 354.164062 62.605469 L 372.492188 81.589844 L 353.503906 99.917969 L 335.179688 80.929688 Z M 354.164062 62.605469 " clip-rule="nonzero"/></clipPath><clipPath id="6b41a7267b"><path d="M 363.328125 72.097656 C 358.269531 66.855469 349.914062 66.707031 344.671875 71.769531 C 339.429688 76.828125 339.28125 85.179688 344.34375 90.425781 C 349.402344 95.667969 357.753906 95.816406 363 90.753906 C 368.242188 85.695312 368.390625 77.339844 363.328125 72.097656 Z M 363.328125 72.097656 " clip-rule="nonzero"/></clipPath><clipPath id="050f87c036"><path d="M 245.300781 63.949219 L 271.6875 63.949219 L 271.6875 90.335938 L 245.300781 90.335938 Z M 245.300781 63.949219 " clip-rule="nonzero"/></clipPath><clipPath id="9a6d2e5e45"><path d="M 258.492188 63.949219 C 251.207031 63.949219 245.300781 69.855469 245.300781 77.140625 C 245.300781 84.429688 251.207031 90.335938 258.492188 90.335938 C 265.78125 90.335938 271.6875 84.429688 271.6875 77.140625 C 271.6875 69.855469 265.78125 63.949219 258.492188 63.949219 Z M 258.492188 63.949219 " clip-rule="nonzero"/></clipPath><clipPath id="a27b1754ee"><path d="M 287.046875 63.949219 L 313.4375 63.949219 L 313.4375 90.335938 L 287.046875 90.335938 Z M 287.046875 63.949219 " clip-rule="nonzero"/></clipPath><clipPath id="99bcb04ca1"><path d="M 300.242188 63.949219 C 292.957031 63.949219 287.046875 69.855469 287.046875 77.140625 C 287.046875 84.429688 292.957031 90.335938 300.242188 90.335938 C 307.53125 90.335938 313.4375 84.429688 313.4375 77.140625 C 313.4375 69.855469 307.53125 63.949219 300.242188 63.949219 Z M 300.242188 63.949219 " clip-rule="nonzero"/></clipPath><clipPath id="5419a0e1c4"><path d="M 278 192 L 305 192 L 305 219 L 278 219 Z M 278 192 " clip-rule="nonzero"/></clipPath><clipPath id="5ebf1f56b6"><path d="M 291.667969 186.917969 L 309.992188 205.90625 L 291.007812 224.230469 L 272.679688 205.246094 Z M 291.667969 186.917969 " clip-rule="nonzero"/></clipPath><clipPath id="a87598ed34"><path d="M 300.832031 196.410156 C 295.769531 191.167969 287.417969 191.019531 282.175781 196.082031 C 276.929688 201.144531 276.785156 209.496094 281.84375 214.738281 C 286.90625 219.980469 295.257812 220.128906 300.5 215.070312 C 305.742188 210.007812 305.890625 201.65625 300.832031 196.410156 Z M 300.832031 196.410156 " clip-rule="nonzero"/></clipPath><clipPath id="0e883640b3"><path d="M 307 222 L 334 222 L 334 249 L 307 249 Z M 307 222 " clip-rule="nonzero"/></clipPath><clipPath id="950c5d8d74"><path d="M 320.660156 216.957031 L 338.988281 235.945312 L 320.003906 254.269531 L 301.675781 235.285156 Z M 320.660156 216.957031 " clip-rule="nonzero"/></clipPath><clipPath id="64611f40b9"><path d="M 329.824219 226.449219 C 324.765625 221.207031 316.410156 221.058594 311.167969 226.121094 C 305.925781 231.179688 305.777344 239.535156 310.839844 244.777344 C 315.898438 250.019531 324.253906 250.167969 329.496094 245.105469 C 334.738281 240.046875 334.886719 231.695312 329.824219 226.449219 Z M 329.824219 226.449219 " clip-rule="nonzero"/></clipPath><clipPath id="252a39dff1"><path d="M 375 67 L 402 67 L 402 94 L 375 94 Z M 375 67 " clip-rule="nonzero"/></clipPath><clipPath id="12c4f67b2e"><path d="M 401.878906 67.253906 L 401.414062 93.636719 L 375.027344 93.171875 L 375.496094 66.785156 Z M 401.878906 67.253906 " clip-rule="nonzero"/></clipPath><clipPath id="4b676d9709"><path d="M 401.648438 80.445312 C 401.777344 73.160156 395.972656 67.148438 388.6875 67.019531 C 381.402344 66.890625 375.390625 72.691406 375.261719 79.976562 C 375.132812 87.265625 380.933594 93.273438 388.222656 93.402344 C 395.507812 93.53125 401.519531 87.730469 401.648438 80.445312 Z M 401.648438 80.445312 " clip-rule="nonzero"/></clipPath><clipPath id="521057ff67"><path d="M 374 108 L 401 108 L 401 136 L 374 136 Z M 374 108 " clip-rule="nonzero"/></clipPath><clipPath id="ea7cceb472"><path d="M 401.140625 108.996094 L 400.675781 135.378906 L 374.289062 134.914062 L 374.757812 108.527344 Z M 401.140625 108.996094 " clip-rule="nonzero"/></clipPath><clipPath id="7c1cebd60b"><path d="M 400.910156 122.1875 C 401.039062 114.902344 395.234375 108.890625 387.949219 108.761719 C 380.664062 108.632812 374.652344 114.433594 374.523438 121.722656 C 374.394531 129.007812 380.199219 135.019531 387.484375 135.148438 C 394.769531 135.273438 400.78125 129.472656 400.910156 122.1875 Z M 400.910156 122.1875 " clip-rule="nonzero"/></clipPath><clipPath id="518824709a"><path d="M 400 132 L 427 132 L 427 159 L 400 159 Z M 400 132 " clip-rule="nonzero"/></clipPath><clipPath id="a27816b31c"><path d="M 431.988281 145.328125 L 413.546875 164.207031 L 394.671875 145.765625 L 413.113281 126.890625 Z M 431.988281 145.328125 " clip-rule="nonzero"/></clipPath><clipPath id="c8c0c05484"><path d="M 422.769531 154.765625 C 427.859375 149.554688 427.761719 141.203125 422.550781 136.109375 C 417.335938 131.015625 408.984375 131.113281 403.890625 136.328125 C 398.800781 141.539062 398.898438 149.894531 404.109375 154.984375 C 409.324219 160.078125 417.675781 159.980469 422.769531 154.765625 Z M 422.769531 154.765625 " clip-rule="nonzero"/></clipPath><clipPath id="990dc87a0d"><path d="M 370 162 L 398 162 L 398 189 L 370 189 Z M 370 162 " clip-rule="nonzero"/></clipPath><clipPath id="c253376dcf"><path d="M 402.8125 175.191406 L 384.375 194.070312 L 365.496094 175.628906 L 383.9375 156.753906 Z M 402.8125 175.191406 " clip-rule="nonzero"/></clipPath><clipPath id="d3da55af1c"><path d="M 393.59375 184.632812 C 398.6875 179.417969 398.589844 171.066406 393.375 165.972656 C 388.164062 160.882812 379.808594 160.980469 374.71875 166.191406 C 369.625 171.402344 369.722656 179.757812 374.9375 184.847656 C 380.148438 189.941406 388.5 189.84375 393.59375 184.632812 Z M 393.59375 184.632812 " clip-rule="nonzero"/></clipPath><clipPath id="80319f3737"><path d="M 330 196 L 358 196 L 358 223 L 330 223 Z M 330 196 " clip-rule="nonzero"/></clipPath><clipPath id="4b1c1fa26e"><path d="M 331.222656 196.292969 L 357.605469 196.761719 L 357.136719 223.144531 L 330.753906 222.679688 Z M 331.222656 196.292969 " clip-rule="nonzero"/></clipPath><clipPath id="9c23590c12"><path d="M 344.414062 196.527344 C 337.128906 196.398438 331.117188 202.199219 330.988281 209.484375 C 330.859375 216.773438 336.660156 222.78125 343.945312 222.910156 C 351.230469 223.039062 357.242188 217.238281 357.371094 209.953125 C 357.5 202.667969 351.699219 196.65625 344.414062 196.527344 Z M 344.414062 196.527344 " clip-rule="nonzero"/></clipPath><clipPath id="f3a8efbdf2"><path d="M 372 197 L 400 197 L 400 224 L 372 224 Z M 372 197 " clip-rule="nonzero"/></clipPath><clipPath id="a7fbe39e9d"><path d="M 372.964844 197.03125 L 399.347656 197.5 L 398.882812 223.882812 L 372.496094 223.417969 Z M 372.964844 197.03125 " clip-rule="nonzero"/></clipPath><clipPath id="68a8776036"><path d="M 386.15625 197.265625 C 378.871094 197.136719 372.859375 202.9375 372.730469 210.222656 C 372.601562 217.511719 378.402344 223.519531 385.6875 223.648438 C 392.976562 223.777344 398.984375 217.976562 399.113281 210.691406 C 399.242188 203.40625 393.441406 197.394531 386.15625 197.265625 Z M 386.15625 197.265625 " clip-rule="nonzero"/></clipPath><clipPath id="0b9debfac6"><path d="M 269.726562 44.476562 L 289.195312 44.476562 L 289.195312 63.949219 L 269.726562 63.949219 Z M 269.726562 44.476562 " clip-rule="nonzero"/></clipPath><clipPath id="4816052bfe"><path d="M 279.460938 44.476562 C 274.085938 44.476562 269.726562 48.835938 269.726562 54.210938 C 269.726562 59.589844 274.085938 63.949219 279.460938 63.949219 C 284.835938 63.949219 289.195312 59.589844 289.195312 54.210938 C 289.195312 48.835938 284.835938 44.476562 279.460938 44.476562 Z M 279.460938 44.476562 " clip-rule="nonzero"/></clipPath><clipPath id="d72ed3d70c"><path d="M 345.582031 40.554688 L 365.050781 40.554688 L 365.050781 60.023438 L 345.582031 60.023438 Z M 345.582031 40.554688 " clip-rule="nonzero"/></clipPath><clipPath id="0c2c8508c6"><path d="M 355.316406 40.554688 C 349.941406 40.554688 345.582031 44.914062 345.582031 50.289062 C 345.582031 55.664062 349.941406 60.023438 355.316406 60.023438 C 360.691406 60.023438 365.050781 55.664062 365.050781 50.289062 C 365.050781 44.914062 360.691406 40.554688 355.316406 40.554688 Z M 355.316406 40.554688 " clip-rule="nonzero"/></clipPath><clipPath id="8238e201a1"><path d="M 401.152344 91.347656 L 420.621094 91.347656 L 420.621094 110.816406 L 401.152344 110.816406 Z M 401.152344 91.347656 " clip-rule="nonzero"/></clipPath><clipPath id="0cf51317ae"><path d="M 410.886719 91.347656 C 405.511719 91.347656 401.152344 95.707031 401.152344 101.082031 C 401.152344 106.460938 405.511719 110.816406 410.886719 110.816406 C 416.261719 110.816406 420.621094 106.460938 420.621094 101.082031 C 420.621094 95.707031 416.261719 91.347656 410.886719 91.347656 Z M 410.886719 91.347656 " clip-rule="nonzero"/></clipPath><clipPath id="b61e72a4b1"><path d="M 405.625 167.445312 L 425.09375 167.445312 L 425.09375 186.917969 L 405.625 186.917969 Z M 405.625 167.445312 " clip-rule="nonzero"/></clipPath><clipPath id="9158fbf6ea"><path d="M 415.359375 167.445312 C 409.984375 167.445312 405.625 171.804688 405.625 177.183594 C 405.625 182.558594 409.984375 186.917969 415.359375 186.917969 C 420.738281 186.917969 425.09375 182.558594 425.09375 177.183594 C 425.09375 171.804688 420.738281 167.445312 415.359375 167.445312 Z M 415.359375 167.445312 " clip-rule="nonzero"/></clipPath><clipPath id="b4d826360b"><path d="M 354.832031 223.882812 L 374.300781 223.882812 L 374.300781 243.351562 L 354.832031 243.351562 Z M 354.832031 223.882812 " clip-rule="nonzero"/></clipPath><clipPath id="4dc1228ad5"><path d="M 364.566406 223.882812 C 359.1875 223.882812 354.832031 228.242188 354.832031 233.617188 C 354.832031 238.996094 359.1875 243.351562 364.566406 243.351562 C 369.941406 243.351562 374.300781 238.996094 374.300781 233.617188 C 374.300781 228.242188 369.941406 223.882812 364.566406 223.882812 Z M 364.566406 223.882812 " clip-rule="nonzero"/></clipPath><clipPath id="9f4b1def59"><path d="M 279.460938 226.117188 L 298.929688 226.117188 L 298.929688 245.589844 L 279.460938 245.589844 Z M 279.460938 226.117188 " clip-rule="nonzero"/></clipPath><clipPath id="4d762b5769"><path d="M 289.195312 226.117188 C 283.820312 226.117188 279.460938 230.476562 279.460938 235.855469 C 279.460938 241.230469 283.820312 245.589844 289.195312 245.589844 C 294.574219 245.589844 298.929688 241.230469 298.929688 235.855469 C 298.929688 230.476562 294.574219 226.117188 289.195312 226.117188 Z M 289.195312 226.117188 " clip-rule="nonzero"/></clipPath><clipPath id="405e740a56"><path d="M 297 213 L 313 213 L 313 229 L 297 229 Z M 297 213 " clip-rule="nonzero"/></clipPath><clipPath id="be56c27e8b"><path d="M 297.042969 217.300781 L 301.285156 213.054688 L 312.953125 224.722656 L 308.710938 228.964844 Z M 297.042969 217.300781 " clip-rule="nonzero"/></clipPath><clipPath id="2eab17527c"><path d="M 297.042969 217.300781 L 301.285156 213.054688 L 312.953125 224.722656 L 308.710938 228.964844 Z M 297.042969 217.300781 " clip-rule="nonzero"/></clipPath><clipPath id="c3ddfc8a8f"><path d="M 356.636719 207.632812 L 373.136719 207.632812 L 373.136719 213.632812 L 356.636719 213.632812 Z M 356.636719 207.632812 " clip-rule="nonzero"/></clipPath><clipPath id="12330ef860"><path d="M 391 153 L 408 153 L 408 169 L 391 169 Z M 391 153 " clip-rule="nonzero"/></clipPath><clipPath id="94846b5c66"><path d="M 395.644531 169.234375 L 391.398438 164.992188 L 403.066406 153.324219 L 407.308594 157.566406 Z M 395.644531 169.234375 " clip-rule="nonzero"/></clipPath><clipPath id="2564bab86b"><path d="M 395.644531 169.234375 L 391.398438 164.992188 L 403.066406 153.324219 L 407.308594 157.566406 Z M 395.644531 169.234375 " clip-rule="nonzero"/></clipPath><clipPath id="c93c45af29"><path d="M 391 153 L 408 153 L 408 170 L 391 170 Z M 391 153 " clip-rule="nonzero"/></clipPath><clipPath id="32c3860d64"><path d="M 395.644531 169.234375 L 391.398438 164.992188 L 403.066406 153.324219 L 407.308594 157.566406 Z M 395.644531 169.234375 " clip-rule="nonzero"/></clipPath><clipPath id="1fe8960c30"><path d="M 395.644531 169.234375 L 391.398438 164.992188 L 403.066406 153.324219 L 407.308594 157.566406 Z M 395.644531 169.234375 " clip-rule="nonzero"/></clipPath><clipPath id="64fc1b9f5f"><path d="M 385.640625 92.996094 L 391.640625 92.996094 L 391.640625 109.496094 L 385.640625 109.496094 Z M 385.640625 92.996094 " clip-rule="nonzero"/></clipPath><clipPath id="1e98685052"><path d="M 271.046875 74.316406 L 287.546875 74.316406 L 287.546875 80.316406 L 271.046875 80.316406 Z M 271.046875 74.316406 " clip-rule="nonzero"/></clipPath><clipPath id="77548916a8"><path d="M 330 58 L 347 58 L 347 75 L 330 75 Z M 330 58 " clip-rule="nonzero"/></clipPath><clipPath id="0d12221f75"><path d="M 330.675781 63.367188 L 334.769531 58.980469 L 346.832031 70.238281 L 342.738281 74.625 Z M 330.675781 63.367188 " clip-rule="nonzero"/></clipPath><clipPath id="495bb9dc47"><path d="M 330.675781 63.367188 L 334.769531 58.980469 L 346.832031 70.238281 L 342.738281 74.625 Z M 330.675781 63.367188 " clip-rule="nonzero"/></clipPath></defs><g fill="#075e54" fill-opacity="1"><g transform="translate(75.486856, 191.101783)"><g><path d="M 15.09375 -4.296875 C 15.09375 -3.410156 14.863281 -2.628906 14.40625 -1.953125 C 13.957031 -1.273438 13.242188 -0.742188 12.265625 -0.359375 C 11.296875 0.0234375 10.003906 0.21875 8.390625 0.21875 C 6.515625 0.21875 5.007812 -0.0234375 3.875 -0.515625 C 2.75 -1.015625 1.929688 -1.726562 1.421875 -2.65625 C 0.921875 -3.582031 0.671875 -4.707031 0.671875 -6.03125 L 4.203125 -6.03125 C 4.203125 -4.832031 4.53125 -4.003906 5.1875 -3.546875 C 5.851562 -3.097656 6.960938 -2.875 8.515625 -2.875 C 9.648438 -2.875 10.4375 -3 10.875 -3.25 C 11.320312 -3.507812 11.546875 -3.84375 11.546875 -4.25 C 11.546875 -4.632812 11.351562 -4.957031 10.96875 -5.21875 C 10.582031 -5.476562 10.078125 -5.722656 9.453125 -5.953125 C 8.828125 -6.179688 8.128906 -6.421875 7.359375 -6.671875 C 6.523438 -6.953125 5.742188 -7.226562 5.015625 -7.5 C 4.296875 -7.769531 3.660156 -8.085938 3.109375 -8.453125 C 2.566406 -8.828125 2.140625 -9.269531 1.828125 -9.78125 C 1.523438 -10.300781 1.375 -10.945312 1.375 -11.71875 C 1.375 -13.050781 1.894531 -14.070312 2.9375 -14.78125 C 3.976562 -15.488281 5.503906 -15.84375 7.515625 -15.84375 C 9.109375 -15.84375 10.414062 -15.59375 11.4375 -15.09375 C 12.46875 -14.601562 13.226562 -13.941406 13.71875 -13.109375 C 14.207031 -12.273438 14.453125 -11.335938 14.453125 -10.296875 L 10.90625 -10.296875 C 10.90625 -10.929688 10.753906 -11.425781 10.453125 -11.78125 C 10.160156 -12.132812 9.757812 -12.378906 9.25 -12.515625 C 8.738281 -12.660156 8.160156 -12.734375 7.515625 -12.734375 C 6.710938 -12.734375 6.078125 -12.640625 5.609375 -12.453125 C 5.148438 -12.273438 4.921875 -11.988281 4.921875 -11.59375 C 4.921875 -11.351562 4.984375 -11.148438 5.109375 -10.984375 C 5.242188 -10.828125 5.519531 -10.65625 5.9375 -10.46875 C 6.351562 -10.28125 6.972656 -10.046875 7.796875 -9.765625 C 8.367188 -9.578125 8.984375 -9.367188 9.640625 -9.140625 C 10.304688 -8.910156 10.957031 -8.648438 11.59375 -8.359375 C 12.238281 -8.078125 12.820312 -7.742188 13.34375 -7.359375 C 13.875 -6.972656 14.296875 -6.523438 14.609375 -6.015625 C 14.929688 -5.515625 15.09375 -4.941406 15.09375 -4.296875 Z M 15.09375 -4.296875 "/></g></g></g><g fill="#075e54" fill-opacity="1"><g transform="translate(98.899826, 191.101783)"><g><path d="M 1.109375 -7.828125 C 1.109375 -9.347656 1.425781 -10.707031 2.0625 -11.90625 C 2.707031 -13.113281 3.625 -14.070312 4.8125 -14.78125 C 6.007812 -15.488281 7.429688 -15.84375 9.078125 -15.84375 C 10.734375 -15.84375 12.148438 -15.488281 13.328125 -14.78125 C 14.515625 -14.070312 15.425781 -13.113281 16.0625 -11.90625 C 16.707031 -10.707031 17.03125 -9.347656 17.03125 -7.828125 C 17.03125 -6.296875 16.707031 -4.925781 16.0625 -3.71875 C 15.425781 -2.507812 14.515625 -1.550781 13.328125 -0.84375 C 12.148438 -0.132812 10.734375 0.21875 9.078125 0.21875 C 7.429688 0.21875 6.007812 -0.132812 4.8125 -0.84375 C 3.625 -1.550781 2.707031 -2.507812 2.0625 -3.71875 C 1.425781 -4.925781 1.109375 -6.296875 1.109375 -7.828125 Z M 4.65625 -7.828125 C 4.65625 -6.316406 5.023438 -5.113281 5.765625 -4.21875 C 6.503906 -3.320312 7.609375 -2.875 9.078125 -2.875 C 10.554688 -2.875 11.660156 -3.320312 12.390625 -4.21875 C 13.128906 -5.113281 13.5 -6.316406 13.5 -7.828125 C 13.5 -9.316406 13.128906 -10.503906 12.390625 -11.390625 C 11.660156 -12.285156 10.554688 -12.734375 9.078125 -12.734375 C 7.609375 -12.734375 6.503906 -12.285156 5.765625 -11.390625 C 5.023438 -10.503906 4.65625 -9.316406 4.65625 -7.828125 Z M 4.65625 -7.828125 "/></g></g></g><g fill="#075e54" fill-opacity="1"><g transform="translate(124.704816, 191.101783)"><g><path d="M 12.46875 0 L 3.234375 0.21875 C 2.628906 0.238281 2.160156 0.0859375 1.828125 -0.234375 C 1.492188 -0.566406 1.328125 -1.035156 1.328125 -1.640625 L 1.328125 -15.625 L 4.875 -15.625 L 4.875 -2.875 L 12.46875 -3.109375 Z M 12.46875 0 "/></g></g></g><g fill="#075e54" fill-opacity="1"><g transform="translate(145.282781, 191.101783)"><g><path d="M 0.890625 -5.8125 L 0.890625 -15.625 L 4.4375 -15.625 L 4.4375 -7.375 C 4.4375 -6.6875 4.46875 -6.0625 4.53125 -5.5 C 4.59375 -4.945312 4.734375 -4.472656 4.953125 -4.078125 C 5.179688 -3.691406 5.53125 -3.394531 6 -3.1875 C 6.476562 -2.976562 7.125 -2.875 7.9375 -2.875 C 9.03125 -2.875 9.820312 -3.054688 10.3125 -3.421875 C 10.8125 -3.785156 11.125 -4.300781 11.25 -4.96875 C 11.382812 -5.644531 11.453125 -6.445312 11.453125 -7.375 L 11.453125 -15.625 L 15 -15.625 L 15 -5.8125 C 15 -3.851562 14.398438 -2.359375 13.203125 -1.328125 C 12.003906 -0.296875 10.25 0.21875 7.9375 0.21875 C 5.613281 0.21875 3.859375 -0.296875 2.671875 -1.328125 C 1.484375 -2.359375 0.890625 -3.851562 0.890625 -5.8125 Z M 0.890625 -5.8125 "/></g></g></g><g fill="#075e54" fill-opacity="1"><g transform="translate(168.828636, 191.101783)"><g><path d="M 0.671875 -15.625 L 14.421875 -15.625 L 14.421875 -12.515625 L 9.328125 -12.515625 L 9.328125 0 L 5.78125 0 L 5.78125 -12.515625 L 0.671875 -12.515625 Z M 0.671875 -15.625 "/></g></g></g><g fill="#075e54" fill-opacity="1"><g transform="translate(191.577144, 191.101783)"><g><path d="M 11.75 -15.625 L 11.75 -12.515625 L 8.203125 -12.515625 L 8.203125 -3.109375 L 11.75 -3.109375 L 11.75 0 L 1.109375 0 L 1.109375 -3.109375 L 4.65625 -3.109375 L 4.65625 -12.515625 L 1.109375 -12.515625 L 1.109375 -15.625 Z M 11.75 -15.625 "/></g></g></g><g fill="#075e54" fill-opacity="1"><g transform="translate(212.088638, 191.101783)"><g><path d="M 1.109375 -7.828125 C 1.109375 -9.347656 1.425781 -10.707031 2.0625 -11.90625 C 2.707031 -13.113281 3.625 -14.070312 4.8125 -14.78125 C 6.007812 -15.488281 7.429688 -15.84375 9.078125 -15.84375 C 10.734375 -15.84375 12.148438 -15.488281 13.328125 -14.78125 C 14.515625 -14.070312 15.425781 -13.113281 16.0625 -11.90625 C 16.707031 -10.707031 17.03125 -9.347656 17.03125 -7.828125 C 17.03125 -6.296875 16.707031 -4.925781 16.0625 -3.71875 C 15.425781 -2.507812 14.515625 -1.550781 13.328125 -0.84375 C 12.148438 -0.132812 10.734375 0.21875 9.078125 0.21875 C 7.429688 0.21875 6.007812 -0.132812 4.8125 -0.84375 C 3.625 -1.550781 2.707031 -2.507812 2.0625 -3.71875 C 1.425781 -4.925781 1.109375 -6.296875 1.109375 -7.828125 Z M 4.65625 -7.828125 C 4.65625 -6.316406 5.023438 -5.113281 5.765625 -4.21875 C 6.503906 -3.320312 7.609375 -2.875 9.078125 -2.875 C 10.554688 -2.875 11.660156 -3.320312 12.390625 -4.21875 C 13.128906 -5.113281 13.5 -6.316406 13.5 -7.828125 C 13.5 -9.316406 13.128906 -10.503906 12.390625 -11.390625 C 11.660156 -12.285156 10.554688 -12.734375 9.078125 -12.734375 C 7.609375 -12.734375 6.503906 -12.285156 5.765625 -11.390625 C 5.023438 -10.503906 4.65625 -9.316406 4.65625 -7.828125 Z M 4.65625 -7.828125 "/></g></g></g><g fill="#075e54" fill-opacity="1"><g transform="translate(237.893625, 191.101783)"><g><path d="M 13.25 -3.109375 L 13.25 -15.625 L 16.796875 -15.625 L 16.796875 0 L 9.8125 0 L 5.875 -12.515625 L 4.875 -12.515625 L 4.875 0 L 1.328125 0 L 1.328125 -15.625 L 8.3125 -15.625 L 12.25 -3.109375 Z M 13.25 -3.109375 "/></g></g></g><g fill="#075e54" fill-opacity="1"><g transform="translate(263.676483, 191.101783)"><g><path d="M 15.09375 -4.296875 C 15.09375 -3.410156 14.863281 -2.628906 14.40625 -1.953125 C 13.957031 -1.273438 13.242188 -0.742188 12.265625 -0.359375 C 11.296875 0.0234375 10.003906 0.21875 8.390625 0.21875 C 6.515625 0.21875 5.007812 -0.0234375 3.875 -0.515625 C 2.75 -1.015625 1.929688 -1.726562 1.421875 -2.65625 C 0.921875 -3.582031 0.671875 -4.707031 0.671875 -6.03125 L 4.203125 -6.03125 C 4.203125 -4.832031 4.53125 -4.003906 5.1875 -3.546875 C 5.851562 -3.097656 6.960938 -2.875 8.515625 -2.875 C 9.648438 -2.875 10.4375 -3 10.875 -3.25 C 11.320312 -3.507812 11.546875 -3.84375 11.546875 -4.25 C 11.546875 -4.632812 11.351562 -4.957031 10.96875 -5.21875 C 10.582031 -5.476562 10.078125 -5.722656 9.453125 -5.953125 C 8.828125 -6.179688 8.128906 -6.421875 7.359375 -6.671875 C 6.523438 -6.953125 5.742188 -7.226562 5.015625 -7.5 C 4.296875 -7.769531 3.660156 -8.085938 3.109375 -8.453125 C 2.566406 -8.828125 2.140625 -9.269531 1.828125 -9.78125 C 1.523438 -10.300781 1.375 -10.945312 1.375 -11.71875 C 1.375 -13.050781 1.894531 -14.070312 2.9375 -14.78125 C 3.976562 -15.488281 5.503906 -15.84375 7.515625 -15.84375 C 9.109375 -15.84375 10.414062 -15.59375 11.4375 -15.09375 C 12.46875 -14.601562 13.226562 -13.941406 13.71875 -13.109375 C 14.207031 -12.273438 14.453125 -11.335938 14.453125 -10.296875 L 10.90625 -10.296875 C 10.90625 -10.929688 10.753906 -11.425781 10.453125 -11.78125 C 10.160156 -12.132812 9.757812 -12.378906 9.25 -12.515625 C 8.738281 -12.660156 8.160156 -12.734375 7.515625 -12.734375 C 6.710938 -12.734375 6.078125 -12.640625 5.609375 -12.453125 C 5.148438 -12.273438 4.921875 -11.988281 4.921875 -11.59375 C 4.921875 -11.351562 4.984375 -11.148438 5.109375 -10.984375 C 5.242188 -10.828125 5.519531 -10.65625 5.9375 -10.46875 C 6.351562 -10.28125 6.972656 -10.046875 7.796875 -9.765625 C 8.367188 -9.578125 8.984375 -9.367188 9.640625 -9.140625 C 10.304688 -8.910156 10.957031 -8.648438 11.59375 -8.359375 C 12.238281 -8.078125 12.820312 -7.742188 13.34375 -7.359375 C 13.875 -6.972656 14.296875 -6.523438 14.609375 -6.015625 C 14.929688 -5.515625 15.09375 -4.941406 15.09375 -4.296875 Z M 15.09375 -4.296875 "/></g></g></g><g fill="#075e54" fill-opacity="1"><g transform="translate(-2.196338, 161.068734)"><g><path d="M 22.703125 -51.140625 C 25.941406 -51.140625 28.9375 -50.921875 31.6875 -50.484375 C 34.445312 -50.046875 36.851562 -49.207031 38.90625 -47.96875 C 40.96875 -46.738281 42.578125 -44.9375 43.734375 -42.5625 C 44.898438 -40.195312 45.484375 -37.082031 45.484375 -33.21875 C 45.484375 -29.351562 44.898438 -26.222656 43.734375 -23.828125 C 42.578125 -21.429688 40.96875 -19.613281 38.90625 -18.375 C 36.851562 -17.144531 34.445312 -16.3125 31.6875 -15.875 C 28.9375 -15.445312 25.941406 -15.234375 22.703125 -15.234375 L 15.953125 -15.234375 L 15.953125 0 L 4.359375 0 L 4.359375 -51.140625 Z M 15.953125 -25.390625 L 23.421875 -25.390625 C 25.742188 -25.390625 27.675781 -25.546875 29.21875 -25.859375 C 30.769531 -26.171875 31.929688 -26.882812 32.703125 -28 C 33.484375 -29.113281 33.875 -30.851562 33.875 -33.21875 C 33.875 -35.582031 33.484375 -37.304688 32.703125 -38.390625 C 31.929688 -39.484375 30.769531 -40.1875 29.21875 -40.5 C 27.675781 -40.820312 25.742188 -40.984375 23.421875 -40.984375 L 15.953125 -40.984375 Z M 15.953125 -25.390625 "/></g></g></g><g fill="#075e54" fill-opacity="1"><g transform="translate(46.178481, 161.068734)"><g><path d="M 17.921875 -40.25 C 15.785156 -40.25 14.113281 -40.742188 12.90625 -41.734375 C 11.695312 -42.734375 11.09375 -44.175781 11.09375 -46.0625 C 11.09375 -47.894531 11.695312 -49.316406 12.90625 -50.328125 C 14.113281 -51.347656 15.785156 -51.859375 17.921875 -51.859375 C 20.046875 -51.859375 21.734375 -51.347656 22.984375 -50.328125 C 24.242188 -49.316406 24.875 -47.894531 24.875 -46.0625 C 24.875 -44.175781 24.242188 -42.734375 22.984375 -41.734375 C 21.734375 -40.742188 20.046875 -40.25 17.921875 -40.25 Z M 34.8125 0 L 2.90625 0 L 2.90625 -10.15625 L 13.265625 -10.15625 L 13.265625 -26.90625 L 4.359375 -26.46875 L 4.359375 -36.625 L 18.125 -37.359375 C 20.15625 -37.453125 21.710938 -36.96875 22.796875 -35.90625 C 23.890625 -34.84375 24.4375 -33.296875 24.4375 -31.265625 L 24.4375 -10.15625 L 34.8125 -10.15625 Z M 34.8125 0 "/></g></g></g><g fill="#075e54" fill-opacity="1"><g transform="translate(82.441463, 161.068734)"><g><path d="M 26.40625 -27.203125 C 24.320312 -27.203125 22.492188 -26.773438 20.921875 -25.921875 C 19.347656 -25.078125 18.125 -23.664062 17.25 -21.6875 C 16.382812 -19.707031 15.953125 -17 15.953125 -13.5625 L 15.953125 0 L 4.359375 0 L 4.359375 -36.625 L 15.953125 -36.625 L 15.953125 -32.203125 L 13.78125 -25.671875 L 16.6875 -25.671875 C 17.40625 -28.960938 18.910156 -31.734375 21.203125 -33.984375 C 23.503906 -36.234375 26.613281 -37.359375 30.53125 -37.359375 C 35.226562 -37.359375 38.90625 -35.84375 41.5625 -32.8125 C 44.21875 -29.789062 45.546875 -25.453125 45.546875 -19.796875 L 45.546875 0 L 33.9375 0 L 33.9375 -17.984375 C 33.9375 -21.328125 33.378906 -23.695312 32.265625 -25.09375 C 31.160156 -26.5 29.207031 -27.203125 26.40625 -27.203125 Z M 26.40625 -27.203125 "/></g></g></g><g fill="#075e54" fill-opacity="1"><g transform="translate(131.614057, 161.068734)"><g><path d="M 26.40625 -27.203125 C 24.320312 -27.203125 22.492188 -26.773438 20.921875 -25.921875 C 19.347656 -25.078125 18.125 -23.664062 17.25 -21.6875 C 16.382812 -19.707031 15.953125 -17 15.953125 -13.5625 L 15.953125 0 L 4.359375 0 L 4.359375 -36.625 L 15.953125 -36.625 L 15.953125 -32.203125 L 13.78125 -25.671875 L 16.6875 -25.671875 C 17.40625 -28.960938 18.910156 -31.734375 21.203125 -33.984375 C 23.503906 -36.234375 26.613281 -37.359375 30.53125 -37.359375 C 35.226562 -37.359375 38.90625 -35.84375 41.5625 -32.8125 C 44.21875 -29.789062 45.546875 -25.453125 45.546875 -19.796875 L 45.546875 0 L 33.9375 0 L 33.9375 -17.984375 C 33.9375 -21.328125 33.378906 -23.695312 32.265625 -25.09375 C 31.160156 -26.5 29.207031 -27.203125 26.40625 -27.203125 Z M 26.40625 -27.203125 "/></g></g></g><g fill="#075e54" fill-opacity="1"><g transform="translate(180.78665, 161.068734)"><g><path d="M 2.90625 -10.015625 C 2.90625 -13.148438 3.988281 -15.660156 6.15625 -17.546875 C 8.332031 -19.429688 12.128906 -20.765625 17.546875 -21.546875 L 29.078125 -23.140625 C 29.078125 -24.640625 28.484375 -25.8125 27.296875 -26.65625 C 26.117188 -27.5 24.273438 -27.921875 21.765625 -27.921875 C 19.441406 -27.921875 17.648438 -27.460938 16.390625 -26.546875 C 15.128906 -25.628906 14.5 -24.320312 14.5 -22.625 L 3.625 -22.625 C 3.625 -25.71875 4.421875 -28.363281 6.015625 -30.5625 C 7.609375 -32.769531 9.785156 -34.453125 12.546875 -35.609375 C 15.304688 -36.773438 18.378906 -37.359375 21.765625 -37.359375 C 25.148438 -37.359375 28.265625 -36.785156 31.109375 -35.640625 C 33.960938 -34.503906 36.269531 -32.691406 38.03125 -30.203125 C 39.800781 -27.710938 40.6875 -24.460938 40.6875 -20.453125 L 40.6875 -10.15625 L 45.984375 -10.15625 L 45.984375 0 L 37.9375 0 C 36.195312 0 34.851562 -0.46875 33.90625 -1.40625 C 32.96875 -2.351562 32.5 -3.695312 32.5 -5.4375 L 32.5 -6.171875 L 34.3125 -10.515625 L 31.40625 -10.515625 C 30.96875 -8.484375 30.203125 -6.617188 29.109375 -4.921875 C 28.023438 -3.234375 26.46875 -1.867188 24.4375 -0.828125 C 22.40625 0.203125 19.675781 0.71875 16.25 0.71875 C 13.394531 0.71875 11.082031 0.347656 9.3125 -0.390625 C 7.550781 -1.140625 6.210938 -2.082031 5.296875 -3.21875 C 4.378906 -4.363281 3.75 -5.550781 3.40625 -6.78125 C 3.070312 -8.007812 2.90625 -9.085938 2.90625 -10.015625 Z M 14.5 -12.1875 C 14.5 -11.125 14.921875 -10.394531 15.765625 -10 C 16.617188 -9.613281 17.53125 -9.421875 18.5 -9.421875 C 21.6875 -9.421875 24.242188 -10.0625 26.171875 -11.34375 C 28.109375 -12.625 29.078125 -14.378906 29.078125 -16.609375 L 19.734375 -15.296875 C 17.992188 -15.054688 16.6875 -14.742188 15.8125 -14.359375 C 14.9375 -13.972656 14.5 -13.25 14.5 -12.1875 Z M 14.5 -12.1875 "/></g></g></g><g fill="#075e54" fill-opacity="1"><g transform="translate(227.493363, 161.068734)"><g><path d="M 2.90625 -18.34375 C 2.90625 -22.40625 3.757812 -25.847656 5.46875 -28.671875 C 7.1875 -31.503906 9.546875 -33.660156 12.546875 -35.140625 C 15.546875 -36.617188 19.003906 -37.359375 22.921875 -37.359375 C 26.253906 -37.359375 29.382812 -36.765625 32.3125 -35.578125 C 35.238281 -34.390625 37.644531 -32.609375 39.53125 -30.234375 C 41.414062 -27.867188 42.429688 -24.945312 42.578125 -21.46875 L 30.96875 -21.46875 C 30.78125 -23.113281 29.972656 -24.476562 28.546875 -25.5625 C 27.117188 -26.65625 25.242188 -27.203125 22.921875 -27.203125 C 20.160156 -27.203125 18.066406 -26.425781 16.640625 -24.875 C 15.210938 -23.332031 14.5 -21.15625 14.5 -18.34375 C 14.5 -15.539062 15.210938 -13.351562 16.640625 -11.78125 C 18.066406 -10.207031 20.160156 -9.421875 22.921875 -9.421875 C 25.242188 -9.421875 27.117188 -9.960938 28.546875 -11.046875 C 29.972656 -12.140625 30.78125 -13.507812 30.96875 -15.15625 L 42.578125 -15.15625 C 42.429688 -11.675781 41.414062 -8.765625 39.53125 -6.421875 C 37.644531 -4.078125 35.238281 -2.300781 32.3125 -1.09375 C 29.382812 0.113281 26.253906 0.71875 22.921875 0.71875 C 19.003906 0.71875 15.546875 -0.015625 12.546875 -1.484375 C 9.546875 -2.960938 7.1875 -5.125 5.46875 -7.96875 C 3.757812 -10.820312 2.90625 -14.28125 2.90625 -18.34375 Z M 2.90625 -18.34375 "/></g></g></g><g fill="#075e54" fill-opacity="1"><g transform="translate(272.967136, 161.068734)"><g><path d="M 34.09375 0 L 2.171875 0 L 2.171875 -10.15625 L 12.328125 -10.15625 L 12.328125 -43.59375 L 3.625 -43.15625 L 3.625 -53.3125 L 17.625 -53.8125 C 19.65625 -53.914062 21.210938 -53.429688 22.296875 -52.359375 C 23.390625 -51.296875 23.9375 -49.75 23.9375 -47.71875 L 23.9375 -10.15625 L 34.09375 -10.15625 Z M 34.09375 0 "/></g></g></g><g fill="#075e54" fill-opacity="1"><g transform="translate(308.504848, 161.068734)"><g><path d="M 2.90625 -18.78125 C 2.90625 -22.65625 3.722656 -25.976562 5.359375 -28.75 C 7.003906 -31.53125 9.273438 -33.660156 12.171875 -35.140625 C 15.078125 -36.617188 18.414062 -37.359375 22.1875 -37.359375 C 26.007812 -37.359375 29.367188 -36.644531 32.265625 -35.21875 C 35.171875 -33.789062 37.445312 -31.742188 39.09375 -29.078125 C 40.738281 -26.421875 41.5625 -23.234375 41.5625 -19.515625 L 41.5625 -15.890625 L 13.78125 -15.890625 C 13.78125 -13.804688 14.566406 -12.085938 16.140625 -10.734375 C 17.710938 -9.378906 20.140625 -8.703125 23.421875 -8.703125 C 25.453125 -8.703125 27.179688 -9.0625 28.609375 -9.78125 C 30.035156 -10.507812 30.921875 -11.550781 31.265625 -12.90625 L 42.859375 -12.90625 C 42.671875 -11.601562 42.148438 -10.164062 41.296875 -8.59375 C 40.453125 -7.019531 39.234375 -5.519531 37.640625 -4.09375 C 36.046875 -2.664062 34.078125 -1.503906 31.734375 -0.609375 C 29.390625 0.273438 26.617188 0.71875 23.421875 0.71875 C 18.734375 0.71875 14.878906 -0.1875 11.859375 -2 C 8.835938 -3.8125 6.585938 -6.203125 5.109375 -9.171875 C 3.640625 -12.148438 2.90625 -15.351562 2.90625 -18.78125 Z M 13.78125 -22.40625 L 30.6875 -22.40625 C 30.6875 -23.8125 30.078125 -25.082031 28.859375 -26.21875 C 27.648438 -27.351562 25.425781 -27.921875 22.1875 -27.921875 C 18.945312 -27.921875 16.734375 -27.351562 15.546875 -26.21875 C 14.367188 -25.082031 13.78125 -23.8125 13.78125 -22.40625 Z M 13.78125 -22.40625 "/></g></g></g><g clip-path="url(#978ced07a2)"><g clip-path="url(#31fc248137)"><g clip-path="url(#afea6e4225)"><path fill="#25d366" d="M 324.820312 33.734375 L 343.148438 52.71875 L 324.160156 71.046875 L 305.835938 52.058594 Z M 324.820312 33.734375 " fill-opacity="1" fill-rule="nonzero"/></g></g></g><g clip-path="url(#f2af6adc3d)"><g clip-path="url(#37d702b1b3)"><g clip-path="url(#6b41a7267b)"><path fill="#25d366" d="M 354.164062 62.605469 L 372.492188 81.589844 L 353.503906 99.917969 L 335.179688 80.929688 Z M 354.164062 62.605469 " fill-opacity="1" fill-rule="nonzero"/></g></g></g><g clip-path="url(#050f87c036)"><g clip-path="url(#9a6d2e5e45)"><path fill="#25d366" d="M 245.300781 63.949219 L 271.6875 63.949219 L 271.6875 90.335938 L 245.300781 90.335938 Z M 245.300781 63.949219 " fill-opacity="1" fill-rule="nonzero"/></g></g><g clip-path="url(#a27b1754ee)"><g clip-path="url(#99bcb04ca1)"><path fill="#25d366" d="M 287.046875 63.949219 L 313.4375 63.949219 L 313.4375 90.335938 L 287.046875 90.335938 Z M 287.046875 63.949219 " fill-opacity="1" fill-rule="nonzero"/></g></g><g clip-path="url(#5419a0e1c4)"><g clip-path="url(#5ebf1f56b6)"><g clip-path="url(#a87598ed34)"><path fill="#25d366" d="M 291.667969 186.917969 L 309.992188 205.90625 L 291.007812 224.230469 L 272.679688 205.246094 Z M 291.667969 186.917969 " fill-opacity="1" fill-rule="nonzero"/></g></g></g><g clip-path="url(#0e883640b3)"><g clip-path="url(#950c5d8d74)"><g clip-path="url(#64611f40b9)"><path fill="#25d366" d="M 320.660156 216.957031 L 338.988281 235.945312 L 320.003906 254.269531 L 301.675781 235.285156 Z M 320.660156 216.957031 " fill-opacity="1" fill-rule="nonzero"/></g></g></g><g clip-path="url(#252a39dff1)"><g clip-path="url(#12c4f67b2e)"><g clip-path="url(#4b676d9709)"><path fill="#25d366" d="M 401.878906 67.253906 L 401.414062 93.636719 L 375.027344 93.171875 L 375.496094 66.785156 Z M 401.878906 67.253906 " fill-opacity="1" fill-rule="nonzero"/></g></g></g><g clip-path="url(#521057ff67)"><g clip-path="url(#ea7cceb472)"><g clip-path="url(#7c1cebd60b)"><path fill="#25d366" d="M 401.140625 108.996094 L 400.675781 135.378906 L 374.289062 134.914062 L 374.757812 108.527344 Z M 401.140625 108.996094 " fill-opacity="1" fill-rule="nonzero"/></g></g></g><g clip-path="url(#518824709a)"><g clip-path="url(#a27816b31c)"><g clip-path="url(#c8c0c05484)"><path fill="#25d366" d="M 431.988281 145.328125 L 413.546875 164.207031 L 394.671875 145.765625 L 413.113281 126.890625 Z M 431.988281 145.328125 " fill-opacity="1" fill-rule="nonzero"/></g></g></g><g clip-path="url(#990dc87a0d)"><g clip-path="url(#c253376dcf)"><g clip-path="url(#d3da55af1c)"><path fill="#25d366" d="M 402.8125 175.191406 L 384.375 194.070312 L 365.496094 175.628906 L 383.9375 156.753906 Z M 402.8125 175.191406 " fill-opacity="1" fill-rule="nonzero"/></g></g></g><g clip-path="url(#80319f3737)"><g clip-path="url(#4b1c1fa26e)"><g clip-path="url(#9c23590c12)"><path fill="#25d366" d="M 331.222656 196.292969 L 357.605469 196.761719 L 357.136719 223.144531 L 330.753906 222.679688 Z M 331.222656 196.292969 " fill-opacity="1" fill-rule="nonzero"/></g></g></g><g clip-path="url(#f3a8efbdf2)"><g clip-path="url(#a7fbe39e9d)"><g clip-path="url(#68a8776036)"><path fill="#25d366" d="M 372.964844 197.03125 L 399.347656 197.5 L 398.882812 223.882812 L 372.496094 223.417969 Z M 372.964844 197.03125 " fill-opacity="1" fill-rule="nonzero"/></g></g></g><g clip-path="url(#0b9debfac6)"><g clip-path="url(#4816052bfe)"><path fill="#25d366" d="M 269.726562 44.476562 L 289.195312 44.476562 L 289.195312 63.949219 L 269.726562 63.949219 Z M 269.726562 44.476562 " fill-opacity="1" fill-rule="nonzero"/></g></g><g clip-path="url(#d72ed3d70c)"><g clip-path="url(#0c2c8508c6)"><path fill="#25d366" d="M 345.582031 40.554688 L 365.050781 40.554688 L 365.050781 60.023438 L 345.582031 60.023438 Z M 345.582031 40.554688 " fill-opacity="1" fill-rule="nonzero"/></g></g><g clip-path="url(#8238e201a1)"><g clip-path="url(#0cf51317ae)"><path fill="#25d366" d="M 401.152344 91.347656 L 420.621094 91.347656 L 420.621094 110.816406 L 401.152344 110.816406 Z M 401.152344 91.347656 " fill-opacity="1" fill-rule="nonzero"/></g></g><g clip-path="url(#b61e72a4b1)"><g clip-path="url(#9158fbf6ea)"><path fill="#25d366" d="M 405.625 167.445312 L 425.09375 167.445312 L 425.09375 186.917969 L 405.625 186.917969 Z M 405.625 167.445312 " fill-opacity="1" fill-rule="nonzero"/></g></g><g clip-path="url(#b4d826360b)"><g clip-path="url(#4dc1228ad5)"><path fill="#25d366" d="M 354.832031 223.882812 L 374.300781 223.882812 L 374.300781 243.351562 L 354.832031 243.351562 Z M 354.832031 223.882812 " fill-opacity="1" fill-rule="nonzero"/></g></g><g clip-path="url(#9f4b1def59)"><g clip-path="url(#4d762b5769)"><path fill="#25d366" d="M 279.460938 226.117188 L 298.929688 226.117188 L 298.929688 245.589844 L 279.460938 245.589844 Z M 279.460938 226.117188 " fill-opacity="1" fill-rule="nonzero"/></g></g><g clip-path="url(#405e740a56)"><g clip-path="url(#be56c27e8b)"><g clip-path="url(#2eab17527c)"><path fill="#25d366" d="M 301.449219 213.117188 L 297.351562 217.21875 C 297.277344 217.292969 297.316406 217.417969 297.417969 217.441406 C 298.957031 217.792969 301.5625 219.570312 304.117188 222.125 C 306.671875 224.679688 308.449219 227.285156 308.800781 228.824219 C 308.824219 228.925781 308.949219 228.964844 309.023438 228.890625 L 313.121094 224.789062 C 313.195312 224.71875 313.160156 224.589844 313.058594 224.570312 C 311.519531 224.214844 308.910156 222.4375 306.355469 219.886719 C 303.800781 217.332031 302.027344 214.722656 301.671875 213.183594 C 301.648438 213.082031 301.523438 213.046875 301.449219 213.117188 Z M 301.449219 213.117188 " fill-opacity="1" fill-rule="nonzero"/><path fill="#25d366" d="M 313.214844 224.882812 L 309.117188 228.984375 C 309.046875 229.050781 308.949219 229.078125 308.855469 229.050781 C 308.765625 229.023438 308.695312 228.949219 308.671875 228.855469 C 308.3125 227.285156 306.488281 224.683594 304.023438 222.21875 C 301.558594 219.753906 298.953125 217.929688 297.386719 217.570312 C 297.292969 217.546875 297.21875 217.476562 297.191406 217.382812 C 297.164062 217.292969 297.191406 217.191406 297.257812 217.125 L 301.355469 213.027344 C 301.425781 212.957031 301.523438 212.933594 301.617188 212.957031 C 301.710938 212.984375 301.78125 213.058594 301.800781 213.15625 C 302.160156 214.722656 303.984375 217.328125 306.449219 219.792969 C 308.914062 222.257812 311.519531 224.082031 313.085938 224.441406 C 313.179688 224.460938 313.257812 224.53125 313.28125 224.625 C 313.308594 224.71875 313.285156 224.816406 313.214844 224.882812 Z M 297.445312 217.3125 C 299.058594 217.679688 301.714844 219.535156 304.210938 222.03125 C 306.707031 224.527344 308.558594 227.183594 308.929688 228.796875 L 313.027344 224.699219 C 311.414062 224.328125 308.761719 222.476562 306.261719 219.976562 C 303.765625 217.480469 301.914062 214.824219 301.542969 213.214844 L 301.542969 213.210938 Z M 297.445312 217.3125 " fill-opacity="1" fill-rule="nonzero"/></g></g></g><g clip-path="url(#c3ddfc8a8f)"><path fill="#25d366" d="M 356.796875 207.558594 L 356.796875 213.355469 C 356.796875 213.460938 356.910156 213.523438 357 213.46875 C 358.335938 212.628906 361.4375 212.042969 365.050781 212.042969 C 368.660156 212.042969 371.761719 212.628906 373.101562 213.46875 C 373.1875 213.523438 373.304688 213.460938 373.304688 213.355469 L 373.304688 207.558594 C 373.304688 207.453125 373.1875 207.394531 373.101562 207.449219 C 371.761719 208.289062 368.660156 208.875 365.050781 208.875 C 361.4375 208.875 358.335938 208.289062 357 207.449219 C 356.910156 207.394531 356.796875 207.453125 356.796875 207.558594 Z M 356.796875 207.558594 " fill-opacity="1" fill-rule="nonzero"/><path fill="#25d366" d="M 373.433594 207.558594 L 373.433594 213.355469 C 373.433594 213.453125 373.382812 213.539062 373.300781 213.585938 C 373.214844 213.632812 373.113281 213.632812 373.03125 213.578125 C 371.667969 212.726562 368.535156 212.171875 365.050781 212.171875 C 361.566406 212.171875 358.433594 212.726562 357.070312 213.578125 C 356.988281 213.632812 356.886719 213.632812 356.800781 213.585938 C 356.71875 213.539062 356.664062 213.453125 356.664062 213.355469 L 356.664062 207.558594 C 356.664062 207.464844 356.71875 207.375 356.800781 207.328125 C 356.886719 207.28125 356.988281 207.285156 357.070312 207.335938 C 358.433594 208.191406 361.566406 208.742188 365.050781 208.742188 C 368.535156 208.742188 371.667969 208.191406 373.03125 207.335938 C 373.113281 207.285156 373.214844 207.28125 373.300781 207.328125 C 373.382812 207.375 373.433594 207.464844 373.433594 207.558594 Z M 356.929688 213.355469 C 358.332031 212.476562 361.519531 211.910156 365.050781 211.910156 C 368.582031 211.910156 371.769531 212.476562 373.167969 213.355469 L 373.171875 207.558594 C 371.769531 208.4375 368.582031 209.007812 365.050781 209.007812 C 361.519531 209.007812 358.332031 208.4375 356.929688 207.558594 Z M 356.929688 213.355469 " fill-opacity="1" fill-rule="nonzero"/></g><g clip-path="url(#12330ef860)"><g clip-path="url(#94846b5c66)"><g clip-path="url(#2564bab86b)"><path fill="#25d366" d="M 391.464844 164.828125 L 395.5625 168.925781 C 395.636719 169 395.761719 168.960938 395.785156 168.859375 C 396.136719 167.320312 397.914062 164.714844 400.46875 162.160156 C 403.023438 159.605469 405.628906 157.828125 407.167969 157.476562 C 407.269531 157.453125 407.308594 157.328125 407.234375 157.253906 L 403.132812 153.15625 C 403.0625 153.082031 402.933594 153.117188 402.914062 153.21875 C 402.558594 154.757812 400.78125 157.367188 398.230469 159.921875 C 395.675781 162.476562 393.066406 164.25 391.527344 164.605469 C 391.425781 164.628906 391.390625 164.753906 391.464844 164.828125 Z M 391.464844 164.828125 " fill-opacity="1" fill-rule="nonzero"/></g></g></g><g clip-path="url(#c93c45af29)"><g clip-path="url(#32c3860d64)"><g clip-path="url(#1fe8960c30)"><path fill="#25d366" d="M 403.226562 153.0625 L 407.328125 157.160156 C 407.394531 157.226562 407.421875 157.328125 407.394531 157.417969 C 407.367188 157.511719 407.292969 157.582031 407.199219 157.605469 C 405.628906 157.964844 403.027344 159.789062 400.5625 162.253906 C 398.097656 164.71875 396.273438 167.324219 395.914062 168.890625 C 395.890625 168.984375 395.820312 169.058594 395.726562 169.085938 C 395.636719 169.113281 395.535156 169.085938 395.46875 169.019531 L 391.371094 164.917969 C 391.300781 164.851562 391.277344 164.753906 391.300781 164.660156 C 391.328125 164.566406 391.402344 164.496094 391.5 164.476562 C 393.066406 164.117188 395.671875 162.292969 398.136719 159.828125 C 400.601562 157.363281 402.425781 154.757812 402.785156 153.191406 C 402.804688 153.097656 402.875 153.019531 402.96875 152.996094 C 403.0625 152.96875 403.160156 152.992188 403.226562 153.0625 Z M 395.65625 168.832031 C 396.023438 167.21875 397.878906 164.5625 400.375 162.066406 C 402.871094 159.570312 405.527344 157.714844 407.140625 157.347656 L 403.042969 153.25 C 402.671875 154.863281 400.820312 157.515625 398.320312 160.015625 C 395.824219 162.511719 393.167969 164.363281 391.558594 164.734375 L 391.554688 164.734375 Z M 395.65625 168.832031 " fill-opacity="1" fill-rule="nonzero"/></g></g></g><g clip-path="url(#64fc1b9f5f)"><path fill="#25d366" d="M 385.566406 109.335938 L 391.363281 109.335938 C 391.46875 109.335938 391.53125 109.21875 391.476562 109.132812 C 390.636719 107.792969 390.046875 104.695312 390.046875 101.082031 C 390.046875 97.46875 390.636719 94.367188 391.476562 93.03125 C 391.53125 92.941406 391.46875 92.828125 391.363281 92.828125 L 385.566406 92.828125 C 385.460938 92.828125 385.398438 92.941406 385.457031 93.03125 C 386.292969 94.367188 386.882812 97.46875 386.882812 101.082031 C 386.882812 104.695312 386.292969 107.792969 385.457031 109.132812 C 385.398438 109.21875 385.460938 109.335938 385.566406 109.335938 Z M 385.566406 109.335938 " fill-opacity="1" fill-rule="nonzero"/><path fill="#25d366" d="M 385.566406 92.695312 L 391.363281 92.695312 C 391.460938 92.695312 391.546875 92.75 391.59375 92.832031 C 391.640625 92.917969 391.636719 93.019531 391.585938 93.101562 C 390.734375 94.464844 390.179688 97.597656 390.179688 101.082031 C 390.179688 104.566406 390.734375 107.699219 391.585938 109.0625 C 391.636719 109.144531 391.640625 109.246094 391.59375 109.332031 C 391.546875 109.414062 391.460938 109.464844 391.363281 109.464844 L 385.566406 109.464844 C 385.472656 109.464844 385.382812 109.414062 385.335938 109.332031 C 385.289062 109.246094 385.292969 109.144531 385.34375 109.0625 C 386.199219 107.699219 386.75 104.566406 386.75 101.082031 C 386.75 97.597656 386.199219 94.464844 385.34375 93.101562 C 385.292969 93.019531 385.289062 92.917969 385.335938 92.832031 C 385.382812 92.75 385.472656 92.695312 385.566406 92.695312 Z M 391.363281 109.203125 C 390.484375 107.800781 389.917969 104.613281 389.917969 101.082031 C 389.917969 97.550781 390.484375 94.363281 391.363281 92.960938 L 385.566406 92.960938 C 386.445312 94.363281 387.015625 97.550781 387.015625 101.082031 C 387.015625 104.613281 386.445312 107.800781 385.566406 109.203125 Z M 391.363281 109.203125 " fill-opacity="1" fill-rule="nonzero"/></g><g clip-path="url(#1e98685052)"><path fill="#25d366" d="M 271.207031 74.242188 L 271.207031 80.042969 C 271.207031 80.144531 271.320312 80.207031 271.410156 80.152344 C 272.746094 79.3125 275.847656 78.726562 279.460938 78.726562 C 283.070312 78.726562 286.171875 79.3125 287.507812 80.152344 C 287.597656 80.207031 287.710938 80.144531 287.710938 80.042969 L 287.710938 74.242188 C 287.710938 74.140625 287.597656 74.078125 287.507812 74.132812 C 286.171875 74.972656 283.070312 75.558594 279.460938 75.558594 C 275.847656 75.558594 272.746094 74.972656 271.410156 74.132812 C 271.320312 74.078125 271.207031 74.140625 271.207031 74.242188 Z M 271.207031 74.242188 " fill-opacity="1" fill-rule="nonzero"/><path fill="#25d366" d="M 287.84375 74.242188 L 287.84375 80.042969 C 287.84375 80.136719 287.792969 80.226562 287.707031 80.273438 C 287.625 80.320312 287.519531 80.316406 287.4375 80.265625 C 286.078125 79.410156 282.945312 78.859375 279.460938 78.859375 C 275.972656 78.859375 272.84375 79.410156 271.480469 80.265625 C 271.398438 80.316406 271.292969 80.320312 271.210938 80.273438 C 271.125 80.226562 271.074219 80.136719 271.074219 80.042969 L 271.074219 74.242188 C 271.074219 74.148438 271.125 74.058594 271.210938 74.011719 C 271.292969 73.964844 271.398438 73.96875 271.480469 74.019531 C 272.84375 74.875 275.972656 75.425781 279.460938 75.425781 C 282.945312 75.425781 286.078125 74.875 287.4375 74.019531 C 287.519531 73.96875 287.625 73.964844 287.707031 74.011719 C 287.792969 74.058594 287.84375 74.148438 287.84375 74.242188 Z M 271.339844 80.042969 C 272.742188 79.160156 275.929688 78.59375 279.460938 78.59375 C 282.992188 78.59375 286.179688 79.160156 287.578125 80.039062 L 287.582031 74.242188 C 286.179688 75.125 282.992188 75.691406 279.460938 75.691406 C 275.929688 75.691406 272.742188 75.125 271.339844 74.246094 L 271.339844 74.242188 Z M 271.339844 80.042969 " fill-opacity="1" fill-rule="nonzero"/></g><g clip-path="url(#77548916a8)"><g clip-path="url(#0d12221f75)"><g clip-path="url(#495bb9dc47)"><path fill="#25d366" d="M 334.933594 59.035156 L 330.980469 63.273438 C 330.910156 63.351562 330.949219 63.472656 331.050781 63.492188 C 332.601562 63.792969 335.269531 65.480469 337.910156 67.945312 C 340.550781 70.40625 342.417969 72.953125 342.824219 74.480469 C 342.847656 74.578125 342.976562 74.613281 343.046875 74.535156 L 347.003906 70.296875 C 347.074219 70.222656 347.03125 70.097656 346.929688 70.078125 C 345.378906 69.78125 342.710938 68.09375 340.070312 65.628906 C 337.429688 63.164062 335.566406 60.621094 335.160156 59.09375 C 335.132812 58.992188 335.007812 58.960938 334.933594 59.035156 Z M 334.933594 59.035156 " fill-opacity="1" fill-rule="nonzero"/><path fill="#25d366" d="M 347.097656 70.386719 L 343.144531 74.625 C 343.078125 74.695312 342.980469 74.726562 342.886719 74.703125 C 342.792969 74.679688 342.71875 74.605469 342.695312 74.511719 C 342.28125 72.960938 340.367188 70.417969 337.820312 68.039062 C 335.273438 65.660156 332.605469 63.929688 331.027344 63.625 C 330.933594 63.605469 330.855469 63.535156 330.824219 63.445312 C 330.796875 63.355469 330.816406 63.253906 330.882812 63.183594 L 334.839844 58.945312 C 334.902344 58.875 335.003906 58.847656 335.09375 58.871094 C 335.1875 58.894531 335.261719 58.964844 335.289062 59.058594 C 335.699219 60.613281 337.613281 63.15625 340.160156 65.53125 C 342.710938 67.910156 345.375 69.644531 346.953125 69.949219 C 347.050781 69.96875 347.125 70.035156 347.15625 70.128906 C 347.1875 70.21875 347.164062 70.320312 347.097656 70.386719 Z M 331.078125 63.363281 C 332.703125 63.679688 335.417969 65.4375 338 67.847656 C 340.582031 70.257812 342.523438 72.847656 342.949219 74.445312 L 346.90625 70.207031 C 345.28125 69.894531 342.5625 68.136719 339.980469 65.726562 C 337.398438 63.316406 335.457031 60.726562 335.03125 59.128906 L 335.03125 59.125 Z M 331.078125 63.363281 " fill-opacity="1" fill-rule="nonzero"/></g></g></g></svg>